<svg width="103" height="36" viewBox="0 0 103 36" fill="none" xmlns="http://www.w3.org/2000/svg">
<g clip-path="url(#clip0_81_413)">
<path d="M27.5625 0H8.4375C3.7776 0 0 3.7776 0 8.4375V27.5625C0 32.2224 3.7776 36 8.4375 36H27.5625C32.2224 36 36 32.2224 36 27.5625V8.4375C36 3.7776 32.2224 0 27.5625 0Z" fill="#3B465B" fill-opacity="0.9"/>
<mask id="mask0_81_413" style="mask-type:luminance" maskUnits="userSpaceOnUse" x="8" y="3" width="20" height="30">
<path d="M8.57812 3.9375H27.3319V32.0625H8.57812V3.9375Z" fill="white"/>
</mask>
<g mask="url(#mask0_81_413)">
<path d="M13.2676 32.0624C15.8551 32.0624 17.955 29.9625 17.955 27.375V22.6874H13.2676C10.6801 22.6874 8.57996 24.7875 8.57996 27.375C8.57996 29.9625 10.6801 32.0624 13.2676 32.0624Z" fill="#E6F4FD"/>
<path d="M8.57996 18.0001C8.57996 15.4126 10.6801 13.3126 13.2676 13.3126H17.955V22.6875H13.2676C10.6801 22.6875 8.57996 20.5876 8.57996 18.0001Z" fill="#E6F4FD"/>
<path d="M8.57983 8.62495C8.57983 6.03745 10.6799 3.9375 13.2674 3.9375H17.9549V13.3125H13.2674C10.6799 13.3125 8.57983 11.2125 8.57983 8.62495Z" fill="#E6F4FD"/>
<path d="M17.955 3.9375H22.6424C25.2299 3.9375 27.33 6.03745 27.33 8.62495C27.33 11.2125 25.2299 13.3125 22.6424 13.3125H17.955V3.9375Z" fill="#E6F4FD"/>
<path d="M27.33 18.0001C27.33 20.5876 25.2299 22.6875 22.6424 22.6875C20.0549 22.6875 17.955 20.5876 17.955 18.0001C17.955 15.4126 20.0549 13.3126 22.6424 13.3126C25.2299 13.3126 27.33 15.4126 27.33 18.0001Z" fill="#E6F4FD"/>
</g>
</g>
<path d="M45.4347 25.5V10.9545H54.7528V13.1634H48.0696V17.1122H54.1136V19.321H48.0696V25.5H45.4347ZM57.0398 25.5V14.5909H59.6108V25.5H57.0398ZM58.3324 13.0426C57.9252 13.0426 57.5748 12.9077 57.2812 12.6378C56.9877 12.3632 56.8409 12.0341 56.8409 11.6506C56.8409 11.2623 56.9877 10.9332 57.2812 10.6634C57.5748 10.3887 57.9252 10.2514 58.3324 10.2514C58.7443 10.2514 59.0947 10.3887 59.3835 10.6634C59.6771 10.9332 59.8239 11.2623 59.8239 11.6506C59.8239 12.0341 59.6771 12.3632 59.3835 12.6378C59.0947 12.9077 58.7443 13.0426 58.3324 13.0426ZM66.9989 29.8182C66.0756 29.8182 65.2826 29.6927 64.6197 29.4418C63.9568 29.1955 63.4241 28.8641 63.0217 28.4474C62.6192 28.0308 62.3398 27.5691 62.1836 27.0625L64.4989 26.5014C64.6031 26.7145 64.7546 26.9252 64.9535 27.1335C65.1523 27.3466 65.4199 27.5218 65.756 27.6591C66.0969 27.8011 66.5254 27.8722 67.0415 27.8722C67.7707 27.8722 68.3744 27.6946 68.8526 27.3395C69.3308 26.9891 69.57 26.4115 69.57 25.6065V23.5398H69.4421C69.3095 23.8049 69.1154 24.0772 68.8597 24.3565C68.6088 24.6359 68.275 24.8703 67.8583 25.0597C67.4464 25.2491 66.9279 25.3438 66.3029 25.3438C65.4648 25.3438 64.7049 25.1473 64.0231 24.7543C63.346 24.3565 62.8062 23.7647 62.4038 22.9787C62.006 22.188 61.8072 21.1984 61.8072 20.0099C61.8072 18.812 62.006 17.8011 62.4038 16.9773C62.8062 16.1487 63.3484 15.5213 64.0302 15.0952C64.712 14.6643 65.4719 14.4489 66.31 14.4489C66.9492 14.4489 67.4748 14.5578 67.8867 14.7756C68.3034 14.9886 68.6348 15.2467 68.881 15.5497C69.1272 15.848 69.3143 16.1297 69.4421 16.3949H69.5842V14.5909H72.1197V25.6776C72.1197 26.6103 71.8971 27.3821 71.4521 27.9929C71.007 28.6037 70.3986 29.0606 69.6268 29.3636C68.855 29.6667 67.979 29.8182 66.9989 29.8182ZM67.0202 23.3267C67.5647 23.3267 68.0288 23.1941 68.4123 22.929C68.7958 22.6638 69.087 22.2827 69.2859 21.7855C69.4847 21.2884 69.5842 20.6918 69.5842 19.9957C69.5842 19.3092 69.4847 18.7079 69.2859 18.1918C69.0917 17.6757 68.8029 17.2756 68.4194 16.9915C68.0406 16.7027 67.5742 16.5582 67.0202 16.5582C66.4473 16.5582 65.9691 16.7074 65.5856 17.0057C65.2021 17.304 64.9132 17.7135 64.7191 18.2344C64.525 18.7505 64.4279 19.3376 64.4279 19.9957C64.4279 20.6634 64.525 21.2481 64.7191 21.75C64.918 22.2472 65.2092 22.6354 65.5927 22.9148C65.9809 23.1894 66.4568 23.3267 67.0202 23.3267ZM74.7546 25.5V14.5909H77.212V16.4446H77.3398C77.5671 15.8196 77.9435 15.3319 78.4691 14.9815C78.9947 14.6264 79.622 14.4489 80.3512 14.4489C81.0898 14.4489 81.7125 14.6288 82.2191 14.9886C82.7305 15.3437 83.0903 15.8291 83.2987 16.4446H83.4123C83.6538 15.8385 84.061 15.3556 84.6339 14.9957C85.2115 14.6312 85.8957 14.4489 86.6864 14.4489C87.6902 14.4489 88.5094 14.7661 89.1438 15.4006C89.7783 16.035 90.0955 16.9607 90.0955 18.1776V25.5H87.5174V18.5753C87.5174 17.8982 87.3375 17.4034 86.9776 17.0909C86.6178 16.7737 86.1774 16.6151 85.6566 16.6151C85.0363 16.6151 84.551 16.8092 84.2006 17.1974C83.855 17.581 83.6822 18.0805 83.6822 18.696V25.5H81.1609V18.4688C81.1609 17.9053 80.9904 17.4555 80.6495 17.1193C80.3133 16.7831 79.873 16.6151 79.3285 16.6151C78.9592 16.6151 78.623 16.7098 78.32 16.8991C78.0169 17.0838 77.7754 17.3466 77.5955 17.6875C77.4156 18.0237 77.3256 18.4167 77.3256 18.8665V25.5H74.7546ZM95.843 25.7202C95.1518 25.7202 94.5291 25.5971 93.9751 25.3509C93.4259 25.0999 92.9903 24.7306 92.6683 24.2429C92.3511 23.7552 92.1925 23.1539 92.1925 22.4389C92.1925 21.8234 92.3061 21.3144 92.5334 20.9119C92.7607 20.5095 93.0708 20.1875 93.4638 19.946C93.8568 19.7045 94.2995 19.5223 94.7919 19.3991C95.2891 19.2713 95.8028 19.179 96.3331 19.1222C96.9723 19.0559 97.4908 18.9967 97.8885 18.9446C98.2862 18.8878 98.575 18.8026 98.755 18.6889C98.9396 18.5705 99.032 18.3883 99.032 18.142V18.0994C99.032 17.5644 98.8733 17.1501 98.5561 16.8565C98.2389 16.563 97.782 16.4162 97.1854 16.4162C96.5556 16.4162 96.0561 16.5535 95.6868 16.8281C95.3222 17.1027 95.076 17.4271 94.9482 17.8011L92.5476 17.4602C92.737 16.7973 93.0495 16.2434 93.4851 15.7983C93.9207 15.3485 94.4534 15.0123 95.0831 14.7898C95.7128 14.5625 96.4089 14.4489 97.1712 14.4489C97.6967 14.4489 98.2199 14.5104 98.7408 14.6335C99.2616 14.7566 99.7375 14.9602 100.168 15.2443C100.599 15.5237 100.945 15.9048 101.205 16.3878C101.47 16.8707 101.603 17.4744 101.603 18.1989V25.5H99.1314V24.0014H99.0462C98.8899 24.3045 98.6697 24.5885 98.3857 24.8537C98.1063 25.1141 97.7536 25.3248 97.3274 25.4858C96.906 25.642 96.4112 25.7202 95.843 25.7202ZM96.5107 23.831C97.0268 23.831 97.4742 23.7292 97.853 23.5256C98.2318 23.3172 98.523 23.0426 98.7266 22.7017C98.9349 22.3608 99.0391 21.9891 99.0391 21.5866V20.3011C98.9586 20.3674 98.8213 20.429 98.6271 20.4858C98.4377 20.5426 98.2247 20.5923 97.9879 20.6349C97.7512 20.6776 97.5168 20.7154 97.2848 20.7486C97.0528 20.7817 96.8516 20.8101 96.6811 20.8338C96.2976 20.8859 95.9543 20.9711 95.6513 21.0895C95.3482 21.2079 95.1091 21.3736 94.9339 21.5866C94.7588 21.795 94.6712 22.0649 94.6712 22.3963C94.6712 22.8698 94.844 23.2273 95.1896 23.4688C95.5353 23.7102 95.9756 23.831 96.5107 23.831Z" fill="#3B465B" fill-opacity="0.9"/>
<defs>
<clipPath id="clip0_81_413">
<rect width="36" height="36" fill="white"/>
</clipPath>
</defs>
</svg>
