<svg width="135" height="36" viewBox="0 0 135 36" fill="none" xmlns="http://www.w3.org/2000/svg">
<g clip-path="url(#clip0_81_376)">
<path d="M6.38438 0.44989H29.6438C33.1594 0.44989 36.0281 3.29051 36.0281 6.83426V29.1936C36.0281 32.7093 33.1875 35.578 29.6438 35.578H6.38438C2.84063 35.5499 0 32.7093 0 29.1655V6.83426C0 3.29051 2.84063 0.44989 6.38438 0.44989Z" fill="#330000"/>
<path d="M17.4094 21.4596H11.8125L10.6875 24.9752C10.6594 25.1158 10.5469 25.2002 10.4063 25.1721H7.59378C7.42503 25.1721 7.3969 25.0877 7.42503 24.8908L12.2625 10.9971C12.3188 10.8565 12.3469 10.6877 12.4032 10.4908C12.4594 10.1815 12.4875 9.84397 12.4875 9.50647C12.4594 9.42209 12.5438 9.36585 12.6 9.33772H16.4813C16.5938 9.33772 16.65 9.39397 16.6782 9.45022L22.1625 24.8908C22.2188 25.0596 22.1625 25.144 22.0219 25.144H18.8719C18.7594 25.1721 18.675 25.0877 18.6188 24.9752L17.4094 21.4596ZM12.6844 18.394H16.4813C16.3969 18.0846 16.2844 17.6908 16.1438 17.3252C16.0032 16.9315 15.8625 16.4815 15.75 16.0315C15.6094 15.5533 15.4688 15.1033 15.3282 14.6533C15.1875 14.1752 15.0469 13.7533 14.9344 13.3315C14.8219 12.9096 14.7094 12.5158 14.5969 12.1502H14.5688C14.4282 12.7971 14.2594 13.444 14.0625 14.0908C13.8375 14.8221 13.6125 15.5533 13.3594 16.3127C13.1344 17.0721 12.9094 17.7752 12.6844 18.394ZM25.5094 12.0096C25.0032 12.0377 24.525 11.8408 24.1875 11.4752C23.85 11.1096 23.6532 10.6033 23.6813 10.0971C23.6532 9.59085 23.85 9.11272 24.2157 8.77522C24.5813 8.43772 25.0594 8.24084 25.5375 8.24084C26.1282 8.24084 26.5782 8.4096 26.9157 8.77522C27.2532 9.14085 27.4219 9.61897 27.4219 10.0971C27.45 10.6033 27.2532 11.1096 26.8875 11.4752C26.5219 11.8408 26.0157 12.0377 25.5094 12.0096ZM23.8219 25.0315V13.4721C23.8219 13.3315 23.8782 13.2752 24.0188 13.2752H27C27.1407 13.2752 27.1969 13.3596 27.1969 13.4721V25.0315C27.1969 25.2002 27.1407 25.2846 27 25.2846H24.0469C23.9063 25.2565 23.8219 25.1721 23.8219 25.0315Z" fill="#FF9A00"/>
</g>
<path d="M47.939 11.4214V25.5H45.3886V11.4214H47.939ZM53.0792 11.4214V25.5H50.5907V11.4214H53.0792ZM58.1267 11.4214V25.5H55.6382V11.4214H58.1267ZM67.4156 21.0592V14.9411H69.9041V25.5H67.4912V23.6233H67.3812C67.1429 24.2145 66.7511 24.698 66.2057 25.0738C65.6649 25.4496 64.9981 25.6375 64.2053 25.6375C63.5133 25.6375 62.9015 25.484 62.3698 25.1769C61.8428 24.8653 61.4304 24.4139 61.1325 23.8227C60.8346 23.2269 60.6856 22.5074 60.6856 21.6641V14.9411H63.1741V21.2792C63.1741 21.9483 63.3575 22.4799 63.7241 22.874C64.0907 23.2681 64.5719 23.4652 65.1677 23.4652C65.5343 23.4652 65.8895 23.3758 66.2332 23.1971C66.5769 23.0184 66.8588 22.7526 67.0787 22.3997C67.3033 22.0422 67.4156 21.5954 67.4156 21.0592ZM80.8084 17.732L78.5399 17.9795C78.4758 17.7504 78.3635 17.535 78.2031 17.3333C78.0473 17.1317 77.8364 16.969 77.5706 16.8453C77.3048 16.7215 76.9794 16.6597 76.5945 16.6597C76.0766 16.6597 75.6413 16.7719 75.2884 16.9965C74.9401 17.2211 74.7682 17.5121 74.7728 17.8695C74.7682 18.1766 74.8805 18.4263 75.1096 18.6188C75.3434 18.8113 75.7283 18.9694 76.2645 19.0932L78.0656 19.4781C79.0647 19.6935 79.8071 20.0349 80.2929 20.5024C80.7832 20.9698 81.0307 21.5816 81.0353 22.3378C81.0307 23.0023 80.8359 23.5889 80.451 24.0976C80.0706 24.6018 79.5413 24.9959 78.863 25.28C78.1847 25.5642 77.4057 25.7062 76.5257 25.7062C75.2334 25.7062 74.1931 25.4358 73.4048 24.8951C72.6166 24.3497 72.1468 23.5912 71.9956 22.6197L74.4222 22.3859C74.5322 22.8626 74.7659 23.2223 75.1234 23.4652C75.4809 23.7081 75.946 23.8295 76.5189 23.8295C77.1101 23.8295 77.5844 23.7081 77.9418 23.4652C78.3039 23.2223 78.4849 22.9221 78.4849 22.5647C78.4849 22.2622 78.3681 22.0124 78.1343 21.8154C77.9052 21.6183 77.5477 21.4671 77.0619 21.3617L75.2609 20.9836C74.2481 20.7728 73.4988 20.4176 73.013 19.9181C72.5272 19.414 72.2866 18.7769 72.2912 18.007C72.2866 17.3562 72.463 16.7926 72.8205 16.3159C73.1825 15.8347 73.6844 15.4635 74.326 15.2023C74.9722 14.9365 75.7169 14.8036 76.5601 14.8036C77.7975 14.8036 78.7713 15.0671 79.4817 15.5941C80.1966 16.1212 80.6389 16.8338 80.8084 17.732ZM88.3599 14.9411V16.8659H82.2898V14.9411H88.3599ZM83.7884 12.4113H86.2769V22.3241C86.2769 22.6586 86.3273 22.9153 86.4282 23.094C86.5336 23.2681 86.6711 23.3873 86.8406 23.4515C87.0102 23.5156 87.1981 23.5477 87.4043 23.5477C87.5601 23.5477 87.7022 23.5362 87.8305 23.5133C87.9634 23.4904 88.0643 23.4698 88.133 23.4515L88.5523 25.3969C88.4194 25.4427 88.2292 25.4931 87.9818 25.5481C87.7389 25.6031 87.441 25.6352 87.0881 25.6444C86.4648 25.6627 85.9034 25.5687 85.4039 25.3625C84.9044 25.1517 84.508 24.8263 84.2146 24.3864C83.9259 23.9464 83.7839 23.3965 83.7884 22.7365V12.4113ZM90.441 25.5V14.9411H92.8539V16.7009H92.9639C93.1564 16.0914 93.4864 15.6216 93.9538 15.2917C94.4258 14.9571 94.9643 14.7898 95.5693 14.7898C95.7068 14.7898 95.8603 14.7967 96.0298 14.8105C96.204 14.8196 96.3484 14.8357 96.4629 14.8586V17.1477C96.3575 17.1111 96.1902 17.079 95.9611 17.0515C95.7365 17.0194 95.5189 17.0034 95.308 17.0034C94.8543 17.0034 94.4465 17.1019 94.0844 17.299C93.727 17.4914 93.4451 17.7595 93.2389 18.1033C93.0327 18.447 92.9295 18.8434 92.9295 19.2925V25.5H90.441ZM100.966 25.7131C100.296 25.7131 99.6939 25.5939 99.1577 25.3556C98.626 25.1127 98.2044 24.7553 97.8928 24.2832C97.5857 23.8112 97.4322 23.2292 97.4322 22.5372C97.4322 21.9414 97.5422 21.4487 97.7622 21.0592C97.9822 20.6697 98.2823 20.358 98.6627 20.1243C99.0431 19.8906 99.4716 19.7141 99.9482 19.595C100.429 19.4712 100.927 19.3819 101.44 19.3269C102.059 19.2627 102.56 19.2054 102.945 19.155C103.33 19.1 103.61 19.0175 103.784 18.9075C103.963 18.793 104.052 18.6165 104.052 18.3782V18.337C104.052 17.8191 103.899 17.4181 103.592 17.134C103.285 16.8498 102.842 16.7078 102.265 16.7078C101.655 16.7078 101.172 16.8407 100.814 17.1065C100.461 17.3723 100.223 17.6862 100.099 18.0483L97.7759 17.7183C97.9592 17.0767 98.2617 16.5405 98.6833 16.1097C99.105 15.6743 99.6205 15.349 100.23 15.1336C100.84 14.9136 101.513 14.8036 102.251 14.8036C102.76 14.8036 103.266 14.8632 103.77 14.9823C104.274 15.1015 104.735 15.2985 105.152 15.5735C105.569 15.8439 105.904 16.2128 106.156 16.6803C106.412 17.1477 106.541 17.732 106.541 18.4332V25.5H104.148V24.0495H104.066C103.915 24.3428 103.702 24.6178 103.427 24.8744C103.156 25.1265 102.815 25.3304 102.402 25.4863C101.994 25.6375 101.516 25.7131 100.966 25.7131ZM101.612 23.8845C102.111 23.8845 102.544 23.786 102.911 23.5889C103.278 23.3873 103.559 23.1215 103.757 22.7915C103.958 22.4616 104.059 22.1018 104.059 21.7123V20.468C103.981 20.5322 103.848 20.5918 103.66 20.6467C103.477 20.7017 103.271 20.7499 103.042 20.7911C102.812 20.8324 102.586 20.869 102.361 20.9011C102.137 20.9332 101.942 20.9607 101.777 20.9836C101.406 21.034 101.073 21.1165 100.78 21.2311C100.487 21.3456 100.255 21.506 100.086 21.7123C99.9161 21.9139 99.8313 22.1751 99.8313 22.4959C99.8313 22.9542 99.9986 23.3002 100.333 23.534C100.668 23.7677 101.094 23.8845 101.612 23.8845ZM114.315 14.9411V16.8659H108.245V14.9411H114.315ZM109.744 12.4113H112.233V22.3241C112.233 22.6586 112.283 22.9153 112.384 23.094C112.489 23.2681 112.627 23.3873 112.796 23.4515C112.966 23.5156 113.154 23.5477 113.36 23.5477C113.516 23.5477 113.658 23.5362 113.786 23.5133C113.919 23.4904 114.02 23.4698 114.089 23.4515L114.508 25.3969C114.375 25.4427 114.185 25.4931 113.937 25.5481C113.695 25.6031 113.397 25.6352 113.044 25.6444C112.42 25.6627 111.859 25.5687 111.36 25.3625C110.86 25.1517 110.464 24.8263 110.17 24.3864C109.882 23.9464 109.739 23.3965 109.744 22.7365V12.4113ZM120.889 25.7062C119.858 25.7062 118.964 25.4794 118.208 25.0257C117.452 24.572 116.865 23.9372 116.448 23.1215C116.036 22.3057 115.83 21.3525 115.83 20.2618C115.83 19.1711 116.036 18.2155 116.448 17.3952C116.865 16.5749 117.452 15.9379 118.208 15.4841C118.964 15.0304 119.858 14.8036 120.889 14.8036C121.92 14.8036 122.814 15.0304 123.57 15.4841C124.326 15.9379 124.91 16.5749 125.323 17.3952C125.74 18.2155 125.949 19.1711 125.949 20.2618C125.949 21.3525 125.74 22.3057 125.323 23.1215C124.91 23.9372 124.326 24.572 123.57 25.0257C122.814 25.4794 121.92 25.7062 120.889 25.7062ZM120.903 23.7127C121.462 23.7127 121.929 23.5592 122.305 23.2521C122.681 22.9405 122.96 22.5234 123.144 22.001C123.332 21.4785 123.426 20.8965 123.426 20.2549C123.426 19.6087 123.332 19.0244 123.144 18.502C122.96 17.9749 122.681 17.5556 122.305 17.244C121.929 16.9323 121.462 16.7765 120.903 16.7765C120.33 16.7765 119.853 16.9323 119.473 17.244C119.097 17.5556 118.815 17.9749 118.627 18.502C118.444 19.0244 118.352 19.6087 118.352 20.2549C118.352 20.8965 118.444 21.4785 118.627 22.001C118.815 22.5234 119.097 22.9405 119.473 23.2521C119.853 23.5592 120.33 23.7127 120.903 23.7127ZM128.061 25.5V14.9411H130.474V16.7009H130.584C130.776 16.0914 131.106 15.6216 131.573 15.2917C132.045 14.9571 132.584 14.7898 133.189 14.7898C133.326 14.7898 133.48 14.7967 133.649 14.8105C133.824 14.8196 133.968 14.8357 134.083 14.8586V17.1477C133.977 17.1111 133.81 17.079 133.581 17.0515C133.356 17.0194 133.138 17.0034 132.928 17.0034C132.474 17.0034 132.066 17.1019 131.704 17.299C131.347 17.4914 131.065 17.7595 130.858 18.1033C130.652 18.447 130.549 18.8434 130.549 19.2925V25.5H128.061Z" fill="#323330"/>
<defs>
<clipPath id="clip0_81_376">
<rect width="36" height="36" fill="white"/>
</clipPath>
</defs>
</svg>
