<svg width="135" height="36" viewBox="0 0 135 36" fill="none" xmlns="http://www.w3.org/2000/svg">
<g clip-path="url(#clip0_81_416)">
<path d="M6.38438 0.44989H29.6438C33.1594 0.44989 36.0281 3.29051 36.0281 6.83426V29.1936C36.0281 32.7093 33.1875 35.578 29.6438 35.578H6.38438C2.84063 35.5499 0 32.7093 0 29.1655V6.83426C0 3.29051 2.84063 0.44989 6.38438 0.44989Z" fill="#3B465B" fill-opacity="0.9"/>
<path d="M17.4094 21.4596H11.8125L10.6875 24.9752C10.6594 25.1158 10.5469 25.2002 10.4063 25.1721H7.59378C7.42503 25.1721 7.3969 25.0877 7.42503 24.8908L12.2625 10.9971C12.3188 10.8565 12.3469 10.6877 12.4032 10.4908C12.4594 10.1815 12.4875 9.84397 12.4875 9.50647C12.4594 9.42209 12.5438 9.36585 12.6 9.33772H16.4813C16.5938 9.33772 16.65 9.39397 16.6782 9.45022L22.1625 24.8908C22.2188 25.0596 22.1625 25.144 22.0219 25.144H18.8719C18.7594 25.1721 18.675 25.0877 18.6188 24.9752L17.4094 21.4596ZM12.6844 18.394H16.4813C16.3969 18.0846 16.2844 17.6908 16.1438 17.3252C16.0032 16.9315 15.8625 16.4815 15.75 16.0315C15.6094 15.5533 15.4688 15.1033 15.3282 14.6533C15.1875 14.1752 15.0469 13.7533 14.9344 13.3315C14.8219 12.9096 14.7094 12.5158 14.5969 12.1502H14.5688C14.4282 12.7971 14.2594 13.444 14.0625 14.0908C13.8375 14.8221 13.6125 15.5533 13.3594 16.3127C13.1344 17.0721 12.9094 17.7752 12.6844 18.394ZM25.5094 12.0096C25.0032 12.0377 24.525 11.8408 24.1875 11.4752C23.85 11.1096 23.6532 10.6033 23.6813 10.0971C23.6532 9.59085 23.85 9.11272 24.2157 8.77522C24.5813 8.43772 25.0594 8.24084 25.5375 8.24084C26.1282 8.24084 26.5782 8.4096 26.9157 8.77522C27.2532 9.14085 27.4219 9.61897 27.4219 10.0971C27.45 10.6033 27.2532 11.1096 26.8875 11.4752C26.5219 11.8408 26.0157 12.0377 25.5094 12.0096ZM23.8219 25.0315V13.4721C23.8219 13.3315 23.8782 13.2752 24.0188 13.2752H27C27.1407 13.2752 27.1969 13.3596 27.1969 13.4721V25.0315C27.1969 25.2002 27.1407 25.2846 27 25.2846H24.0469C23.9063 25.2565 23.8219 25.1721 23.8219 25.0315Z" fill="#E6F4FD"/>
</g>
<path d="M47.939 10.9214V25H45.3886V10.9214H47.939ZM53.0792 10.9214V25H50.5907V10.9214H53.0792ZM58.1267 10.9214V25H55.6382V10.9214H58.1267ZM67.4156 20.5592V14.4411H69.9041V25H67.4912V23.1233H67.3812C67.1429 23.7145 66.7511 24.198 66.2057 24.5738C65.6649 24.9496 64.9981 25.1375 64.2053 25.1375C63.5133 25.1375 62.9015 24.984 62.3698 24.6769C61.8428 24.3653 61.4304 23.9139 61.1325 23.3227C60.8346 22.7269 60.6856 22.0074 60.6856 21.1641V14.4411H63.1741V20.7792C63.1741 21.4483 63.3575 21.9799 63.7241 22.374C64.0907 22.7681 64.5719 22.9652 65.1677 22.9652C65.5343 22.9652 65.8895 22.8758 66.2332 22.6971C66.5769 22.5184 66.8588 22.2526 67.0787 21.8997C67.3033 21.5422 67.4156 21.0954 67.4156 20.5592ZM80.8084 17.232L78.5399 17.4795C78.4758 17.2504 78.3635 17.035 78.2031 16.8333C78.0473 16.6317 77.8364 16.469 77.5706 16.3453C77.3048 16.2215 76.9794 16.1597 76.5945 16.1597C76.0766 16.1597 75.6413 16.2719 75.2884 16.4965C74.9401 16.7211 74.7682 17.0121 74.7728 17.3695C74.7682 17.6766 74.8805 17.9263 75.1096 18.1188C75.3434 18.3113 75.7283 18.4694 76.2645 18.5932L78.0656 18.9781C79.0647 19.1935 79.8071 19.5349 80.2929 20.0024C80.7832 20.4698 81.0307 21.0816 81.0353 21.8378C81.0307 22.5023 80.8359 23.0889 80.451 23.5976C80.0706 24.1018 79.5413 24.4959 78.863 24.78C78.1847 25.0642 77.4057 25.2062 76.5257 25.2062C75.2334 25.2062 74.1931 24.9358 73.4048 24.3951C72.6166 23.8497 72.1468 23.0912 71.9956 22.1197L74.4222 21.8859C74.5322 22.3626 74.7659 22.7223 75.1234 22.9652C75.4809 23.2081 75.946 23.3295 76.5189 23.3295C77.1101 23.3295 77.5844 23.2081 77.9418 22.9652C78.3039 22.7223 78.4849 22.4221 78.4849 22.0647C78.4849 21.7622 78.3681 21.5124 78.1343 21.3154C77.9052 21.1183 77.5477 20.9671 77.0619 20.8617L75.2609 20.4836C74.2481 20.2728 73.4988 19.9176 73.013 19.4181C72.5272 18.914 72.2866 18.2769 72.2912 17.507C72.2866 16.8562 72.463 16.2926 72.8205 15.8159C73.1825 15.3347 73.6844 14.9635 74.326 14.7023C74.9722 14.4365 75.7169 14.3036 76.5601 14.3036C77.7975 14.3036 78.7713 14.5671 79.4817 15.0941C80.1966 15.6212 80.6389 16.3338 80.8084 17.232ZM88.3599 14.4411V16.3659H82.2898V14.4411H88.3599ZM83.7884 11.9113H86.2769V21.8241C86.2769 22.1586 86.3273 22.4153 86.4282 22.594C86.5336 22.7681 86.6711 22.8873 86.8406 22.9515C87.0102 23.0156 87.1981 23.0477 87.4043 23.0477C87.5601 23.0477 87.7022 23.0362 87.8305 23.0133C87.9634 22.9904 88.0643 22.9698 88.133 22.9515L88.5523 24.8969C88.4194 24.9427 88.2292 24.9931 87.9818 25.0481C87.7389 25.1031 87.441 25.1352 87.0881 25.1444C86.4648 25.1627 85.9034 25.0687 85.4039 24.8625C84.9044 24.6517 84.508 24.3263 84.2146 23.8864C83.9259 23.4464 83.7839 22.8965 83.7884 22.2365V11.9113ZM90.441 25V14.4411H92.8539V16.2009H92.9639C93.1564 15.5914 93.4864 15.1216 93.9538 14.7917C94.4258 14.4571 94.9643 14.2898 95.5693 14.2898C95.7068 14.2898 95.8603 14.2967 96.0298 14.3105C96.204 14.3196 96.3484 14.3357 96.4629 14.3586V16.6477C96.3575 16.6111 96.1902 16.579 95.9611 16.5515C95.7365 16.5194 95.5189 16.5034 95.308 16.5034C94.8543 16.5034 94.4465 16.6019 94.0844 16.799C93.727 16.9914 93.4451 17.2595 93.2389 17.6033C93.0327 17.947 92.9295 18.3434 92.9295 18.7925V25H90.441ZM100.966 25.2131C100.296 25.2131 99.6939 25.0939 99.1577 24.8556C98.626 24.6127 98.2044 24.2553 97.8928 23.7832C97.5857 23.3112 97.4322 22.7292 97.4322 22.0372C97.4322 21.4414 97.5422 20.9487 97.7622 20.5592C97.9822 20.1697 98.2823 19.858 98.6627 19.6243C99.0431 19.3906 99.4716 19.2141 99.9482 19.095C100.429 18.9712 100.927 18.8819 101.44 18.8269C102.059 18.7627 102.56 18.7054 102.945 18.655C103.33 18.6 103.61 18.5175 103.784 18.4075C103.963 18.293 104.052 18.1165 104.052 17.8782V17.837C104.052 17.3191 103.899 16.9181 103.592 16.634C103.285 16.3498 102.842 16.2078 102.265 16.2078C101.655 16.2078 101.172 16.3407 100.814 16.6065C100.461 16.8723 100.223 17.1862 100.099 17.5483L97.7759 17.2183C97.9592 16.5767 98.2617 16.0405 98.6833 15.6097C99.105 15.1743 99.6205 14.849 100.23 14.6336C100.84 14.4136 101.513 14.3036 102.251 14.3036C102.76 14.3036 103.266 14.3632 103.77 14.4823C104.274 14.6015 104.735 14.7985 105.152 15.0735C105.569 15.3439 105.904 15.7128 106.156 16.1803C106.412 16.6477 106.541 17.232 106.541 17.9332V25H104.148V23.5495H104.066C103.915 23.8428 103.702 24.1178 103.427 24.3744C103.156 24.6265 102.815 24.8304 102.402 24.9863C101.994 25.1375 101.516 25.2131 100.966 25.2131ZM101.612 23.3845C102.111 23.3845 102.544 23.286 102.911 23.0889C103.278 22.8873 103.559 22.6215 103.757 22.2915C103.958 21.9616 104.059 21.6018 104.059 21.2123V19.968C103.981 20.0322 103.848 20.0918 103.66 20.1467C103.477 20.2017 103.271 20.2499 103.042 20.2911C102.812 20.3324 102.586 20.369 102.361 20.4011C102.137 20.4332 101.942 20.4607 101.777 20.4836C101.406 20.534 101.073 20.6165 100.78 20.7311C100.487 20.8456 100.255 21.006 100.086 21.2123C99.9161 21.4139 99.8313 21.6751 99.8313 21.9959C99.8313 22.4542 99.9986 22.8002 100.333 23.034C100.668 23.2677 101.094 23.3845 101.612 23.3845ZM114.315 14.4411V16.3659H108.245V14.4411H114.315ZM109.744 11.9113H112.233V21.8241C112.233 22.1586 112.283 22.4153 112.384 22.594C112.489 22.7681 112.627 22.8873 112.796 22.9515C112.966 23.0156 113.154 23.0477 113.36 23.0477C113.516 23.0477 113.658 23.0362 113.786 23.0133C113.919 22.9904 114.02 22.9698 114.089 22.9515L114.508 24.8969C114.375 24.9427 114.185 24.9931 113.937 25.0481C113.695 25.1031 113.397 25.1352 113.044 25.1444C112.42 25.1627 111.859 25.0687 111.36 24.8625C110.86 24.6517 110.464 24.3263 110.17 23.8864C109.882 23.4464 109.739 22.8965 109.744 22.2365V11.9113ZM120.889 25.2062C119.858 25.2062 118.964 24.9794 118.208 24.5257C117.452 24.072 116.865 23.4372 116.448 22.6215C116.036 21.8057 115.83 20.8525 115.83 19.7618C115.83 18.6711 116.036 17.7155 116.448 16.8952C116.865 16.0749 117.452 15.4379 118.208 14.9841C118.964 14.5304 119.858 14.3036 120.889 14.3036C121.92 14.3036 122.814 14.5304 123.57 14.9841C124.326 15.4379 124.91 16.0749 125.323 16.8952C125.74 17.7155 125.949 18.6711 125.949 19.7618C125.949 20.8525 125.74 21.8057 125.323 22.6215C124.91 23.4372 124.326 24.072 123.57 24.5257C122.814 24.9794 121.92 25.2062 120.889 25.2062ZM120.903 23.2127C121.462 23.2127 121.929 23.0592 122.305 22.7521C122.681 22.4405 122.96 22.0234 123.144 21.501C123.332 20.9785 123.426 20.3965 123.426 19.7549C123.426 19.1087 123.332 18.5244 123.144 18.002C122.96 17.4749 122.681 17.0556 122.305 16.744C121.929 16.4323 121.462 16.2765 120.903 16.2765C120.33 16.2765 119.853 16.4323 119.473 16.744C119.097 17.0556 118.815 17.4749 118.627 18.002C118.444 18.5244 118.352 19.1087 118.352 19.7549C118.352 20.3965 118.444 20.9785 118.627 21.501C118.815 22.0234 119.097 22.4405 119.473 22.7521C119.853 23.0592 120.33 23.2127 120.903 23.2127ZM128.061 25V14.4411H130.474V16.2009H130.584C130.776 15.5914 131.106 15.1216 131.573 14.7917C132.045 14.4571 132.584 14.2898 133.189 14.2898C133.326 14.2898 133.48 14.2967 133.649 14.3105C133.824 14.3196 133.968 14.3357 134.083 14.3586V16.6477C133.977 16.6111 133.81 16.579 133.581 16.5515C133.356 16.5194 133.138 16.5034 132.928 16.5034C132.474 16.5034 132.066 16.6019 131.704 16.799C131.347 16.9914 131.065 17.2595 130.858 17.6033C130.652 17.947 130.549 18.3434 130.549 18.7925V25H128.061Z" fill="#3B465B" fill-opacity="0.9"/>
<defs>
<clipPath id="clip0_81_416">
<rect width="36" height="36" fill="white"/>
</clipPath>
</defs>
</svg>
