<svg width="145" height="36" viewBox="0 0 145 36" fill="none" xmlns="http://www.w3.org/2000/svg">
<g clip-path="url(#clip0_81_407)">
<path d="M27.5625 0H8.4375C3.7776 0 0 3.7776 0 8.4375V27.5625C0 32.2224 3.7776 36 8.4375 36H27.5625C32.2224 36 36 32.2224 36 27.5625V8.4375C36 3.7776 32.2224 0 27.5625 0Z" fill="#3B465B" fill-opacity="0.9"/>
<path d="M9.46572 30.084L12.2206 28.4168C12.7521 29.3591 13.2356 30.1564 14.3953 30.1564C15.507 30.1564 16.2078 29.7216 16.2078 28.0302V16.5273H19.591V28.078C19.591 31.582 17.537 33.1769 14.5403 33.1769C11.834 33.1769 10.2632 31.7756 9.46572 30.084ZM21.4285 29.7215L24.1831 28.1267C24.9083 29.3109 25.8508 30.1808 27.518 30.1808C28.9199 30.1808 29.8137 29.4799 29.8137 28.5132C29.8137 27.3534 28.8955 26.9425 27.3489 26.2661L26.5033 25.9034C24.0625 24.8644 22.4433 23.5594 22.4433 20.8046C22.4433 18.2672 24.3766 16.3338 27.3974 16.3338C29.5481 16.3338 31.0947 17.0831 32.2062 19.0405L29.5721 20.732C28.9921 19.693 28.364 19.2822 27.3974 19.2822C26.4065 19.2822 25.7782 19.9105 25.7782 20.732C25.7782 21.7469 26.4065 22.1578 27.8564 22.7863L28.7021 23.1487C31.5777 24.3813 33.1969 25.6376 33.1969 28.4649C33.1969 31.51 30.8046 33.1772 27.5906 33.1772C24.4492 33.1772 22.4192 31.679 21.4285 29.7215Z" fill="#E6F4FD"/>
</g>
<path d="M51.1733 10.9545H53.7869V21.1818C53.7822 22.1193 53.5833 22.9266 53.1903 23.6037C52.7973 24.276 52.2481 24.7945 51.5426 25.1591C50.8419 25.5189 50.0251 25.6989 49.0923 25.6989C48.2401 25.6989 47.473 25.5473 46.7912 25.2443C46.1141 24.9366 45.5767 24.482 45.179 23.8807C44.7813 23.2794 44.5824 22.5312 44.5824 21.6364H47.2031C47.2079 22.0294 47.2931 22.3679 47.4588 22.652C47.6293 22.9361 47.8636 23.1539 48.1619 23.3054C48.4602 23.4569 48.8035 23.5327 49.1918 23.5327C49.6132 23.5327 49.9706 23.4451 50.2642 23.2699C50.5578 23.09 50.7803 22.8248 50.9318 22.4744C51.0881 22.1241 51.1686 21.6932 51.1733 21.1818V10.9545ZM59.6712 25.7202C58.9799 25.7202 58.3572 25.5971 57.8033 25.3509C57.254 25.0999 56.8184 24.7306 56.4964 24.2429C56.1792 23.7552 56.0206 23.1539 56.0206 22.4389C56.0206 21.8234 56.1342 21.3144 56.3615 20.9119C56.5888 20.5095 56.8989 20.1875 57.2919 19.946C57.6849 19.7045 58.1276 19.5223 58.62 19.3991C59.1172 19.2713 59.6309 19.179 60.1612 19.1222C60.8004 19.0559 61.3189 18.9967 61.7166 18.9446C62.1143 18.8878 62.4032 18.8026 62.5831 18.6889C62.7678 18.5705 62.8601 18.3883 62.8601 18.142V18.0994C62.8601 17.5644 62.7015 17.1501 62.3842 16.8565C62.067 16.563 61.6101 16.4162 61.0135 16.4162C60.3838 16.4162 59.8842 16.5535 59.5149 16.8281C59.1503 17.1027 58.9041 17.4271 58.7763 17.8011L56.3757 17.4602C56.5651 16.7973 56.8776 16.2434 57.3132 15.7983C57.7488 15.3485 58.2815 15.0123 58.9112 14.7898C59.541 14.5625 60.237 14.4489 60.9993 14.4489C61.5249 14.4489 62.0481 14.5104 62.5689 14.6335C63.0897 14.7566 63.5656 14.9602 63.9964 15.2443C64.4273 15.5237 64.773 15.9048 65.0334 16.3878C65.2985 16.8707 65.4311 17.4744 65.4311 18.1989V25.5H62.9595V24.0014H62.8743C62.718 24.3045 62.4979 24.5885 62.2138 24.8537C61.9344 25.1141 61.5817 25.3248 61.1555 25.4858C60.7341 25.642 60.2393 25.7202 59.6712 25.7202ZM60.3388 23.831C60.8549 23.831 61.3023 23.7292 61.6811 23.5256C62.0599 23.3172 62.3511 23.0426 62.5547 22.7017C62.763 22.3608 62.8672 21.9891 62.8672 21.5866V20.3011C62.7867 20.3674 62.6494 20.429 62.4553 20.4858C62.2659 20.5426 62.0528 20.5923 61.8161 20.6349C61.5793 20.6776 61.3449 20.7154 61.1129 20.7486C60.8809 20.7817 60.6797 20.8101 60.5092 20.8338C60.1257 20.8859 59.7824 20.9711 59.4794 21.0895C59.1764 21.2079 58.9373 21.3736 58.7621 21.5866C58.5869 21.795 58.4993 22.0649 58.4993 22.3963C58.4993 22.8698 58.6721 23.2273 59.0178 23.4688C59.3634 23.7102 59.8037 23.831 60.3388 23.831ZM77.37 14.5909L73.4851 25.5H70.6442L66.7592 14.5909H69.5007L72.0078 22.6946H72.1214L74.6357 14.5909H77.37ZM81.9759 25.7202C81.2846 25.7202 80.6619 25.5971 80.108 25.3509C79.5587 25.0999 79.1231 24.7306 78.8011 24.2429C78.4839 23.7552 78.3253 23.1539 78.3253 22.4389C78.3253 21.8234 78.4389 21.3144 78.6662 20.9119C78.8935 20.5095 79.2036 20.1875 79.5966 19.946C79.9896 19.7045 80.4323 19.5223 80.9247 19.3991C81.4219 19.2713 81.9356 19.179 82.4659 19.1222C83.1051 19.0559 83.6236 18.9967 84.0213 18.9446C84.419 18.8878 84.7079 18.8026 84.8878 18.6889C85.0724 18.5705 85.1648 18.3883 85.1648 18.142V18.0994C85.1648 17.5644 85.0062 17.1501 84.6889 16.8565C84.3717 16.563 83.9148 16.4162 83.3182 16.4162C82.6884 16.4162 82.1889 16.5535 81.8196 16.8281C81.455 17.1027 81.2088 17.4271 81.081 17.8011L78.6804 17.4602C78.8698 16.7973 79.1823 16.2434 79.6179 15.7983C80.0535 15.3485 80.5862 15.0123 81.2159 14.7898C81.8456 14.5625 82.5417 14.4489 83.304 14.4489C83.8295 14.4489 84.3527 14.5104 84.8736 14.6335C85.3944 14.7566 85.8703 14.9602 86.3011 15.2443C86.732 15.5237 87.0777 15.9048 87.3381 16.3878C87.6032 16.8707 87.7358 17.4744 87.7358 18.1989V25.5H85.2642V24.0014H85.179C85.0227 24.3045 84.8026 24.5885 84.5185 24.8537C84.2391 25.1141 83.8864 25.3248 83.4602 25.4858C83.0388 25.642 82.544 25.7202 81.9759 25.7202ZM82.6435 23.831C83.1596 23.831 83.607 23.7292 83.9858 23.5256C84.3646 23.3172 84.6558 23.0426 84.8594 22.7017C85.0677 22.3608 85.1719 21.9891 85.1719 21.5866V20.3011C85.0914 20.3674 84.9541 20.429 84.7599 20.4858C84.5705 20.5426 84.3575 20.5923 84.1207 20.6349C83.884 20.6776 83.6496 20.7154 83.4176 20.7486C83.1856 20.7817 82.9844 20.8101 82.8139 20.8338C82.4304 20.8859 82.0871 20.9711 81.7841 21.0895C81.4811 21.2079 81.242 21.3736 81.0668 21.5866C80.8916 21.795 80.804 22.0649 80.804 22.3963C80.804 22.8698 80.9768 23.2273 81.3224 23.4688C81.6681 23.7102 82.1084 23.831 82.6435 23.831ZM98.9432 17.4744L96.5994 17.7301C96.5331 17.4934 96.4171 17.2708 96.2514 17.0625C96.0904 16.8542 95.8726 16.6861 95.598 16.5582C95.3234 16.4304 94.9872 16.3665 94.5895 16.3665C94.0545 16.3665 93.6046 16.4825 93.2401 16.7145C92.8802 16.9465 92.7027 17.2472 92.7074 17.6165C92.7027 17.9337 92.8187 18.1918 93.0554 18.3906C93.2969 18.5895 93.6946 18.7528 94.2486 18.8807L96.1094 19.2784C97.1416 19.5009 97.9086 19.8537 98.4105 20.3366C98.9171 20.8196 99.1728 21.4517 99.1776 22.233C99.1728 22.9195 98.9716 23.5256 98.5739 24.0511C98.1809 24.572 97.634 24.9792 96.9332 25.2727C96.2325 25.5663 95.4276 25.7131 94.5185 25.7131C93.1832 25.7131 92.1084 25.4337 91.294 24.875C90.4796 24.3116 89.9943 23.5279 89.8381 22.5241L92.3452 22.2827C92.4588 22.7751 92.7003 23.1468 93.0696 23.3977C93.4389 23.6487 93.9195 23.7741 94.5114 23.7741C95.1222 23.7741 95.6122 23.6487 95.9815 23.3977C96.3556 23.1468 96.5426 22.8366 96.5426 22.4673C96.5426 22.1548 96.4219 21.8968 96.1804 21.6932C95.9437 21.4896 95.5743 21.3333 95.0724 21.2244L93.2116 20.8338C92.1652 20.616 91.3911 20.2491 90.8892 19.733C90.3873 19.2121 90.1387 18.554 90.1435 17.7585C90.1387 17.0862 90.321 16.5038 90.6903 16.0114C91.0644 15.5142 91.5829 15.1307 92.2457 14.8608C92.9134 14.5862 93.6828 14.4489 94.554 14.4489C95.8324 14.4489 96.8385 14.7211 97.5724 15.2656C98.3111 15.8101 98.768 16.5464 98.9432 17.4744ZM106.056 25.7131C104.967 25.7131 104.032 25.474 103.251 24.9957C102.474 24.5175 101.875 23.857 101.454 23.0142C101.037 22.1667 100.829 21.1913 100.829 20.0881C100.829 18.9801 101.042 18.0024 101.468 17.1548C101.894 16.3026 102.496 15.6397 103.272 15.1662C104.053 14.688 104.977 14.4489 106.042 14.4489C106.927 14.4489 107.711 14.6122 108.393 14.9389C109.079 15.2609 109.626 15.7178 110.033 16.3097C110.441 16.8968 110.673 17.5833 110.729 18.3693H108.272C108.173 17.8437 107.936 17.4058 107.562 17.0554C107.192 16.7003 106.698 16.5227 106.077 16.5227C105.552 16.5227 105.09 16.6648 104.692 16.9489C104.295 17.2282 103.985 17.6307 103.762 18.1562C103.544 18.6818 103.435 19.3116 103.435 20.0455C103.435 20.7888 103.544 21.428 103.762 21.9631C103.98 22.4934 104.285 22.9029 104.678 23.1918C105.076 23.4759 105.542 23.6179 106.077 23.6179C106.456 23.6179 106.795 23.5469 107.093 23.4048C107.396 23.258 107.649 23.0473 107.853 22.7727C108.057 22.4981 108.196 22.1643 108.272 21.7713H110.729C110.668 22.5431 110.441 23.2273 110.048 23.8239C109.655 24.4157 109.12 24.8797 108.442 25.2159C107.765 25.5473 106.97 25.7131 106.056 25.7131ZM112.841 25.5V14.5909H115.333V16.4091H115.447C115.646 15.7794 115.987 15.294 116.47 14.9531C116.958 14.6075 117.514 14.4347 118.139 14.4347C118.281 14.4347 118.44 14.4418 118.615 14.456C118.795 14.4654 118.944 14.482 119.062 14.5057V16.8707C118.953 16.8329 118.78 16.7997 118.544 16.7713C118.312 16.7382 118.087 16.7216 117.869 16.7216C117.4 16.7216 116.979 16.8234 116.605 17.027C116.235 17.2259 115.944 17.5028 115.731 17.858C115.518 18.2131 115.412 18.6226 115.412 19.0866V25.5H112.841ZM120.77 25.5V14.5909H123.341V25.5H120.77ZM122.063 13.0426C121.656 13.0426 121.305 12.9077 121.012 12.6378C120.718 12.3632 120.571 12.0341 120.571 11.6506C120.571 11.2623 120.718 10.9332 121.012 10.6634C121.305 10.3887 121.656 10.2514 122.063 10.2514C122.475 10.2514 122.825 10.3887 123.114 10.6634C123.408 10.9332 123.554 11.2623 123.554 11.6506C123.554 12.0341 123.408 12.3632 123.114 12.6378C122.825 12.9077 122.475 13.0426 122.063 13.0426ZM125.985 29.5909V14.5909H128.513V16.3949H128.663C128.795 16.1297 128.982 15.848 129.224 15.5497C129.465 15.2467 129.792 14.9886 130.204 14.7756C130.616 14.5578 131.141 14.4489 131.781 14.4489C132.623 14.4489 133.383 14.6643 134.06 15.0952C134.742 15.5213 135.282 16.1534 135.68 16.9915C136.082 17.8248 136.283 18.8475 136.283 20.0597C136.283 21.2576 136.087 22.2756 135.694 23.1136C135.301 23.9517 134.766 24.5909 134.089 25.0312C133.412 25.4716 132.645 25.6918 131.788 25.6918C131.163 25.6918 130.644 25.5876 130.232 25.3793C129.82 25.1709 129.489 24.92 129.238 24.6264C128.992 24.3281 128.8 24.0464 128.663 23.7812H128.556V29.5909H125.985ZM128.506 20.0455C128.506 20.7509 128.606 21.3688 128.805 21.8991C129.008 22.4295 129.299 22.8437 129.678 23.142C130.062 23.4356 130.526 23.5824 131.07 23.5824C131.638 23.5824 132.114 23.4309 132.498 23.1278C132.881 22.8201 133.17 22.401 133.364 21.8707C133.563 21.3357 133.663 20.7273 133.663 20.0455C133.663 19.3684 133.566 18.767 133.371 18.2415C133.177 17.7159 132.888 17.304 132.505 17.0057C132.121 16.7074 131.643 16.5582 131.07 16.5582C130.521 16.5582 130.055 16.7027 129.671 16.9915C129.288 17.2803 128.996 17.6851 128.798 18.206C128.603 18.7268 128.506 19.34 128.506 20.0455ZM143.933 14.5909V16.5795H137.661V14.5909H143.933ZM139.21 11.9773H141.781V22.2188C141.781 22.5644 141.833 22.8295 141.937 23.0142C142.046 23.1941 142.188 23.3172 142.363 23.3835C142.538 23.4498 142.732 23.483 142.945 23.483C143.106 23.483 143.253 23.4711 143.386 23.4474C143.523 23.4238 143.627 23.4025 143.698 23.3835L144.131 25.3935C143.994 25.4408 143.798 25.4929 143.542 25.5497C143.291 25.6065 142.983 25.6397 142.619 25.6491C141.975 25.6681 141.395 25.571 140.879 25.358C140.362 25.1402 139.953 24.804 139.65 24.3494C139.352 23.8949 139.205 23.3267 139.21 22.6449V11.9773Z" fill="#3B465B" fill-opacity="0.9"/>
<defs>
<clipPath id="clip0_81_407">
<rect width="36" height="36" fill="white"/>
</clipPath>
</defs>
</svg>
