<svg width="145" height="36" viewBox="0 0 145 36" fill="none" xmlns="http://www.w3.org/2000/svg">
<g clip-path="url(#clip0_81_379)">
<path d="M27.5625 0H8.4375C3.7776 0 0 3.7776 0 8.4375V27.5625C0 32.2224 3.7776 36 8.4375 36H27.5625C32.2224 36 36 32.2224 36 27.5625V8.4375C36 3.7776 32.2224 0 27.5625 0Z" fill="#F0DB4F"/>
<path d="M9.46572 30.084L12.2206 28.4168C12.7521 29.3591 13.2356 30.1564 14.3953 30.1564C15.507 30.1564 16.2078 29.7216 16.2078 28.0302V16.5273H19.591V28.078C19.591 31.582 17.537 33.1769 14.5403 33.1769C11.834 33.1769 10.2631 31.7753 9.46558 30.0837M21.4285 29.7215L24.1831 28.1267C24.9083 29.3109 25.8508 30.1808 27.518 30.1808C28.9199 30.1808 29.8137 29.4799 29.8137 28.5132C29.8137 27.3534 28.8955 26.9425 27.3489 26.266L26.5033 25.9034C24.0625 24.8644 22.4433 23.5594 22.4433 20.8046C22.4433 18.2672 24.3766 16.3338 27.3974 16.3338C29.5481 16.3338 31.0947 17.0831 32.2062 19.0405L29.5721 20.732C28.9921 19.693 28.364 19.2822 27.3974 19.2822C26.4065 19.2822 25.7782 19.9105 25.7782 20.732C25.7782 21.7469 26.4065 22.1578 27.8564 22.7863L28.7021 23.1487C31.5777 24.3813 33.1969 25.6376 33.1969 28.4649C33.1969 31.51 30.8046 33.1772 27.5906 33.1772C24.4492 33.1772 22.4192 31.679 21.4285 29.7215Z" fill="#323330"/>
</g>
<path d="M51.1733 10.4545H53.7869V20.6818C53.7822 21.6193 53.5833 22.4266 53.1903 23.1037C52.7973 23.776 52.2481 24.2945 51.5426 24.6591C50.8419 25.0189 50.0251 25.1989 49.0923 25.1989C48.2401 25.1989 47.473 25.0473 46.7912 24.7443C46.1141 24.4366 45.5767 23.982 45.179 23.3807C44.7813 22.7794 44.5824 22.0312 44.5824 21.1364H47.2031C47.2079 21.5294 47.2931 21.8679 47.4588 22.152C47.6293 22.4361 47.8636 22.6539 48.1619 22.8054C48.4602 22.9569 48.8035 23.0327 49.1918 23.0327C49.6132 23.0327 49.9706 22.9451 50.2642 22.7699C50.5578 22.59 50.7803 22.3248 50.9318 21.9744C51.0881 21.6241 51.1686 21.1932 51.1733 20.6818V10.4545ZM59.6712 25.2202C58.9799 25.2202 58.3572 25.0971 57.8033 24.8509C57.254 24.5999 56.8184 24.2306 56.4964 23.7429C56.1792 23.2552 56.0206 22.6539 56.0206 21.9389C56.0206 21.3234 56.1342 20.8144 56.3615 20.4119C56.5888 20.0095 56.8989 19.6875 57.2919 19.446C57.6849 19.2045 58.1276 19.0223 58.62 18.8991C59.1172 18.7713 59.6309 18.679 60.1612 18.6222C60.8004 18.5559 61.3189 18.4967 61.7166 18.4446C62.1143 18.3878 62.4032 18.3026 62.5831 18.1889C62.7678 18.0705 62.8601 17.8883 62.8601 17.642V17.5994C62.8601 17.0644 62.7015 16.6501 62.3842 16.3565C62.067 16.063 61.6101 15.9162 61.0135 15.9162C60.3838 15.9162 59.8842 16.0535 59.5149 16.3281C59.1503 16.6027 58.9041 16.9271 58.7763 17.3011L56.3757 16.9602C56.5651 16.2973 56.8776 15.7434 57.3132 15.2983C57.7488 14.8485 58.2815 14.5123 58.9112 14.2898C59.541 14.0625 60.237 13.9489 60.9993 13.9489C61.5249 13.9489 62.0481 14.0104 62.5689 14.1335C63.0897 14.2566 63.5656 14.4602 63.9964 14.7443C64.4273 15.0237 64.773 15.4048 65.0334 15.8878C65.2985 16.3707 65.4311 16.9744 65.4311 17.6989V25H62.9595V23.5014H62.8743C62.718 23.8045 62.4979 24.0885 62.2138 24.3537C61.9344 24.6141 61.5817 24.8248 61.1555 24.9858C60.7341 25.142 60.2393 25.2202 59.6712 25.2202ZM60.3388 23.331C60.8549 23.331 61.3023 23.2292 61.6811 23.0256C62.0599 22.8172 62.3511 22.5426 62.5547 22.2017C62.763 21.8608 62.8672 21.4891 62.8672 21.0866V19.8011C62.7867 19.8674 62.6494 19.929 62.4553 19.9858C62.2659 20.0426 62.0528 20.0923 61.8161 20.1349C61.5793 20.1776 61.3449 20.2154 61.1129 20.2486C60.8809 20.2817 60.6797 20.3101 60.5092 20.3338C60.1257 20.3859 59.7824 20.4711 59.4794 20.5895C59.1764 20.7079 58.9373 20.8736 58.7621 21.0866C58.5869 21.295 58.4993 21.5649 58.4993 21.8963C58.4993 22.3698 58.6721 22.7273 59.0178 22.9688C59.3634 23.2102 59.8037 23.331 60.3388 23.331ZM77.37 14.0909L73.4851 25H70.6442L66.7592 14.0909H69.5007L72.0078 22.1946H72.1214L74.6357 14.0909H77.37ZM81.9759 25.2202C81.2846 25.2202 80.6619 25.0971 80.108 24.8509C79.5587 24.5999 79.1231 24.2306 78.8011 23.7429C78.4839 23.2552 78.3253 22.6539 78.3253 21.9389C78.3253 21.3234 78.4389 20.8144 78.6662 20.4119C78.8935 20.0095 79.2036 19.6875 79.5966 19.446C79.9896 19.2045 80.4323 19.0223 80.9247 18.8991C81.4219 18.7713 81.9356 18.679 82.4659 18.6222C83.1051 18.5559 83.6236 18.4967 84.0213 18.4446C84.419 18.3878 84.7079 18.3026 84.8878 18.1889C85.0724 18.0705 85.1648 17.8883 85.1648 17.642V17.5994C85.1648 17.0644 85.0062 16.6501 84.6889 16.3565C84.3717 16.063 83.9148 15.9162 83.3182 15.9162C82.6884 15.9162 82.1889 16.0535 81.8196 16.3281C81.455 16.6027 81.2088 16.9271 81.081 17.3011L78.6804 16.9602C78.8698 16.2973 79.1823 15.7434 79.6179 15.2983C80.0535 14.8485 80.5862 14.5123 81.2159 14.2898C81.8456 14.0625 82.5417 13.9489 83.304 13.9489C83.8295 13.9489 84.3527 14.0104 84.8736 14.1335C85.3944 14.2566 85.8703 14.4602 86.3011 14.7443C86.732 15.0237 87.0777 15.4048 87.3381 15.8878C87.6032 16.3707 87.7358 16.9744 87.7358 17.6989V25H85.2642V23.5014H85.179C85.0227 23.8045 84.8026 24.0885 84.5185 24.3537C84.2391 24.6141 83.8864 24.8248 83.4602 24.9858C83.0388 25.142 82.544 25.2202 81.9759 25.2202ZM82.6435 23.331C83.1596 23.331 83.607 23.2292 83.9858 23.0256C84.3646 22.8172 84.6558 22.5426 84.8594 22.2017C85.0677 21.8608 85.1719 21.4891 85.1719 21.0866V19.8011C85.0914 19.8674 84.9541 19.929 84.7599 19.9858C84.5705 20.0426 84.3575 20.0923 84.1207 20.1349C83.884 20.1776 83.6496 20.2154 83.4176 20.2486C83.1856 20.2817 82.9844 20.3101 82.8139 20.3338C82.4304 20.3859 82.0871 20.4711 81.7841 20.5895C81.4811 20.7079 81.242 20.8736 81.0668 21.0866C80.8916 21.295 80.804 21.5649 80.804 21.8963C80.804 22.3698 80.9768 22.7273 81.3224 22.9688C81.6681 23.2102 82.1084 23.331 82.6435 23.331ZM98.9432 16.9744L96.5994 17.2301C96.5331 16.9934 96.4171 16.7708 96.2514 16.5625C96.0904 16.3542 95.8726 16.1861 95.598 16.0582C95.3234 15.9304 94.9872 15.8665 94.5895 15.8665C94.0545 15.8665 93.6046 15.9825 93.2401 16.2145C92.8802 16.4465 92.7027 16.7472 92.7074 17.1165C92.7027 17.4337 92.8187 17.6918 93.0554 17.8906C93.2969 18.0895 93.6946 18.2528 94.2486 18.3807L96.1094 18.7784C97.1416 19.0009 97.9086 19.3537 98.4105 19.8366C98.9171 20.3196 99.1728 20.9517 99.1776 21.733C99.1728 22.4195 98.9716 23.0256 98.5739 23.5511C98.1809 24.072 97.634 24.4792 96.9332 24.7727C96.2325 25.0663 95.4276 25.2131 94.5185 25.2131C93.1832 25.2131 92.1084 24.9337 91.294 24.375C90.4796 23.8116 89.9943 23.0279 89.8381 22.0241L92.3452 21.7827C92.4588 22.2751 92.7003 22.6468 93.0696 22.8977C93.4389 23.1487 93.9195 23.2741 94.5114 23.2741C95.1222 23.2741 95.6122 23.1487 95.9815 22.8977C96.3556 22.6468 96.5426 22.3366 96.5426 21.9673C96.5426 21.6548 96.4219 21.3968 96.1804 21.1932C95.9437 20.9896 95.5743 20.8333 95.0724 20.7244L93.2116 20.3338C92.1652 20.116 91.3911 19.7491 90.8892 19.233C90.3873 18.7121 90.1387 18.054 90.1435 17.2585C90.1387 16.5862 90.321 16.0038 90.6903 15.5114C91.0644 15.0142 91.5829 14.6307 92.2457 14.3608C92.9134 14.0862 93.6828 13.9489 94.554 13.9489C95.8324 13.9489 96.8385 14.2211 97.5724 14.7656C98.3111 15.3101 98.768 16.0464 98.9432 16.9744ZM106.056 25.2131C104.967 25.2131 104.032 24.974 103.251 24.4957C102.474 24.0175 101.875 23.357 101.454 22.5142C101.037 21.6667 100.829 20.6913 100.829 19.5881C100.829 18.4801 101.042 17.5024 101.468 16.6548C101.894 15.8026 102.496 15.1397 103.272 14.6662C104.053 14.188 104.977 13.9489 106.042 13.9489C106.927 13.9489 107.711 14.1122 108.393 14.4389C109.079 14.7609 109.626 15.2178 110.033 15.8097C110.441 16.3968 110.673 17.0833 110.729 17.8693H108.272C108.173 17.3437 107.936 16.9058 107.562 16.5554C107.192 16.2003 106.698 16.0227 106.077 16.0227C105.552 16.0227 105.09 16.1648 104.692 16.4489C104.295 16.7282 103.985 17.1307 103.762 17.6562C103.544 18.1818 103.435 18.8116 103.435 19.5455C103.435 20.2888 103.544 20.928 103.762 21.4631C103.98 21.9934 104.285 22.4029 104.678 22.6918C105.076 22.9759 105.542 23.1179 106.077 23.1179C106.456 23.1179 106.795 23.0469 107.093 22.9048C107.396 22.758 107.649 22.5473 107.853 22.2727C108.057 21.9981 108.196 21.6643 108.272 21.2713H110.729C110.668 22.0431 110.441 22.7273 110.048 23.3239C109.655 23.9157 109.12 24.3797 108.442 24.7159C107.765 25.0473 106.97 25.2131 106.056 25.2131ZM112.841 25V14.0909H115.333V15.9091H115.447C115.646 15.2794 115.987 14.794 116.47 14.4531C116.958 14.1075 117.514 13.9347 118.139 13.9347C118.281 13.9347 118.44 13.9418 118.615 13.956C118.795 13.9654 118.944 13.982 119.062 14.0057V16.3707C118.953 16.3329 118.78 16.2997 118.544 16.2713C118.312 16.2382 118.087 16.2216 117.869 16.2216C117.4 16.2216 116.979 16.3234 116.605 16.527C116.235 16.7259 115.944 17.0028 115.731 17.358C115.518 17.7131 115.412 18.1226 115.412 18.5866V25H112.841ZM120.77 25V14.0909H123.341V25H120.77ZM122.063 12.5426C121.656 12.5426 121.305 12.4077 121.012 12.1378C120.718 11.8632 120.571 11.5341 120.571 11.1506C120.571 10.7623 120.718 10.4332 121.012 10.1634C121.305 9.88873 121.656 9.75142 122.063 9.75142C122.475 9.75142 122.825 9.88873 123.114 10.1634C123.408 10.4332 123.554 10.7623 123.554 11.1506C123.554 11.5341 123.408 11.8632 123.114 12.1378C122.825 12.4077 122.475 12.5426 122.063 12.5426ZM125.985 29.0909V14.0909H128.513V15.8949H128.663C128.795 15.6297 128.982 15.348 129.224 15.0497C129.465 14.7467 129.792 14.4886 130.204 14.2756C130.616 14.0578 131.141 13.9489 131.781 13.9489C132.623 13.9489 133.383 14.1643 134.06 14.5952C134.742 15.0213 135.282 15.6534 135.68 16.4915C136.082 17.3248 136.283 18.3475 136.283 19.5597C136.283 20.7576 136.087 21.7756 135.694 22.6136C135.301 23.4517 134.766 24.0909 134.089 24.5312C133.412 24.9716 132.645 25.1918 131.788 25.1918C131.163 25.1918 130.644 25.0876 130.232 24.8793C129.82 24.6709 129.489 24.42 129.238 24.1264C128.992 23.8281 128.8 23.5464 128.663 23.2812H128.556V29.0909H125.985ZM128.506 19.5455C128.506 20.2509 128.606 20.8688 128.805 21.3991C129.008 21.9295 129.299 22.3437 129.678 22.642C130.062 22.9356 130.526 23.0824 131.07 23.0824C131.638 23.0824 132.114 22.9309 132.498 22.6278C132.881 22.3201 133.17 21.901 133.364 21.3707C133.563 20.8357 133.663 20.2273 133.663 19.5455C133.663 18.8684 133.566 18.267 133.371 17.7415C133.177 17.2159 132.888 16.804 132.505 16.5057C132.121 16.2074 131.643 16.0582 131.07 16.0582C130.521 16.0582 130.055 16.2027 129.671 16.4915C129.288 16.7803 128.996 17.1851 128.798 17.706C128.603 18.2268 128.506 18.84 128.506 19.5455ZM143.933 14.0909V16.0795H137.661V14.0909H143.933ZM139.21 11.4773H141.781V21.7188C141.781 22.0644 141.833 22.3295 141.937 22.5142C142.046 22.6941 142.188 22.8172 142.363 22.8835C142.538 22.9498 142.732 22.983 142.945 22.983C143.106 22.983 143.253 22.9711 143.386 22.9474C143.523 22.9238 143.627 22.9025 143.698 22.8835L144.131 24.8935C143.994 24.9408 143.798 24.9929 143.542 25.0497C143.291 25.1065 142.983 25.1397 142.619 25.1491C141.975 25.1681 141.395 25.071 140.879 24.858C140.362 24.6402 139.953 24.304 139.65 23.8494C139.352 23.3949 139.205 22.8267 139.21 22.1449V11.4773Z" fill="#323330"/>
<defs>
<clipPath id="clip0_81_379">
<rect width="36" height="36" fill="white"/>
</clipPath>
</defs>
</svg>
