<svg width="70" height="38" viewBox="0 0 70 38" fill="none" xmlns="http://www.w3.org/2000/svg">
<g clip-path="url(#clip0_81_398)">
<path d="M8.69375 28.1101C8.69375 28.1101 7.33254 28.9022 9.66409 29.17C12.4885 29.4924 13.9322 29.446 17.0442 28.8578C17.0442 28.8578 17.8645 29.3706 19.0069 29.8149C12.0284 32.8047 3.21285 29.6417 8.69375 28.1101ZM7.8403 24.2076C7.8403 24.2076 6.31329 25.3388 8.6465 25.58C11.664 25.8913 14.0462 25.917 18.1712 25.1228C18.1712 25.1228 18.7403 25.7014 19.6369 26.0169C11.2011 28.4848 1.80481 26.2113 7.8403 24.2076Z" fill="#3B465B" fill-opacity="0.9"/>
<path d="M15.0289 17.5875C16.7495 19.568 14.578 21.3487 14.578 21.3487C14.578 21.3487 18.9439 19.095 16.9389 16.2719C15.0658 13.6402 13.6304 12.3333 21.4035 7.82526C21.4035 7.82526 9.2015 10.8718 15.0289 17.5875Z" fill="#3B465B" fill-opacity="0.9"/>
<path d="M24.2586 30.9968C24.2586 30.9968 25.2666 31.8279 23.1485 32.4704C19.1213 33.6902 6.3846 34.0583 2.84687 32.5189C1.57602 31.9655 3.96062 31.1979 4.71045 31.0366C5.49261 30.8671 5.93943 30.8982 5.93943 30.8982C4.52517 29.9021 -3.20231 32.8542 2.01456 33.701C16.2418 36.0069 27.9484 32.6623 24.2586 30.9968ZM9.34909 20.1643C9.34909 20.1643 2.87091 21.7034 7.05526 22.2629C8.82268 22.4992 12.3434 22.4449 15.6254 22.1697C18.3068 21.9446 20.9977 21.4634 20.9977 21.4634C20.9977 21.4634 20.0531 21.8688 19.3687 22.3355C12.789 24.066 0.0809288 23.2598 3.7397 21.4907C6.83309 19.994 9.34909 20.1643 9.34909 20.1643ZM20.9708 26.6595C27.6587 23.1852 24.5661 19.846 22.4078 20.2957C21.8802 20.406 21.6431 20.5013 21.6431 20.5013C21.6431 20.5013 21.84 20.1929 22.2143 20.0607C26.4844 18.5602 29.7676 24.488 20.8373 26.8357C20.8373 26.8357 20.9397 26.7428 20.9708 26.6595Z" fill="#3B465B" fill-opacity="0.9"/>
<path d="M16.9393 0.543976C16.9393 0.543976 20.6429 4.24917 13.4261 9.94561C7.63886 14.5163 12.1063 17.1218 13.4236 20.1C10.0454 17.0517 7.56756 14.3683 9.2297 11.8714C11.6707 8.20638 18.4332 6.4286 16.9393 0.543976Z" fill="#3B465B" fill-opacity="0.9"/>
<path d="M10.0069 36.0771C16.425 36.4874 26.2838 35.8487 26.5171 32.8117C26.5171 32.8117 26.0687 33.9627 21.212 34.8763C15.7332 35.9076 8.97478 35.7878 4.96742 35.1262C4.96742 35.1262 5.78812 35.806 10.0069 36.0771Z" fill="#3B465B" fill-opacity="0.9"/>
</g>
<path d="M68.2638 15.9388H68.0304V15.8006H68.6584V15.9388H68.426V16.6279H68.2633L68.2638 15.9388ZM69.5173 15.9733H69.5144L69.2829 16.6279H69.1761L68.9462 15.9733H68.9437V16.6279H68.7894V15.8006H69.0154L69.2285 16.3861L69.4422 15.8006H69.6667V16.6279H69.5173V15.9733ZM47.6654 23.7117C46.9435 24.374 46.18 24.7466 45.4941 24.7466C44.5179 24.7466 43.9883 24.126 43.9883 23.1325C43.9883 22.0572 44.555 21.2698 46.8258 21.2698H47.6649L47.6654 23.7117ZM49.6588 26.0912V18.7259C49.6588 16.8429 48.6435 15.6008 46.1987 15.6008C44.7716 15.6008 43.5205 15.9744 42.5034 16.4494L42.7961 17.7538C43.5972 17.4425 44.6332 17.1537 45.6499 17.1537C47.0592 17.1537 47.6649 17.7538 47.6649 18.9959V19.9267H46.9608C43.5383 19.9267 41.994 21.3316 41.994 23.4443C41.994 25.2646 43.0117 26.299 44.9279 26.299C46.1592 26.299 47.0795 25.7611 47.9384 24.9736L48.0947 26.0918L49.6588 26.0912ZM56.3108 26.0912H53.8249L50.8327 15.7897H53.004L54.8614 22.12L55.2743 24.0219C56.2119 21.2709 56.8765 18.4779 57.2088 15.7902H59.3208C58.7556 19.1811 57.7369 22.9049 56.3108 26.0912ZM65.8486 23.7117C65.1242 24.374 64.3602 24.7466 63.6768 24.7466C62.6997 24.7466 62.1706 24.126 62.1706 23.1325C62.1706 22.0572 62.7387 21.2698 65.007 21.2698H65.8481L65.8486 23.7117ZM67.843 26.0912V18.7259C67.843 16.8429 66.8248 15.6008 64.382 15.6008C62.9534 15.6008 61.7028 15.9744 60.6856 16.4494L60.9788 17.7538C61.7799 17.4425 62.8174 17.1537 63.8341 17.1537C65.2414 17.1537 65.8486 17.7538 65.8486 18.9959V19.9267H65.1445C61.7211 19.9267 60.1772 21.3316 60.1772 23.4443C60.1772 25.2646 61.1939 26.299 63.1096 26.299C64.3414 26.299 65.2602 25.7611 66.1216 24.9736L66.2789 26.0918L67.843 26.0912ZM39.8083 27.8419C39.2412 28.7204 38.3224 29.4157 37.3176 29.8076L36.334 28.5807C37.099 28.1653 37.7542 27.495 38.0593 26.8703C38.3224 26.3141 38.4317 25.5989 38.4317 23.8875V12.1245H40.5501V23.7258C40.5501 26.0148 40.378 26.9404 39.8083 27.8419Z" fill="#3B465B" fill-opacity="0.9"/>
<defs>
<clipPath id="clip0_81_398">
<rect width="26.7056" height="36.2793" fill="white"/>
</clipPath>
</defs>
</svg>
