<svg width="149" height="36" viewBox="0 0 149 36" fill="none" xmlns="http://www.w3.org/2000/svg">
<g clip-path="url(#clip0_81_410)">
<path d="M6.37509 0.449905H29.6249C33.1501 0.449905 36 3.29981 36 6.825V29.1748C36 32.7 33.1501 35.5499 29.6249 35.5499H6.37509C2.84991 35.5499 0 32.7 0 29.1748V6.825C0 3.29981 2.84991 0.449905 6.37509 0.449905Z" fill="#3B465B" fill-opacity="0.9"/>
<path d="M12.9001 9.3746C12.4501 9.3746 12.0001 9.3746 11.5352 9.38979C11.07 9.4047 10.6349 9.4047 10.2299 9.41988C9.82488 9.43479 9.44998 9.43479 9.08998 9.4497C8.74488 9.4646 8.50498 9.4646 8.24988 9.4646C8.14498 9.4646 8.09998 9.52451 8.09998 9.6297V25.0647C8.09998 25.1997 8.15988 25.2599 8.27998 25.2599H11.1901C11.295 25.2447 11.3701 25.1547 11.3549 25.0498V20.2348C11.6398 20.2348 11.8499 20.2348 12.0001 20.2497C12.15 20.2646 12.3899 20.2646 12.7499 20.2646C13.9801 20.2646 15.1051 20.1296 16.1249 19.7547C17.1 19.3947 17.9401 18.7647 18.54 17.9246C19.14 17.0846 19.44 16.0196 19.44 14.7296C19.44 14.0546 19.3202 13.4097 19.0952 12.7797C18.8567 12.1379 18.4833 11.5547 18 11.0697C17.4296 10.5155 16.7429 10.0953 15.9899 9.83951C15.1498 9.52451 14.13 9.3746 12.9001 9.3746ZM13.2348 12.3291C13.7691 12.3393 14.2894 12.4326 14.7749 12.6295C15.21 12.7946 15.57 13.0947 15.8251 13.4845C16.0643 13.8879 16.184 14.3511 16.1702 14.8199C16.1702 15.4797 16.02 15.9899 15.705 16.3648C15.3748 16.7397 14.9549 17.0249 14.4751 17.1599C13.9199 17.3399 13.3349 17.4296 12.7499 17.4296H11.9548C11.7748 17.4296 11.5802 17.4147 11.3701 17.3998V12.3598C11.475 12.3446 11.6851 12.3297 11.9852 12.3449C12.2701 12.3297 12.6149 12.3297 13.005 12.3297C13.0819 12.3278 13.1584 12.3276 13.2348 12.3291ZM25.8151 13.095C24.75 13.095 23.8649 13.2598 23.1601 13.6198C22.5152 13.9199 21.96 14.3997 21.5851 14.9996C21.2552 15.5548 21.0749 16.1696 21.0749 16.8148C21.0621 17.3454 21.1806 17.871 21.42 18.3448C21.7005 18.8493 22.09 19.2848 22.5602 19.6197C23.22 20.071 23.9361 20.4341 24.6901 20.6997C25.425 20.9846 25.92 21.2096 26.1602 21.4045C26.4001 21.5997 26.5202 21.7946 26.5202 22.0047C26.5202 22.2747 26.3551 22.5298 26.1152 22.6347C25.8452 22.7697 25.4402 22.8448 24.8701 22.8448C24.2702 22.8448 23.67 22.7697 23.0999 22.6198C22.4453 22.4736 21.8177 22.2256 21.24 21.8849C21.195 21.8548 21.15 21.8399 21.105 21.87C21.06 21.8998 21.0451 21.9597 21.0451 22.0047V24.6147C21.0302 24.7348 21.105 24.8397 21.2102 24.8996C21.6966 25.1268 22.2111 25.2883 22.7402 25.3797C23.4152 25.5147 24.0899 25.5746 24.7798 25.5746C25.8598 25.5746 26.7601 25.4098 27.495 25.0948C28.17 24.8248 28.755 24.3599 29.1749 23.7597C29.5682 23.1697 29.7722 22.4738 29.7599 21.7648C29.7747 21.2292 29.6562 20.6983 29.4151 20.2199C29.1299 19.7097 28.7249 19.2898 28.2299 18.9748C27.5057 18.52 26.7304 18.1524 25.92 17.8796C25.5581 17.7298 25.2027 17.5647 24.8549 17.3846C24.66 17.2797 24.48 17.1447 24.345 16.9796C24.255 16.8595 24.1951 16.7248 24.1951 16.5898C24.1951 16.4548 24.2401 16.3049 24.3149 16.1848C24.4201 16.0349 24.5849 15.9297 24.7798 15.8847C25.065 15.8099 25.38 15.7646 25.6798 15.7795C26.2499 15.7795 26.8048 15.8546 27.36 15.9747C27.8702 16.0796 28.35 16.2447 28.8 16.4849C28.8599 16.5147 28.935 16.5147 29.07 16.4849C29.0934 16.4675 29.1124 16.4449 29.1255 16.4188C29.1385 16.3927 29.1452 16.3639 29.1451 16.3347V13.8898C29.1451 13.8296 29.1299 13.7697 29.115 13.7098C29.0849 13.6499 29.025 13.5897 28.9651 13.5748C28.5513 13.4057 28.1179 13.2897 27.675 13.2297C27.0591 13.14 26.4375 13.0952 25.8151 13.095Z" fill="#E6F4FD"/>
</g>
<path d="M45.4347 25.5V10.9545H50.8892C52.0066 10.9545 52.9441 11.1629 53.7017 11.5795C54.464 11.9962 55.0393 12.5691 55.4276 13.2983C55.8205 14.0227 56.017 14.8466 56.017 15.7699C56.017 16.7027 55.8205 17.5312 55.4276 18.2557C55.0346 18.9801 54.4545 19.5507 53.6875 19.9673C52.9205 20.3793 51.9759 20.5852 50.8537 20.5852H47.2386V18.419H50.4986C51.152 18.419 51.687 18.3054 52.1037 18.0781C52.5204 17.8509 52.8281 17.5384 53.027 17.1406C53.2306 16.7429 53.3324 16.286 53.3324 15.7699C53.3324 15.2538 53.2306 14.7992 53.027 14.4062C52.8281 14.0133 52.518 13.7079 52.0966 13.4901C51.6799 13.2675 51.1425 13.1562 50.4844 13.1562H48.0696V25.5H45.4347ZM60.7631 19.108V25.5H58.1921V10.9545H60.7063V16.4446H60.8342C61.0898 15.8291 61.4852 15.3437 62.0202 14.9886C62.56 14.6288 63.2466 14.4489 64.0799 14.4489C64.8375 14.4489 65.498 14.6075 66.0614 14.9247C66.6249 15.242 67.0605 15.706 67.3683 16.3168C67.6808 16.9276 67.837 17.6733 67.837 18.554V25.5H65.266V18.9517C65.266 18.2178 65.0766 17.6473 64.6978 17.2401C64.3237 16.8281 63.7982 16.6222 63.1211 16.6222C62.6665 16.6222 62.2594 16.7216 61.8995 16.9205C61.5444 17.1146 61.265 17.3963 61.0614 17.7656C60.8626 18.1349 60.7631 18.5824 60.7631 19.108ZM75.2163 25.7131C74.1509 25.7131 73.2276 25.4787 72.4464 25.0099C71.6651 24.5412 71.0591 23.8854 70.6282 23.0426C70.2021 22.1998 69.989 21.215 69.989 20.0881C69.989 18.9612 70.2021 17.974 70.6282 17.1264C71.0591 16.2789 71.6651 15.6207 72.4464 15.152C73.2276 14.6832 74.1509 14.4489 75.2163 14.4489C76.2816 14.4489 77.2049 14.6832 77.9862 15.152C78.7674 15.6207 79.3711 16.2789 79.7972 17.1264C80.2281 17.974 80.4435 18.9612 80.4435 20.0881C80.4435 21.215 80.2281 22.1998 79.7972 23.0426C79.3711 23.8854 78.7674 24.5412 77.9862 25.0099C77.2049 25.4787 76.2816 25.7131 75.2163 25.7131ZM75.2305 23.6534C75.8081 23.6534 76.2911 23.4948 76.6793 23.1776C77.0676 22.8556 77.3564 22.4247 77.5458 21.8849C77.7399 21.3452 77.837 20.7438 77.837 20.081C77.837 19.4134 77.7399 18.8097 77.5458 18.2699C77.3564 17.7254 77.0676 17.2921 76.6793 16.9702C76.2911 16.6482 75.8081 16.4872 75.2305 16.4872C74.6386 16.4872 74.1462 16.6482 73.7532 16.9702C73.3649 17.2921 73.0737 17.7254 72.8796 18.2699C72.6902 18.8097 72.5955 19.4134 72.5955 20.081C72.5955 20.7438 72.6902 21.3452 72.8796 21.8849C73.0737 22.4247 73.3649 22.8556 73.7532 23.1776C74.1462 23.4948 74.6386 23.6534 75.2305 23.6534ZM88.0732 14.5909V16.5795H81.8018V14.5909H88.0732ZM83.3501 11.9773H85.9212V22.2188C85.9212 22.5644 85.9732 22.8295 86.0774 23.0142C86.1863 23.1941 86.3284 23.3172 86.5036 23.3835C86.6787 23.4498 86.8729 23.483 87.0859 23.483C87.2469 23.483 87.3937 23.4711 87.5263 23.4474C87.6636 23.4238 87.7678 23.4025 87.8388 23.3835L88.272 25.3935C88.1347 25.4408 87.9382 25.4929 87.6825 25.5497C87.4316 25.6065 87.1238 25.6397 86.7592 25.6491C86.1153 25.6681 85.5353 25.571 85.0192 25.358C84.5031 25.1402 84.0935 24.804 83.7905 24.3494C83.4922 23.8949 83.3454 23.3267 83.3501 22.6449V11.9773ZM94.8647 25.7131C93.7994 25.7131 92.8761 25.4787 92.0948 25.0099C91.3136 24.5412 90.7075 23.8854 90.2766 23.0426C89.8505 22.1998 89.6374 21.215 89.6374 20.0881C89.6374 18.9612 89.8505 17.974 90.2766 17.1264C90.7075 16.2789 91.3136 15.6207 92.0948 15.152C92.8761 14.6832 93.7994 14.4489 94.8647 14.4489C95.93 14.4489 96.8533 14.6832 97.6346 15.152C98.4158 15.6207 99.0195 16.2789 99.4457 17.1264C99.8765 17.974 100.092 18.9612 100.092 20.0881C100.092 21.215 99.8765 22.1998 99.4457 23.0426C99.0195 23.8854 98.4158 24.5412 97.6346 25.0099C96.8533 25.4787 95.93 25.7131 94.8647 25.7131ZM94.8789 23.6534C95.4566 23.6534 95.9395 23.4948 96.3278 23.1776C96.716 22.8556 97.0049 22.4247 97.1942 21.8849C97.3884 21.3452 97.4854 20.7438 97.4854 20.081C97.4854 19.4134 97.3884 18.8097 97.1942 18.2699C97.0049 17.7254 96.716 17.2921 96.3278 16.9702C95.9395 16.6482 95.4566 16.4872 94.8789 16.4872C94.2871 16.4872 93.7946 16.6482 93.4016 16.9702C93.0134 17.2921 92.7222 17.7254 92.5281 18.2699C92.3387 18.8097 92.244 19.4134 92.244 20.081C92.244 20.7438 92.3387 21.3452 92.5281 21.8849C92.7222 22.4247 93.0134 22.8556 93.4016 23.1776C93.7946 23.4948 94.2871 23.6534 94.8789 23.6534ZM110.896 17.4744L108.553 17.7301C108.486 17.4934 108.37 17.2708 108.205 17.0625C108.044 16.8542 107.826 16.6861 107.551 16.5582C107.277 16.4304 106.94 16.3665 106.543 16.3665C106.008 16.3665 105.558 16.4825 105.193 16.7145C104.833 16.9465 104.656 17.2472 104.661 17.6165C104.656 17.9337 104.772 18.1918 105.009 18.3906C105.25 18.5895 105.648 18.7528 106.202 18.8807L108.062 19.2784C109.095 19.5009 109.862 19.8537 110.364 20.3366C110.87 20.8196 111.126 21.4517 111.131 22.233C111.126 22.9195 110.925 23.5256 110.527 24.0511C110.134 24.572 109.587 24.9792 108.886 25.2727C108.186 25.5663 107.381 25.7131 106.472 25.7131C105.136 25.7131 104.062 25.4337 103.247 24.875C102.433 24.3116 101.947 23.5279 101.791 22.5241L104.298 22.2827C104.412 22.7751 104.653 23.1468 105.023 23.3977C105.392 23.6487 105.873 23.7741 106.464 23.7741C107.075 23.7741 107.565 23.6487 107.935 23.3977C108.309 23.1468 108.496 22.8366 108.496 22.4673C108.496 22.1548 108.375 21.8968 108.134 21.6932C107.897 21.4896 107.527 21.3333 107.026 21.2244L105.165 20.8338C104.118 20.616 103.344 20.2491 102.842 19.733C102.34 19.2121 102.092 18.554 102.097 17.7585C102.092 17.0862 102.274 16.5038 102.643 16.0114C103.018 15.5142 103.536 15.1307 104.199 14.8608C104.866 14.5862 105.636 14.4489 106.507 14.4489C107.786 14.4489 108.792 14.7211 109.526 15.2656C110.264 15.8101 110.721 16.5464 110.896 17.4744ZM115.822 19.108V25.5H113.251V10.9545H115.765V16.4446H115.893C116.148 15.8291 116.544 15.3437 117.079 14.9886C117.619 14.6288 118.305 14.4489 119.138 14.4489C119.896 14.4489 120.557 14.6075 121.12 14.9247C121.683 15.242 122.119 15.706 122.427 16.3168C122.739 16.9276 122.896 17.6733 122.896 18.554V25.5H120.325V18.9517C120.325 18.2178 120.135 17.6473 119.756 17.2401C119.382 16.8281 118.857 16.6222 118.18 16.6222C117.725 16.6222 117.318 16.7216 116.958 16.9205C116.603 17.1146 116.324 17.3963 116.12 17.7656C115.921 18.1349 115.822 18.5824 115.822 19.108ZM130.275 25.7131C129.21 25.7131 128.286 25.4787 127.505 25.0099C126.724 24.5412 126.118 23.8854 125.687 23.0426C125.261 22.1998 125.048 21.215 125.048 20.0881C125.048 18.9612 125.261 17.974 125.687 17.1264C126.118 16.2789 126.724 15.6207 127.505 15.152C128.286 14.6832 129.21 14.4489 130.275 14.4489C131.34 14.4489 132.263 14.6832 133.045 15.152C133.826 15.6207 134.43 16.2789 134.856 17.1264C135.287 17.974 135.502 18.9612 135.502 20.0881C135.502 21.215 135.287 22.1998 134.856 23.0426C134.43 23.8854 133.826 24.5412 133.045 25.0099C132.263 25.4787 131.34 25.7131 130.275 25.7131ZM130.289 23.6534C130.867 23.6534 131.35 23.4948 131.738 23.1776C132.126 22.8556 132.415 22.4247 132.604 21.8849C132.799 21.3452 132.896 20.7438 132.896 20.081C132.896 19.4134 132.799 18.8097 132.604 18.2699C132.415 17.7254 132.126 17.2921 131.738 16.9702C131.35 16.6482 130.867 16.4872 130.289 16.4872C129.697 16.4872 129.205 16.6482 128.812 16.9702C128.424 17.2921 128.132 17.7254 127.938 18.2699C127.749 18.8097 127.654 19.4134 127.654 20.081C127.654 20.7438 127.749 21.3452 127.938 21.8849C128.132 22.4247 128.424 22.8556 128.812 23.1776C129.205 23.4948 129.697 23.6534 130.289 23.6534ZM137.684 29.5909V14.5909H140.213V16.3949H140.362C140.494 16.1297 140.681 15.848 140.923 15.5497C141.164 15.2467 141.491 14.9886 141.903 14.7756C142.315 14.5578 142.841 14.4489 143.48 14.4489C144.323 14.4489 145.083 14.6643 145.76 15.0952C146.441 15.5213 146.981 16.1534 147.379 16.9915C147.781 17.8248 147.983 18.8475 147.983 20.0597C147.983 21.2576 147.786 22.2756 147.393 23.1136C147 23.9517 146.465 24.5909 145.788 25.0312C145.111 25.4716 144.344 25.6918 143.487 25.6918C142.862 25.6918 142.343 25.5876 141.931 25.3793C141.52 25.1709 141.188 24.92 140.937 24.6264C140.691 24.3281 140.499 24.0464 140.362 23.7812H140.255V29.5909H137.684ZM140.206 20.0455C140.206 20.7509 140.305 21.3688 140.504 21.8991C140.708 22.4295 140.999 22.8437 141.377 23.142C141.761 23.4356 142.225 23.5824 142.77 23.5824C143.338 23.5824 143.814 23.4309 144.197 23.1278C144.581 22.8201 144.869 22.401 145.064 21.8707C145.262 21.3357 145.362 20.7273 145.362 20.0455C145.362 19.3684 145.265 18.767 145.071 18.2415C144.877 17.7159 144.588 17.304 144.204 17.0057C143.821 16.7074 143.342 16.5582 142.77 16.5582C142.22 16.5582 141.754 16.7027 141.37 16.9915C140.987 17.2803 140.696 17.6851 140.497 18.206C140.303 18.7268 140.206 19.34 140.206 20.0455Z" fill="#3B465B" fill-opacity="0.9"/>
<defs>
<clipPath id="clip0_81_410">
<rect width="36" height="36" fill="white"/>
</clipPath>
</defs>
</svg>
