<svg width="149" height="36" viewBox="0 0 149 36" fill="none" xmlns="http://www.w3.org/2000/svg">
<g clip-path="url(#clip0_81_382)">
<path d="M6.37509 0.449905H29.6249C33.1501 0.449905 36 3.29981 36 6.825V29.1748C36 32.7 33.1501 35.5499 29.6249 35.5499H6.37509C2.84991 35.5499 0 32.7 0 29.1748V6.825C0 3.29981 2.84991 0.449905 6.37509 0.449905Z" fill="#001E36"/>
<path d="M12.9001 9.3746C12.4501 9.3746 12.0001 9.3746 11.5352 9.38979C11.07 9.4047 10.6349 9.4047 10.2299 9.41988C9.82488 9.43479 9.44998 9.43479 9.08998 9.4497C8.74488 9.4646 8.50498 9.4646 8.24988 9.4646C8.14498 9.4646 8.09998 9.52451 8.09998 9.6297V25.0647C8.09998 25.1997 8.15988 25.2599 8.27998 25.2599H11.1901C11.295 25.2447 11.3701 25.1547 11.3549 25.0498V20.2348C11.6398 20.2348 11.8499 20.2348 12.0001 20.2497C12.15 20.2646 12.3899 20.2646 12.7499 20.2646C13.9801 20.2646 15.1051 20.1296 16.1249 19.7547C17.1 19.3947 17.9401 18.7647 18.54 17.9246C19.14 17.0846 19.44 16.0196 19.44 14.7296C19.44 14.0546 19.3202 13.4097 19.0952 12.7797C18.8567 12.1379 18.4833 11.5547 18 11.0697C17.4296 10.5155 16.7429 10.0953 15.9899 9.83951C15.1498 9.52451 14.13 9.3746 12.9001 9.3746ZM13.2348 12.3291C13.7691 12.3393 14.2894 12.4326 14.7749 12.6295C15.21 12.7946 15.57 13.0947 15.8251 13.4845C16.0643 13.8879 16.184 14.3511 16.1702 14.8199C16.1702 15.4797 16.02 15.9899 15.705 16.3648C15.3748 16.7397 14.9549 17.0249 14.4751 17.1599C13.9199 17.3399 13.3349 17.4296 12.7499 17.4296H11.9548C11.7748 17.4296 11.5802 17.4147 11.3701 17.3998V12.3598C11.475 12.3446 11.6851 12.3297 11.9852 12.3449C12.2701 12.3297 12.6149 12.3297 13.005 12.3297C13.0819 12.3278 13.1584 12.3276 13.2348 12.3291ZM25.8151 13.095C24.75 13.095 23.8649 13.2598 23.1601 13.6198C22.5152 13.9199 21.96 14.3997 21.5851 14.9996C21.2552 15.5548 21.0749 16.1696 21.0749 16.8148C21.0621 17.3454 21.1806 17.871 21.42 18.3448C21.7005 18.8493 22.09 19.2848 22.5602 19.6197C23.22 20.071 23.9361 20.4341 24.6901 20.6997C25.425 20.9846 25.92 21.2096 26.1602 21.4045C26.4001 21.5997 26.5202 21.7946 26.5202 22.0047C26.5202 22.2747 26.3551 22.5298 26.1152 22.6347C25.8452 22.7697 25.4402 22.8448 24.8701 22.8448C24.2702 22.8448 23.67 22.7697 23.0999 22.6198C22.4453 22.4736 21.8177 22.2256 21.24 21.8849C21.195 21.8548 21.15 21.8399 21.105 21.87C21.06 21.8998 21.0451 21.9597 21.0451 22.0047V24.6147C21.0302 24.7348 21.105 24.8397 21.2102 24.8996C21.6966 25.1268 22.2111 25.2883 22.7402 25.3797C23.4152 25.5147 24.0899 25.5746 24.7798 25.5746C25.8598 25.5746 26.7601 25.4098 27.495 25.0948C28.17 24.8248 28.755 24.3599 29.1749 23.7597C29.5682 23.1697 29.7722 22.4738 29.7599 21.7648C29.7747 21.2292 29.6562 20.6983 29.4151 20.2199C29.1299 19.7097 28.7249 19.2898 28.2299 18.9748C27.5057 18.52 26.7304 18.1524 25.92 17.8796C25.5581 17.7298 25.2027 17.5647 24.8549 17.3846C24.66 17.2797 24.48 17.1447 24.345 16.9796C24.255 16.8595 24.1951 16.7248 24.1951 16.5898C24.1951 16.4548 24.2401 16.3049 24.3149 16.1848C24.4201 16.0349 24.5849 15.9297 24.7798 15.8847C25.065 15.8099 25.38 15.7646 25.6798 15.7795C26.2499 15.7795 26.8048 15.8546 27.36 15.9747C27.8702 16.0796 28.35 16.2447 28.8 16.4849C28.8599 16.5147 28.935 16.5147 29.07 16.4849C29.0934 16.4675 29.1124 16.4449 29.1255 16.4188C29.1385 16.3927 29.1452 16.3639 29.1451 16.3347V13.8898C29.1451 13.8296 29.1299 13.7697 29.115 13.7098C29.0849 13.6499 29.025 13.5897 28.9651 13.5748C28.5513 13.4057 28.1179 13.2897 27.675 13.2297C27.0591 13.14 26.4375 13.0952 25.8151 13.095Z" fill="#31A8FF"/>
</g>
<path d="M45.4347 25V10.4545H50.8892C52.0066 10.4545 52.9441 10.6629 53.7017 11.0795C54.464 11.4962 55.0393 12.0691 55.4276 12.7983C55.8205 13.5227 56.017 14.3466 56.017 15.2699C56.017 16.2027 55.8205 17.0312 55.4276 17.7557C55.0346 18.4801 54.4545 19.0507 53.6875 19.4673C52.9205 19.8793 51.9759 20.0852 50.8537 20.0852H47.2386V17.919H50.4986C51.152 17.919 51.687 17.8054 52.1037 17.5781C52.5204 17.3509 52.8281 17.0384 53.027 16.6406C53.2306 16.2429 53.3324 15.786 53.3324 15.2699C53.3324 14.7538 53.2306 14.2992 53.027 13.9062C52.8281 13.5133 52.518 13.2079 52.0966 12.9901C51.6799 12.7675 51.1425 12.6562 50.4844 12.6562H48.0696V25H45.4347ZM60.7631 18.608V25H58.1921V10.4545H60.7063V15.9446H60.8342C61.0898 15.3291 61.4852 14.8437 62.0202 14.4886C62.56 14.1288 63.2466 13.9489 64.0799 13.9489C64.8375 13.9489 65.498 14.1075 66.0614 14.4247C66.6249 14.742 67.0605 15.206 67.3683 15.8168C67.6808 16.4276 67.837 17.1733 67.837 18.054V25H65.266V18.4517C65.266 17.7178 65.0766 17.1473 64.6978 16.7401C64.3237 16.3281 63.7982 16.1222 63.1211 16.1222C62.6665 16.1222 62.2594 16.2216 61.8995 16.4205C61.5444 16.6146 61.265 16.8963 61.0614 17.2656C60.8626 17.6349 60.7631 18.0824 60.7631 18.608ZM75.2163 25.2131C74.1509 25.2131 73.2276 24.9787 72.4464 24.5099C71.6651 24.0412 71.0591 23.3854 70.6282 22.5426C70.2021 21.6998 69.989 20.715 69.989 19.5881C69.989 18.4612 70.2021 17.474 70.6282 16.6264C71.0591 15.7789 71.6651 15.1207 72.4464 14.652C73.2276 14.1832 74.1509 13.9489 75.2163 13.9489C76.2816 13.9489 77.2049 14.1832 77.9862 14.652C78.7674 15.1207 79.3711 15.7789 79.7972 16.6264C80.2281 17.474 80.4435 18.4612 80.4435 19.5881C80.4435 20.715 80.2281 21.6998 79.7972 22.5426C79.3711 23.3854 78.7674 24.0412 77.9862 24.5099C77.2049 24.9787 76.2816 25.2131 75.2163 25.2131ZM75.2305 23.1534C75.8081 23.1534 76.2911 22.9948 76.6793 22.6776C77.0676 22.3556 77.3564 21.9247 77.5458 21.3849C77.7399 20.8452 77.837 20.2438 77.837 19.581C77.837 18.9134 77.7399 18.3097 77.5458 17.7699C77.3564 17.2254 77.0676 16.7921 76.6793 16.4702C76.2911 16.1482 75.8081 15.9872 75.2305 15.9872C74.6386 15.9872 74.1462 16.1482 73.7532 16.4702C73.3649 16.7921 73.0737 17.2254 72.8796 17.7699C72.6902 18.3097 72.5955 18.9134 72.5955 19.581C72.5955 20.2438 72.6902 20.8452 72.8796 21.3849C73.0737 21.9247 73.3649 22.3556 73.7532 22.6776C74.1462 22.9948 74.6386 23.1534 75.2305 23.1534ZM88.0732 14.0909V16.0795H81.8018V14.0909H88.0732ZM83.3501 11.4773H85.9212V21.7188C85.9212 22.0644 85.9732 22.3295 86.0774 22.5142C86.1863 22.6941 86.3284 22.8172 86.5036 22.8835C86.6787 22.9498 86.8729 22.983 87.0859 22.983C87.2469 22.983 87.3937 22.9711 87.5263 22.9474C87.6636 22.9238 87.7678 22.9025 87.8388 22.8835L88.272 24.8935C88.1347 24.9408 87.9382 24.9929 87.6825 25.0497C87.4316 25.1065 87.1238 25.1397 86.7592 25.1491C86.1153 25.1681 85.5353 25.071 85.0192 24.858C84.5031 24.6402 84.0935 24.304 83.7905 23.8494C83.4922 23.3949 83.3454 22.8267 83.3501 22.1449V11.4773ZM94.8647 25.2131C93.7994 25.2131 92.8761 24.9787 92.0948 24.5099C91.3136 24.0412 90.7075 23.3854 90.2766 22.5426C89.8505 21.6998 89.6374 20.715 89.6374 19.5881C89.6374 18.4612 89.8505 17.474 90.2766 16.6264C90.7075 15.7789 91.3136 15.1207 92.0948 14.652C92.8761 14.1832 93.7994 13.9489 94.8647 13.9489C95.93 13.9489 96.8533 14.1832 97.6346 14.652C98.4158 15.1207 99.0195 15.7789 99.4457 16.6264C99.8765 17.474 100.092 18.4612 100.092 19.5881C100.092 20.715 99.8765 21.6998 99.4457 22.5426C99.0195 23.3854 98.4158 24.0412 97.6346 24.5099C96.8533 24.9787 95.93 25.2131 94.8647 25.2131ZM94.8789 23.1534C95.4566 23.1534 95.9395 22.9948 96.3278 22.6776C96.716 22.3556 97.0049 21.9247 97.1942 21.3849C97.3884 20.8452 97.4854 20.2438 97.4854 19.581C97.4854 18.9134 97.3884 18.3097 97.1942 17.7699C97.0049 17.2254 96.716 16.7921 96.3278 16.4702C95.9395 16.1482 95.4566 15.9872 94.8789 15.9872C94.2871 15.9872 93.7946 16.1482 93.4016 16.4702C93.0134 16.7921 92.7222 17.2254 92.5281 17.7699C92.3387 18.3097 92.244 18.9134 92.244 19.581C92.244 20.2438 92.3387 20.8452 92.5281 21.3849C92.7222 21.9247 93.0134 22.3556 93.4016 22.6776C93.7946 22.9948 94.2871 23.1534 94.8789 23.1534ZM110.896 16.9744L108.553 17.2301C108.486 16.9934 108.37 16.7708 108.205 16.5625C108.044 16.3542 107.826 16.1861 107.551 16.0582C107.277 15.9304 106.94 15.8665 106.543 15.8665C106.008 15.8665 105.558 15.9825 105.193 16.2145C104.833 16.4465 104.656 16.7472 104.661 17.1165C104.656 17.4337 104.772 17.6918 105.009 17.8906C105.25 18.0895 105.648 18.2528 106.202 18.3807L108.062 18.7784C109.095 19.0009 109.862 19.3537 110.364 19.8366C110.87 20.3196 111.126 20.9517 111.131 21.733C111.126 22.4195 110.925 23.0256 110.527 23.5511C110.134 24.072 109.587 24.4792 108.886 24.7727C108.186 25.0663 107.381 25.2131 106.472 25.2131C105.136 25.2131 104.062 24.9337 103.247 24.375C102.433 23.8116 101.947 23.0279 101.791 22.0241L104.298 21.7827C104.412 22.2751 104.653 22.6468 105.023 22.8977C105.392 23.1487 105.873 23.2741 106.464 23.2741C107.075 23.2741 107.565 23.1487 107.935 22.8977C108.309 22.6468 108.496 22.3366 108.496 21.9673C108.496 21.6548 108.375 21.3968 108.134 21.1932C107.897 20.9896 107.527 20.8333 107.026 20.7244L105.165 20.3338C104.118 20.116 103.344 19.7491 102.842 19.233C102.34 18.7121 102.092 18.054 102.097 17.2585C102.092 16.5862 102.274 16.0038 102.643 15.5114C103.018 15.0142 103.536 14.6307 104.199 14.3608C104.866 14.0862 105.636 13.9489 106.507 13.9489C107.786 13.9489 108.792 14.2211 109.526 14.7656C110.264 15.3101 110.721 16.0464 110.896 16.9744ZM115.822 18.608V25H113.251V10.4545H115.765V15.9446H115.893C116.148 15.3291 116.544 14.8437 117.079 14.4886C117.619 14.1288 118.305 13.9489 119.138 13.9489C119.896 13.9489 120.557 14.1075 121.12 14.4247C121.683 14.742 122.119 15.206 122.427 15.8168C122.739 16.4276 122.896 17.1733 122.896 18.054V25H120.325V18.4517C120.325 17.7178 120.135 17.1473 119.756 16.7401C119.382 16.3281 118.857 16.1222 118.18 16.1222C117.725 16.1222 117.318 16.2216 116.958 16.4205C116.603 16.6146 116.324 16.8963 116.12 17.2656C115.921 17.6349 115.822 18.0824 115.822 18.608ZM130.275 25.2131C129.21 25.2131 128.286 24.9787 127.505 24.5099C126.724 24.0412 126.118 23.3854 125.687 22.5426C125.261 21.6998 125.048 20.715 125.048 19.5881C125.048 18.4612 125.261 17.474 125.687 16.6264C126.118 15.7789 126.724 15.1207 127.505 14.652C128.286 14.1832 129.21 13.9489 130.275 13.9489C131.34 13.9489 132.263 14.1832 133.045 14.652C133.826 15.1207 134.43 15.7789 134.856 16.6264C135.287 17.474 135.502 18.4612 135.502 19.5881C135.502 20.715 135.287 21.6998 134.856 22.5426C134.43 23.3854 133.826 24.0412 133.045 24.5099C132.263 24.9787 131.34 25.2131 130.275 25.2131ZM130.289 23.1534C130.867 23.1534 131.35 22.9948 131.738 22.6776C132.126 22.3556 132.415 21.9247 132.604 21.3849C132.799 20.8452 132.896 20.2438 132.896 19.581C132.896 18.9134 132.799 18.3097 132.604 17.7699C132.415 17.2254 132.126 16.7921 131.738 16.4702C131.35 16.1482 130.867 15.9872 130.289 15.9872C129.697 15.9872 129.205 16.1482 128.812 16.4702C128.424 16.7921 128.132 17.2254 127.938 17.7699C127.749 18.3097 127.654 18.9134 127.654 19.581C127.654 20.2438 127.749 20.8452 127.938 21.3849C128.132 21.9247 128.424 22.3556 128.812 22.6776C129.205 22.9948 129.697 23.1534 130.289 23.1534ZM137.684 29.0909V14.0909H140.213V15.8949H140.362C140.494 15.6297 140.681 15.348 140.923 15.0497C141.164 14.7467 141.491 14.4886 141.903 14.2756C142.315 14.0578 142.841 13.9489 143.48 13.9489C144.323 13.9489 145.083 14.1643 145.76 14.5952C146.441 15.0213 146.981 15.6534 147.379 16.4915C147.781 17.3248 147.983 18.3475 147.983 19.5597C147.983 20.7576 147.786 21.7756 147.393 22.6136C147 23.4517 146.465 24.0909 145.788 24.5312C145.111 24.9716 144.344 25.1918 143.487 25.1918C142.862 25.1918 142.343 25.0876 141.931 24.8793C141.52 24.6709 141.188 24.42 140.937 24.1264C140.691 23.8281 140.499 23.5464 140.362 23.2812H140.255V29.0909H137.684ZM140.206 19.5455C140.206 20.2509 140.305 20.8688 140.504 21.3991C140.708 21.9295 140.999 22.3437 141.377 22.642C141.761 22.9356 142.225 23.0824 142.77 23.0824C143.338 23.0824 143.814 22.9309 144.197 22.6278C144.581 22.3201 144.869 21.901 145.064 21.3707C145.262 20.8357 145.362 20.2273 145.362 19.5455C145.362 18.8684 145.265 18.267 145.071 17.7415C144.877 17.2159 144.588 16.804 144.204 16.5057C143.821 16.2074 143.342 16.0582 142.77 16.0582C142.22 16.0582 141.754 16.2027 141.37 16.4915C140.987 16.7803 140.696 17.1851 140.497 17.706C140.303 18.2268 140.206 18.84 140.206 19.5455Z" fill="#323330"/>
<defs>
<clipPath id="clip0_81_382">
<rect width="36" height="36" fill="white"/>
</clipPath>
</defs>
</svg>
