<svg width="137" height="39" viewBox="0 0 137 39" fill="none" xmlns="http://www.w3.org/2000/svg">
<path d="M22.5002 23.3498C24.5702 23.3498 26.2481 21.653 26.2481 19.5603C26.2481 17.4675 24.5702 15.7708 22.5002 15.7708C20.4302 15.7708 18.7524 17.4675 18.7524 19.5603C18.7524 21.653 20.4304 23.3498 22.5002 23.3498Z" fill="#3B465B" fill-opacity="0.9"/>
<path d="M22.5004 11.855C27.5324 11.855 32.2069 12.5851 35.7316 13.8122C39.9783 15.2903 42.5893 17.531 42.5893 19.56C42.5893 21.6743 39.8222 24.0547 35.2617 25.5824C31.814 26.7374 27.277 27.3403 22.5004 27.3403C17.603 27.3403 12.9654 26.7744 9.47873 25.5696C5.06753 24.0452 2.41072 21.6341 2.41072 19.56C2.41072 17.5474 4.9038 15.324 9.09081 13.8481C12.6285 12.6009 17.4184 11.855 22.4996 11.855H22.5004Z" stroke="#3B465B" stroke-opacity="0.9" stroke-width="0.556938"/>
<path d="M15.8667 15.7296C18.3807 11.3222 21.3412 7.5924 24.1533 5.11834C27.5412 2.13708 30.7655 0.969513 32.5037 1.9829C34.3151 3.03915 34.9722 6.65234 34.0029 11.4099C33.2707 15.0067 31.5201 19.2816 29.1337 23.4656C26.687 27.7552 23.8855 31.5345 21.1118 33.9859C17.602 37.088 14.2087 38.2107 12.4318 37.1745C10.7076 36.1699 10.0483 32.875 10.8755 28.4702C11.5744 24.7483 13.3284 20.1803 15.8659 15.7296H15.8667Z" stroke="#3B465B" stroke-opacity="0.9" stroke-width="0.556938"/>
<path d="M15.873 23.4769C13.352 19.0744 11.6356 14.6174 10.9192 10.9185C10.0567 6.46173 10.6664 3.0543 12.4032 2.03787C14.213 0.978366 17.6368 2.20727 21.2292 5.43249C23.9453 7.8708 26.7343 11.5386 29.1275 15.7185C31.5812 20.0041 33.4202 24.3459 34.1356 27.9997C35.0408 32.6236 34.3081 36.1566 32.5328 37.1955C30.8104 38.2039 27.6582 37.1364 24.297 34.2118C21.4572 31.741 18.4189 27.9233 15.873 23.4769Z" stroke="#3B465B" stroke-opacity="0.9" stroke-width="0.556938"/>
<path d="M54.4347 27V12.4545H59.8892C61.0066 12.4545 61.9441 12.6487 62.7017 13.0369C63.464 13.4252 64.0393 13.9697 64.4276 14.6705C64.8205 15.3665 65.017 16.1785 65.017 17.1065C65.017 18.0393 64.8182 18.849 64.4205 19.5355C64.0275 20.2173 63.4474 20.7453 62.6804 21.1193C61.9134 21.4886 60.9711 21.6733 59.8537 21.6733H55.9688V19.4858H59.4986C60.152 19.4858 60.687 19.3958 61.1037 19.2159C61.5204 19.0312 61.8281 18.7637 62.027 18.4134C62.2306 18.0582 62.3324 17.6226 62.3324 17.1065C62.3324 16.5904 62.2306 16.1501 62.027 15.7855C61.8234 15.4162 61.5133 15.1368 61.0966 14.9474C60.6799 14.7533 60.1425 14.6562 59.4844 14.6562H57.0696V27H54.4347ZM61.9489 20.4091L65.5497 27H62.6094L59.0724 20.4091H61.9489ZM72.0021 27.2131C70.9084 27.2131 69.9638 26.9858 69.1683 26.5312C68.3776 26.072 67.7692 25.4233 67.343 24.5852C66.9169 23.7424 66.7038 22.7505 66.7038 21.6094C66.7038 20.4872 66.9169 19.5024 67.343 18.6548C67.7739 17.8026 68.3752 17.1397 69.147 16.6662C69.9188 16.188 70.8255 15.9489 71.8672 15.9489C72.5395 15.9489 73.174 16.0578 73.7706 16.2756C74.3719 16.4886 74.9022 16.8201 75.3615 17.2699C75.8255 17.7197 76.1901 18.2926 76.4553 18.9886C76.7204 19.6799 76.853 20.5038 76.853 21.4602V22.2486H67.9112V20.5156H74.3885C74.3838 20.0232 74.2772 19.5852 74.0689 19.2017C73.8606 18.8134 73.5694 18.508 73.1953 18.2855C72.826 18.063 72.3951 17.9517 71.9027 17.9517C71.3771 17.9517 70.9155 18.0795 70.5178 18.3352C70.12 18.5862 69.8099 18.9176 69.5874 19.3295C69.3696 19.7367 69.2583 20.1842 69.2536 20.6719V22.1847C69.2536 22.8191 69.3696 23.3636 69.6016 23.8182C69.8336 24.268 70.1579 24.6136 70.5746 24.8551C70.9912 25.0919 71.4789 25.2102 72.0376 25.2102C72.4117 25.2102 72.7502 25.1581 73.0533 25.054C73.3563 24.9451 73.6191 24.7865 73.8416 24.5781C74.0642 24.3698 74.2322 24.1117 74.3459 23.804L76.7464 24.0739C76.5949 24.7083 76.3061 25.2623 75.88 25.7358C75.4586 26.2045 74.9188 26.5691 74.2607 26.8295C73.6025 27.0852 72.8497 27.2131 72.0021 27.2131ZM82.1673 27.2202C81.476 27.2202 80.8533 27.0971 80.2994 26.8509C79.7501 26.5999 79.3145 26.2306 78.9925 25.7429C78.6753 25.2552 78.5167 24.6539 78.5167 23.9389C78.5167 23.3234 78.6303 22.8144 78.8576 22.4119C79.0849 22.0095 79.395 21.6875 79.788 21.446C80.181 21.2045 80.6237 21.0223 81.1161 20.8991C81.6133 20.7713 82.127 20.679 82.6573 20.6222C83.2965 20.5559 83.815 20.4967 84.2127 20.4446C84.6104 20.3878 84.8993 20.3026 85.0792 20.1889C85.2638 20.0705 85.3562 19.8883 85.3562 19.642V19.5994C85.3562 19.0644 85.1976 18.6501 84.8803 18.3565C84.5631 18.063 84.1062 17.9162 83.5096 17.9162C82.8799 17.9162 82.3803 18.0535 82.011 18.3281C81.6464 18.6027 81.4002 18.9271 81.2724 19.3011L78.8718 18.9602C79.0612 18.2973 79.3737 17.7434 79.8093 17.2983C80.2449 16.8485 80.7776 16.5123 81.4073 16.2898C82.0371 16.0625 82.7331 15.9489 83.4954 15.9489C84.021 15.9489 84.5442 16.0104 85.065 16.1335C85.5858 16.2566 86.0617 16.4602 86.4925 16.7443C86.9234 17.0237 87.2691 17.4048 87.5295 17.8878C87.7946 18.3707 87.9272 18.9744 87.9272 19.6989V27H85.4556V25.5014H85.3704C85.2141 25.8045 84.994 26.0885 84.7099 26.3537C84.4305 26.6141 84.0778 26.8248 83.6516 26.9858C83.2302 27.142 82.7354 27.2202 82.1673 27.2202ZM82.8349 25.331C83.351 25.331 83.7984 25.2292 84.1772 25.0256C84.556 24.8172 84.8472 24.5426 85.0508 24.2017C85.2591 23.8608 85.3633 23.4891 85.3633 23.0866V21.8011C85.2828 21.8674 85.1455 21.929 84.9513 21.9858C84.762 22.0426 84.5489 22.0923 84.3121 22.1349C84.0754 22.1776 83.841 22.2154 83.609 22.2486C83.377 22.2817 83.1758 22.3101 83.0053 22.3338C82.6218 22.3859 82.2785 22.4711 81.9755 22.5895C81.6725 22.7079 81.4334 22.8736 81.2582 23.0866C81.083 23.295 80.9954 23.5649 80.9954 23.8963C80.9954 24.3698 81.1682 24.7273 81.5138 24.9688C81.8595 25.2102 82.2998 25.331 82.8349 25.331ZM95.271 27.2131C94.1819 27.2131 93.2468 26.974 92.4656 26.4957C91.689 26.0175 91.0901 25.357 90.6687 24.5142C90.252 23.6667 90.0437 22.6913 90.0437 21.5881C90.0437 20.4801 90.2567 19.5024 90.6829 18.6548C91.109 17.8026 91.7103 17.1397 92.4869 16.6662C93.2681 16.188 94.1914 15.9489 95.2567 15.9489C96.1422 15.9489 96.9258 16.1122 97.6076 16.4389C98.2942 16.7609 98.841 17.2178 99.2482 17.8097C99.6554 18.3968 99.8874 19.0833 99.9442 19.8693H97.4869C97.3874 19.3437 97.1507 18.9058 96.7766 18.5554C96.4073 18.2003 95.9125 18.0227 95.2923 18.0227C94.7667 18.0227 94.305 18.1648 93.9073 18.4489C93.5096 18.7282 93.1995 19.1307 92.9769 19.6562C92.7591 20.1818 92.6502 20.8116 92.6502 21.5455C92.6502 22.2888 92.7591 22.928 92.9769 23.4631C93.1947 23.9934 93.5001 24.4029 93.8931 24.6918C94.2908 24.9759 94.7572 25.1179 95.2923 25.1179C95.671 25.1179 96.0096 25.0469 96.3079 24.9048C96.6109 24.758 96.8642 24.5473 97.0678 24.2727C97.2714 23.9981 97.4111 23.6643 97.4869 23.2713H99.9442C99.8827 24.0431 99.6554 24.7273 99.2624 25.3239C98.8694 25.9157 98.3344 26.3797 97.6573 26.7159C96.9802 27.0473 96.1848 27.2131 95.271 27.2131ZM107.503 16.0909V18.0795H101.232V16.0909H107.503ZM102.78 13.4773H105.351V23.7188C105.351 24.0644 105.403 24.3295 105.507 24.5142C105.616 24.6941 105.758 24.8172 105.933 24.8835C106.108 24.9498 106.303 24.983 106.516 24.983C106.677 24.983 106.823 24.9711 106.956 24.9474C107.093 24.9238 107.197 24.9025 107.268 24.8835L107.702 26.8935C107.564 26.9408 107.368 26.9929 107.112 27.0497C106.861 27.1065 106.554 27.1397 106.189 27.1491C105.545 27.1681 104.965 27.071 104.449 26.858C103.933 26.6402 103.523 26.304 103.22 25.8494C102.922 25.3949 102.775 24.8267 102.78 24.1449V13.4773ZM111.237 27.1562C110.806 27.1562 110.437 27.0047 110.129 26.7017C109.821 26.3987 109.67 26.0294 109.674 25.5938C109.67 25.1676 109.821 24.803 110.129 24.5C110.437 24.197 110.806 24.0455 111.237 24.0455C111.654 24.0455 112.016 24.197 112.324 24.5C112.636 24.803 112.795 25.1676 112.799 25.5938C112.795 25.8826 112.719 26.1454 112.572 26.3821C112.43 26.6188 112.241 26.8082 112.004 26.9503C111.772 27.0876 111.516 27.1562 111.237 27.1562ZM121.306 12.4545H123.92V22.6818C123.915 23.6193 123.716 24.4266 123.323 25.1037C122.93 25.776 122.381 26.2945 121.675 26.6591C120.975 27.0189 120.158 27.1989 119.225 27.1989C118.373 27.1989 117.606 27.0473 116.924 26.7443C116.247 26.4366 115.71 25.982 115.312 25.3807C114.914 24.7794 114.715 24.0312 114.715 23.1364H117.336C117.341 23.5294 117.426 23.8679 117.592 24.152C117.762 24.4361 117.996 24.6539 118.295 24.8054C118.593 24.9569 118.936 25.0327 119.325 25.0327C119.746 25.0327 120.103 24.9451 120.397 24.7699C120.691 24.59 120.913 24.3248 121.065 23.9744C121.221 23.6241 121.301 23.1932 121.306 22.6818V12.4545ZM135.287 18.9744L132.943 19.2301C132.877 18.9934 132.761 18.7708 132.595 18.5625C132.434 18.3542 132.216 18.1861 131.942 18.0582C131.667 17.9304 131.331 17.8665 130.933 17.8665C130.398 17.8665 129.948 17.9825 129.584 18.2145C129.224 18.4465 129.046 18.7472 129.051 19.1165C129.046 19.4337 129.162 19.6918 129.399 19.8906C129.641 20.0895 130.038 20.2528 130.592 20.3807L132.453 20.7784C133.485 21.0009 134.252 21.3537 134.754 21.8366C135.261 22.3196 135.517 22.9517 135.521 23.733C135.517 24.4195 135.315 25.0256 134.918 25.5511C134.525 26.072 133.978 26.4792 133.277 26.7727C132.576 27.0663 131.771 27.2131 130.862 27.2131C129.527 27.2131 128.452 26.9337 127.638 26.375C126.823 25.8116 126.338 25.0279 126.182 24.0241L128.689 23.7827C128.803 24.2751 129.044 24.6468 129.413 24.8977C129.783 25.1487 130.263 25.2741 130.855 25.2741C131.466 25.2741 131.956 25.1487 132.325 24.8977C132.699 24.6468 132.886 24.3366 132.886 23.9673C132.886 23.6548 132.766 23.3968 132.524 23.1932C132.287 22.9896 131.918 22.8333 131.416 22.7244L129.555 22.3338C128.509 22.116 127.735 21.7491 127.233 21.233C126.731 20.7121 126.482 20.054 126.487 19.2585C126.482 18.5862 126.665 18.0038 127.034 17.5114C127.408 17.0142 127.927 16.6307 128.589 16.3608C129.257 16.0862 130.027 15.9489 130.898 15.9489C132.176 15.9489 133.182 16.2211 133.916 16.7656C134.655 17.3101 135.112 18.0464 135.287 18.9744Z" fill="#3B465B" fill-opacity="0.9"/>
</svg>
