<svg width="107" height="29" viewBox="0 0 107 29" fill="none" xmlns="http://www.w3.org/2000/svg">
<g clip-path="url(#clip0_81_395)">
<path d="M56.5702 7.22247C59.8372 7.22247 63.0445 9.80639 63.0445 14.4689V14.5284C63.0445 19.1613 59.8668 21.7746 56.5702 21.7746C54.2538 21.7746 52.7986 20.6165 51.8186 19.3098V24.2398C51.8204 24.6568 51.6589 25.0579 51.3687 25.3574C51.0786 25.6569 50.6828 25.8311 50.266 25.8425L50.2149 25.8434C49.3536 25.8434 48.6409 25.1307 48.6409 24.2695V8.88569C48.6111 8.02445 49.324 7.31155 50.1852 7.28193H50.2149C50.6318 7.28013 51.033 7.44154 51.3325 7.73165C51.6321 8.02175 51.8062 8.41753 51.8178 8.83437L51.8186 8.88569V9.83601C52.858 8.3808 54.3132 7.22247 56.5702 7.22247ZM98.8608 7.19284C101.082 7.19284 102.526 8.31466 103.563 9.73733L103.612 9.80618V8.85585L103.613 8.80474C103.624 8.39691 103.791 8.00885 104.08 7.72028C104.368 7.43172 104.756 7.26455 105.164 7.25314L105.216 7.2523H105.246C106.12 7.28151 106.822 7.96749 106.821 8.83437L106.82 8.88569V18.6268C106.82 20.9728 106.196 22.7252 105.038 23.8833C103.791 25.1603 101.83 25.7543 99.3062 25.7543C97.4352 25.7543 95.594 25.3385 93.9011 24.5069C93.3666 24.3287 93.0103 23.7942 93.0103 23.23C93.0399 22.4873 93.6339 21.9232 94.3762 21.9232C94.5842 21.9232 94.7622 21.953 94.9405 22.0421C96.2472 22.7844 97.7321 23.1407 99.2171 23.1407C101.92 23.1407 103.464 21.8341 103.612 19.3098C102.632 20.5867 101.177 21.745 98.8608 21.745C95.5971 21.745 92.4501 19.1836 92.3875 14.6369L92.3865 14.4985V14.4393C92.3865 9.77655 95.594 7.19284 98.8608 7.19284ZM86.1794 7.28193C89.3277 7.28193 91.139 9.39058 91.139 12.6277V20.1412C91.1689 21.0025 90.4858 21.6855 89.6244 21.7154H89.5651C88.7039 21.745 87.9912 21.0323 87.9614 20.1711V13.6077C87.9614 11.4398 86.8923 10.1924 84.9618 10.1924C83.1207 10.1924 81.8138 11.499 81.8138 13.6671V20.1711C81.8146 20.3819 81.7737 20.5908 81.6935 20.7857C81.6132 20.9807 81.4951 21.1578 81.346 21.3069C81.1969 21.4559 81.0198 21.574 80.8249 21.6543C80.63 21.7346 80.421 21.7755 80.2102 21.7746C79.9994 21.7755 79.7905 21.7346 79.5955 21.6544C79.4005 21.5741 79.2234 21.456 79.0743 21.3069C78.9252 21.1579 78.8071 20.9807 78.7268 20.7858C78.6465 20.5908 78.6056 20.3819 78.6065 20.1711L78.6361 8.91531C78.6065 8.05408 79.3191 7.34139 80.1804 7.31155H80.2102C80.6272 7.30976 81.0284 7.4712 81.328 7.76135C81.6275 8.0515 81.8017 8.44733 81.8132 8.8642L81.8138 8.91531V9.56875C82.7643 8.0837 84.4273 7.22247 86.1794 7.28193ZM41.9885 7.2523C43.5328 7.28193 45.0178 7.66811 46.3837 8.3808C46.859 8.61843 47.1559 9.06386 47.1559 9.59838C47.1559 10.3111 46.5619 10.905 45.8492 10.905H45.8196C45.6116 10.905 45.4038 10.8458 45.1958 10.7567C44.186 10.1924 43.0873 9.86585 41.929 9.80639C40.6818 9.80639 39.9689 10.4002 39.9689 11.1725V11.2318C39.9689 12.2712 41.4836 12.687 43.1169 13.2215L43.2509 13.2628L43.3855 13.305C43.5428 13.3546 43.7002 13.4068 43.8578 13.4614L43.9928 13.509C45.7668 14.1447 47.453 15.148 47.453 17.2903V17.3497C47.453 20.2898 45.1661 21.745 42.2853 21.745C40.3847 21.7154 38.5137 21.151 36.9397 20.082C36.5538 19.8441 36.3159 19.4285 36.3458 18.9831C36.3458 18.2704 36.9099 17.6764 37.6226 17.6764H37.6524C37.8901 17.6764 38.1277 17.7357 38.3355 17.8546C39.5235 18.686 40.9192 19.1314 42.3448 19.1909C43.7109 19.1909 44.5127 18.5969 44.5127 17.6762V17.617C44.5127 16.5181 43.0279 16.1618 41.3945 15.6569C41.2234 15.6076 41.0513 15.5562 40.8781 15.5025L40.7483 15.4618C38.8877 14.8697 37.0288 13.953 37.0288 11.5585V11.499C37.0288 8.85585 39.2266 7.2523 41.9885 7.2523ZM75.3989 7.31155C75.816 7.30976 76.2171 7.4712 76.5167 7.76135C76.8162 8.0515 76.9904 8.44733 77.0019 8.8642L77.0027 8.91531V20.1711C77.0027 21.0619 76.29 21.745 75.3989 21.745C74.5081 21.745 73.825 21.0323 73.825 20.1711V8.91531C73.7954 8.05408 74.5081 7.34139 75.3693 7.31155H75.3989ZM72.548 8.61864V8.85606C72.548 9.62821 72.0134 10.2817 71.2711 10.4004C68.9841 10.7865 67.4398 12.7763 67.4398 15.5384V20.1414C67.4398 21.0323 66.7271 21.7156 65.8362 21.7156C64.9919 21.7156 64.2903 21.059 64.2631 20.2218L64.2621 20.1711V20.1414L64.2919 8.88569C64.2621 8.02466 64.975 7.31176 65.8362 7.28214H65.8659C66.2829 7.28034 66.684 7.44175 66.9835 7.73186C67.2831 8.02196 67.4573 8.41774 67.4688 8.83457L67.4696 8.8859V9.65784C67.618 8.47009 69.5781 7.28214 70.974 7.28214C71.7758 7.22267 72.4887 7.81665 72.548 8.61864ZM55.8575 10.0144C53.6896 10.0144 51.7888 11.826 51.7888 14.4691V14.5286C51.7888 17.2014 53.6894 18.9833 55.8575 18.9833C58.0256 18.9833 59.8372 17.2905 59.8372 14.5286V14.4691C59.8372 11.7665 58.0254 10.0144 55.8575 10.0144ZM99.6031 9.98477C97.4575 9.98477 95.661 11.701 95.6242 14.3563L95.6236 14.4395V14.4988C95.6236 17.2608 97.4053 18.9833 99.6031 18.9833C101.778 18.9833 103.663 17.2085 103.672 14.5803L103.672 14.499V14.4395C103.672 11.7961 101.771 9.98477 99.6031 9.98477ZM77.0325 3.39155V3.4508C77.0334 3.66166 76.9925 3.8706 76.9123 4.06558C76.832 4.26055 76.7139 4.4377 76.5648 4.5868C76.4157 4.7359 76.2385 4.854 76.0435 4.93428C75.8486 5.01456 75.6396 5.05544 75.4288 5.05456C75.2179 5.05544 75.009 5.01456 74.814 4.93428C74.619 4.854 74.4419 4.7359 74.2928 4.5868C74.1437 4.4377 74.0256 4.26055 73.9453 4.06558C73.865 3.8706 73.8241 3.66166 73.825 3.4508C73.8232 3.03381 73.9846 2.63266 74.2747 2.33312C74.5648 2.03358 74.9606 1.85942 75.3774 1.84787L75.4288 1.84704C76.29 1.81741 77.0027 2.5301 77.0325 3.39155ZM4.39028 4.04478C10.0922 -1.47899 19.2099 -1.33065 24.7337 4.40112C25.3575 3.56972 25.892 2.64902 26.278 1.6987C28.0895 7.22247 29.1884 11.8556 28.7726 15.4491C28.5648 18.4782 27.3768 21.3886 25.4167 23.7051C20.3086 29.7636 11.2209 30.5357 5.16264 25.4276L5.04601 25.3241L5.02577 25.3101C4.95606 25.2607 4.89198 25.2039 4.83467 25.1405L4.8186 25.1219L4.62791 24.9525C4.44974 24.7998 4.27157 24.6469 4.11196 24.4756L4.03393 24.3882C-1.49004 18.6862 -1.31166 9.56875 4.39028 4.04478ZM6.52877 23.3784C5.99404 22.9626 5.22189 23.022 4.80608 23.5566C4.44369 24.0226 4.44223 24.6692 4.80212 25.1029L4.8186 25.1219L5.04601 25.3241L5.06834 25.3393C5.58282 25.6781 6.27382 25.612 6.67418 25.1411L6.70673 25.1009C7.12254 24.5663 7.03366 23.7942 6.52877 23.3784ZM26.1292 3.18375C24.6444 6.30219 20.9618 8.67789 17.7839 9.42041C16.5598 9.71125 15.3998 9.78448 14.2678 9.84185L13.929 9.85896C12.4078 9.93511 10.9309 10.0192 9.40915 10.6084C3.11303 13.0139 3.23195 20.498 6.6769 22.1906L6.88469 22.3096C6.88469 22.3096 9.16443 21.8562 11.5176 21.2445L11.7283 21.1892L11.8339 21.1612L12.0446 21.1049C13.0277 20.8399 13.9945 20.5514 14.7846 20.2604C18.883 18.7457 23.397 15.0036 24.882 10.6678C24.1099 15.1818 20.2193 19.5475 16.3289 21.5374C14.2501 22.6064 12.6463 22.8441 9.23098 24.032C8.97984 24.1217 8.73216 24.2207 8.48846 24.3289L8.54729 24.321L8.66433 24.3055L8.78075 24.2909C9.53433 24.1975 10.2109 24.1507 10.2109 24.1507C15.0518 23.9131 22.6546 25.5169 26.1887 20.7949C29.8118 15.9838 27.7924 8.20283 26.1292 3.18375Z" fill="#3B465B" fill-opacity="0.9"/>
<path d="M6.52856 23.3784C7.03345 23.7942 7.12254 24.5664 6.70673 25.1009C6.29092 25.6354 5.51877 25.6949 4.98426 25.2791C4.44974 24.8633 4.39028 24.0913 4.80608 23.5566C5.22189 23.0221 5.99404 22.9626 6.52856 23.3784ZM26.1296 3.18359C27.7924 8.20268 29.812 15.9836 26.1889 20.7947C22.6546 25.5167 15.052 23.913 10.2111 24.1506C10.2111 24.1506 9.3499 24.21 8.48866 24.3288C8.48866 24.3288 8.81538 24.1804 9.23119 24.0319C12.6465 22.8439 14.2503 22.6063 16.3289 21.5372C20.2195 19.5473 24.1101 15.1817 24.8822 10.6675C23.3972 15.0035 18.8832 18.7457 14.7848 20.2602C14.0512 20.5304 13.165 20.7985 12.2553 21.0476L12.045 21.1048C9.51764 21.7859 6.8849 22.3094 6.8849 22.3094L6.6771 22.1905C3.23216 20.4978 3.11324 13.0138 9.40936 10.6082C12.1712 9.53897 14.7848 10.133 17.7843 9.42026C20.962 8.67774 24.6446 6.30203 26.1296 3.18359Z" fill="#E6F4FD"/>
</g>
<defs>
<clipPath id="clip0_81_395">
<rect width="106.82" height="29" fill="white"/>
</clipPath>
</defs>
</svg>
