<svg width="168" height="24" viewBox="0 0 168 24" fill="none" xmlns="http://www.w3.org/2000/svg">
<g clip-path="url(#clip0_81_404)">
<path d="M17.3335 0C12.7112 0 9.82222 2.66675 8.66658 8.00025C10.3999 5.33312 12.4222 4.33311 14.7335 5.00021C16.0519 5.38041 16.9945 6.48434 18.0378 7.7063C19.7371 9.69624 21.704 12.0002 26.0001 12.0002C30.6224 12.0002 33.5112 9.33344 34.6667 3.99994C32.9333 6.66707 30.9111 7.66708 28.6001 6.99998C27.2814 6.61978 26.3391 5.51585 25.2958 4.29389C23.5961 2.30395 21.6296 0 17.3335 0ZM8.66658 12.0002C4.04449 12.0002 1.15563 14.6669 0 20.0004C1.73334 17.3333 3.75553 16.3333 6.06658 17.0004C7.38527 17.3806 8.32789 18.4845 9.37085 19.7061C11.0705 21.6968 13.0374 24 17.3335 24C21.9556 24 24.8444 21.3334 26.0001 16.0001C24.2667 18.6673 22.2445 19.6673 19.9335 19.0002C18.6148 18.62 17.6722 17.516 16.6289 16.2941C14.9296 14.3041 12.9627 12.0002 8.66658 12.0002Z" fill="#3B465B" fill-opacity="0.9"/>
<path d="M52.038 8.77071H49.0108V14.6304C49.0108 16.1929 50.0361 16.1686 52.038 16.0708V18.4389C47.9854 18.9272 46.3739 17.8043 46.3739 14.6304V8.77104H44.1279V6.23201H46.3739V2.95273L49.0108 2.17179V6.23201H52.038V8.77071ZM63.5782 6.23201H66.215V18.4389H63.5782V16.6812C62.6506 17.9753 61.2101 18.7565 59.306 18.7565C55.9854 18.7565 53.2265 15.9488 53.2265 12.3355C53.2265 8.69787 55.9854 5.91471 59.3057 5.91471C61.2101 5.91471 62.6506 6.69565 63.5782 7.96549V6.23201ZM59.7208 16.2418C61.9179 16.2418 63.5782 14.6061 63.5782 12.3355C63.5782 10.0648 61.9179 8.42913 59.7208 8.42913C57.5236 8.42913 55.8633 10.0648 55.8633 12.3355C55.8633 14.6061 57.5236 16.2418 59.7208 16.2418ZM70.6096 4.40074C69.6816 4.40074 68.925 3.61981 68.925 2.71648C68.9259 2.26996 69.1036 1.84198 69.4194 1.52625C69.7351 1.21051 70.1631 1.03275 70.6096 1.03188C71.0561 1.03275 71.4841 1.21051 71.7998 1.52625C72.1155 1.84198 72.2933 2.26996 72.2942 2.71648C72.2942 3.61981 71.5372 4.40074 70.6096 4.40074ZM69.2912 18.4389V6.23201H71.9277V18.4389H69.2912ZM74.9796 18.4389V0.616806H77.6164V18.4389H74.9796ZM94.7307 6.23201H97.5139L93.6807 18.4389H91.0928L88.5538 10.2115L85.9904 18.4389H83.4025L79.5694 6.23201H82.3525L84.7209 14.655L87.2842 6.23201H89.799L92.338 14.655L94.7307 6.23201ZM100.785 4.40107C99.8577 4.40107 99.1007 3.61981 99.1007 2.71648C99.1015 2.26996 99.2793 1.84198 99.595 1.52625C99.9108 1.21051 100.339 1.03275 100.785 1.03188C101.232 1.03275 101.66 1.21051 101.976 1.52625C102.291 1.84198 102.469 2.26996 102.47 2.71648C102.47 3.61981 101.713 4.40074 100.785 4.40074M99.4669 18.4386V6.23201H102.104V18.4389L99.4669 18.4386ZM111.576 5.91406C114.311 5.91406 116.264 7.7696 116.264 10.9436V18.4386H113.627V11.2123C113.627 9.35707 112.553 8.38057 110.893 8.38057C109.159 8.38057 107.792 9.40563 107.792 11.8961V18.4389H105.155V6.23201H107.792V7.79454C108.598 6.5247 109.916 5.91406 111.576 5.91406ZM128.764 1.34918H131.401V18.4389H128.764V16.6812C127.836 17.9753 126.396 18.7565 124.492 18.7565C121.171 18.7565 118.412 15.9488 118.412 12.3355C118.412 8.69787 121.171 5.91471 124.491 5.91471C126.396 5.91471 127.836 6.69565 128.764 7.96549V1.34918ZM124.906 16.2418C127.104 16.2418 128.764 14.6061 128.764 12.3355C128.764 10.0648 127.104 8.42913 124.906 8.42913C122.709 8.42913 121.049 10.0648 121.049 12.3355C121.049 14.6061 122.709 16.2418 124.906 16.2418ZM140.238 18.7565C136.552 18.7565 133.793 15.9488 133.793 12.3355C133.793 8.69787 136.552 5.91471 140.238 5.91471C142.631 5.91471 144.706 7.15962 145.683 9.06406L143.412 10.3825C142.875 9.23501 141.679 8.50231 140.214 8.50231C138.066 8.50231 136.43 10.1383 136.43 12.3355C136.43 14.5326 138.066 16.1686 140.214 16.1686C141.679 16.1686 142.875 15.4116 143.461 14.2885L145.732 15.5826C144.706 17.5113 142.631 18.7565 140.238 18.7565ZM150.077 9.6012C150.077 11.8226 156.645 10.4799 156.645 14.9966C156.645 17.4378 154.521 18.7565 151.884 18.7565C149.443 18.7565 147.685 17.6577 146.904 15.8999L149.174 14.5815C149.565 15.6804 150.541 16.3392 151.884 16.3392C153.056 16.3392 153.959 15.9488 153.959 14.9723C153.959 12.7994 147.392 14.0201 147.392 9.65009C147.392 7.35485 149.369 5.91471 151.86 5.91471C153.861 5.91471 155.521 6.84232 156.376 8.45374L154.155 9.69865C153.715 8.74676 152.861 8.3074 151.86 8.3074C150.907 8.3074 150.077 8.72215 150.077 9.6012ZM161.332 9.6012C161.332 11.8226 167.9 10.4799 167.9 14.9966C167.9 17.4378 165.776 18.7565 163.139 18.7565C160.698 18.7565 158.94 17.6577 158.158 15.8999L160.429 14.5815C160.819 15.6804 161.796 16.3392 163.139 16.3392C164.311 16.3392 165.214 15.9488 165.214 14.9723C165.214 12.7994 158.647 14.0201 158.647 9.65009C158.647 7.35485 160.624 5.91471 163.115 5.91471C165.116 5.91471 166.776 6.84232 167.631 8.45374L165.409 9.69865C164.97 8.74676 164.115 8.3074 163.115 8.3074C162.162 8.3074 161.332 8.72215 161.332 9.6012Z" fill="#3B465B" fill-opacity="0.9"/>
</g>
<defs>
<clipPath id="clip0_81_404">
<rect width="168" height="24" fill="white"/>
</clipPath>
</defs>
</svg>
