<svg width="35" height="87" viewBox="0 0 35 87" fill="none" xmlns="http://www.w3.org/2000/svg">
<path d="M-3.32594e-05 43.4317V36.5794C3.93178 36.5794 6.65906 35.7953 8.18179 34.2272C9.70451 32.659 10.4659 30.1249 10.4659 26.6249V19.0908C10.4659 14.8863 11.0454 11.5226 12.2045 8.99989C13.3863 6.45443 15.0227 4.53398 17.1136 3.23853C19.2272 1.94307 21.7272 1.07943 24.6136 0.647612C27.5 0.215796 30.6591 -0.000112534 34.0909 -0.000112534V10.8408C31.4091 10.8408 29.3636 11.1931 27.9545 11.8976C26.5682 12.5794 25.625 13.6476 25.125 15.1022C24.625 16.534 24.375 18.3522 24.375 20.5567V30.5113C24.375 32.2385 24.0568 33.8863 23.4204 35.4544C22.7841 36.9999 21.6022 38.3749 19.875 39.5794C18.1477 40.7613 15.6818 41.7044 12.4772 42.409C9.27269 43.0908 5.1136 43.4317 -3.32594e-05 43.4317ZM34.0909 86.284C30.6591 86.284 27.5 86.0681 24.6136 85.6363C21.7272 85.2044 19.2272 84.3408 17.1136 83.0453C15.0227 81.7499 13.3863 79.8294 12.2045 77.284C11.0454 74.7613 10.4659 71.3976 10.4659 67.1931V59.6249C10.4659 56.1249 9.70451 53.5908 8.18179 52.0226C6.65906 50.4544 3.93178 49.6703 -3.32594e-05 49.6703V42.8181C5.1136 42.8181 9.27269 43.1703 12.4772 43.8749C15.6818 44.5567 18.1477 45.4999 19.875 46.7044C21.6022 47.8863 22.7841 49.2613 23.4204 50.8294C24.0568 52.3749 24.375 54.0226 24.375 55.7726V65.7272C24.375 67.909 24.625 69.7158 25.125 71.1476C25.625 72.6022 26.5682 73.6703 27.9545 74.3522C29.3636 75.0567 31.4091 75.409 34.0909 75.409V86.284ZM-3.32594e-05 49.6703V36.5794H12.2386V49.6703H-3.32594e-05Z" fill="#E6F4FD"/>
</svg>
