<svg width="390" height="58" viewBox="0 0 390 58" fill="none" xmlns="http://www.w3.org/2000/svg">
<mask id="mask0_205_642" style="mask-type:alpha" maskUnits="userSpaceOnUse" x="-377" y="0" width="1270" height="83">
<path d="M354.756 82.4864C322.085 82.655 291.234 74.6975 258.523 74.0794C218.007 73.3132 176.774 79.6145 136.271 77.5648C95.9885 75.5186 55.4737 72.8999 15.0663 69.8467C-25.2751 66.7946 -65.6112 63.3069 -106.053 59.5215C-146.417 55.7376 -186.744 51.6593 -227.129 47.415C-254.532 44.5325 -281.976 41.5724 -309.371 38.5829C-321.385 37.2724 -333.422 35.9567 -345.42 34.6376C-354.383 33.6514 -363.353 32.6651 -372.33 31.6786C-373.578 31.5399 -374.767 31.0457 -375.637 30.2793C-376.506 29.5117 -376.987 28.5402 -376.968 27.5453C-376.949 26.5498 -376.43 25.5939 -375.531 24.8603C-374.632 24.1289 -373.424 23.6839 -372.171 23.594C-363.091 22.9541 -354.015 22.3141 -344.948 21.674C-334.892 20.9639 -324.795 20.2529 -314.726 19.5489C-313.215 23.6601 -311.096 26.7957 -307.051 28.2357C-304.986 28.9702 -301.963 29.3141 -299.721 28.595C-297.707 27.9488 -296.178 26.7601 -294.719 25.6273C-293.196 24.4424 -291.75 23.3174 -289.908 22.9438C-286.783 22.3092 -283.795 20.6282 -280.659 18.8621C-279.518 18.2192 -278.355 17.5642 -277.16 16.945C-267.533 16.2855 -257.966 15.6314 -248.312 14.986C-244.606 15.4869 -241.199 15.8991 -238.303 15.7831C-235.704 15.6789 -233.313 14.8586 -230.93 13.8277C-229.442 13.729 -227.955 13.6303 -226.468 13.5317C-216.895 12.898 -207.234 12.2788 -197.627 11.6658C-190.146 12.8886 -182.371 14.0855 -172.145 14.7323C-167.739 15.0111 -163.404 15.6777 -159.241 16.3174C-153.092 17.2623 -147.318 18.1504 -142.24 17.6539C-138.853 17.3218 -135.276 17.9628 -131.712 18.6021C-126.933 19.4594 -122.169 20.3151 -117.817 18.8207C-115.08 17.881 -112.563 16.724 -110.233 15.6509C-106.527 13.9434 -103.293 12.4498 -100.389 12.3947C-94.9154 12.2919 -90.1236 11.0855 -85.9254 10.0207C-80.8711 8.7401 -76.6402 7.66546 -72.9685 8.97018C-72.412 9.16798 -71.7756 9.42911 -71.0595 9.7258C-67.276 11.2898 -61.2908 13.7901 -52.4693 12.6324C-49.3389 12.2198 -46.3886 11.055 -43.5018 9.91188C-39.2996 8.24776 -35.2247 6.63244 -30.914 7.4611C-30.2701 7.58511 -29.6042 8.06817 -28.9981 8.50942C-28.2275 9.07043 -27.5542 9.56015 -27.1434 9.15203C-25.9377 7.95497 -24.0352 6.64214 -21.9707 5.21324C-20.4426 4.16368 -18.8163 3.05109 -17.3187 1.87937C-6.02731 1.40464 5.20981 0.957647 16.3998 0.544689C21.583 0.356194 26.7557 0.174589 31.9171 -3.05176e-05C34.5213 1.88168 37.1857 3.58264 40.004 4.88398C43.6927 6.58478 48.4732 7.17151 54.6659 7.93176C59.2579 8.49179 64.6016 9.14635 70.7867 10.4017C82.2339 12.7252 93.9631 12.4627 101.607 11.4659C103.214 11.255 104.829 11.0279 106.554 10.7804C113.14 9.84248 121.108 8.66279 136.719 7.4862C151.433 6.37234 163.683 6.23738 173.145 6.14087C177.932 6.09082 181.894 6.0526 184.928 5.89286C190.144 5.61995 196.388 5.40618 202.885 5.19754C212.985 4.86978 223.05 4.5409 228.73 3.9605C230.763 3.75408 232.84 3.49061 235.192 3.21156C241.643 2.43707 249.414 1.50246 259.996 1.07511C270.996 0.62459 278.143 1.2026 285.256 2.30288C288.166 2.75048 290.703 4.35427 293.311 6.01102C297.02 8.36216 300.822 10.8148 306.227 10.2046C307.479 10.062 308.818 9.71591 310.216 9.35265C312.784 8.68538 315.554 7.96167 318.362 8.35396C319.341 8.4908 320.196 8.92938 321.034 9.35931C321.956 9.83228 322.859 10.2947 323.89 10.3389C327.749 10.5035 331.448 10.4673 334.808 10.4356C339.173 10.3954 342.811 10.3623 345.057 10.7739C349.062 11.508 353.445 11.0004 357.861 10.4829C361.252 10.088 364.568 9.68393 367.945 9.8342C377.569 10.2636 390.352 9.38096 403.919 7.76551C409.041 7.15462 413.327 8.20374 418.778 9.55007C422.201 10.3881 425.897 11.341 430.85 12.0819C433.617 12.5009 435.973 11.6843 438.148 10.9299C440.152 10.2349 442.004 9.59237 443.879 10.0114C445.533 10.3818 446.553 11.8505 447.52 13.2453C448.597 14.7976 449.609 16.2576 451.349 16.0101C452.274 15.8783 453.409 15.1754 454.755 14.3403C455.287 14.01 455.855 13.6605 456.455 13.3152C456.419 13.6084 456.407 13.871 456.402 14.0698C456.356 15.4747 458.16 16.2499 459.919 17.0092C460.622 17.3123 461.321 17.6118 461.893 17.9492C464 19.191 468.011 19.464 471.058 19.4674C472.348 19.4692 473.506 19.9275 474.855 20.4624C476.051 20.9373 477.398 21.4733 479.117 21.8031C480.097 21.991 480.843 22.413 481.46 22.7652C481.906 23.0201 482.285 23.2379 482.64 23.3C482.946 23.3536 483.203 22.9556 483.491 22.5074C483.698 22.1847 483.923 21.8352 484.195 21.6095C484.844 21.0701 485.673 20.9198 486.272 21.1088C486.545 21.1961 486.759 21.3571 486.971 21.5174C487.219 21.704 487.465 21.8919 487.807 21.9627C489.379 22.2869 490.917 21.8573 492.511 21.4111C494.263 20.9206 496.085 20.4112 498.086 20.8572C498.716 20.9976 499.383 21.3044 500.027 21.6021C500.702 21.9137 501.357 22.2144 501.917 22.3022C504.189 22.658 506.34 21.6952 508.312 20.8093C509.624 20.2203 510.859 19.6661 511.994 19.5558C514.063 19.3543 515.296 18.1718 516.147 17.2977C516.595 16.8449 516.96 16.473 517.338 16.3657C517.681 16.4061 518.028 16.4529 518.368 16.5031C518.679 16.598 519.001 16.6959 519.304 16.6727C519.327 16.6709 519.35 16.6661 519.373 16.6643C521.273 16.9944 523.13 17.446 524.968 17.8963C529.096 18.9076 533.141 19.908 537.408 19.4744C538.331 19.381 539.257 18.9012 540.238 18.4145C541.455 17.8185 542.697 17.2089 543.945 17.2795C546.92 17.4478 549.888 18.3291 552.792 19.1972C557.159 20.5028 561.382 21.7774 565.277 20.5506C566.582 20.146 567.913 19.4553 569.216 18.7583C569.945 18.3699 570.677 17.9781 571.412 17.6376C571.244 18.2942 571.149 18.9119 571.061 19.4879C570.879 20.6752 570.722 21.6914 570.004 22.5427C568.306 24.5546 566.361 27.3322 566.529 29.3901C566.575 29.9486 566.516 30.5684 566.453 31.1924C566.295 32.7578 566.136 34.3566 567.665 35.1121C568.697 35.6212 571.338 36.7957 573.046 35.6307C573.418 35.3769 573.652 34.8635 573.912 34.2931C574.379 33.268 574.936 32.0542 576.529 31.8015C576.798 31.759 577.089 31.7216 577.39 31.6874C578.589 31.5509 579.927 31.4006 580.442 30.5795C581.035 29.6336 580.935 28.5344 580.818 27.2526C580.666 25.5834 580.486 23.6006 581.768 21.2415C582.023 20.7751 582.492 20.6232 582.845 20.5079C583.095 20.4266 583.285 20.3613 583.307 20.2199C583.332 20.0574 583.26 19.7168 583.168 19.2859C582.843 17.7656 582.284 15.1094 584.855 15.0498C585.55 15.0339 586.34 15.176 587.047 15.3043C588.089 15.4933 588.95 15.6493 589.075 15.2191C589.122 15.0559 589.157 14.8786 589.186 14.6948C590.009 14.7637 590.847 14.8329 591.717 14.9028C592.812 15.4412 594.363 15.4289 596.286 15.4112C596.753 15.4069 597.244 15.4042 597.754 15.4073C599.434 15.5488 601.108 15.6895 602.772 15.8328C604.089 16.0788 605.482 16.4641 606.943 17.06C609.882 18.2546 612.329 20.1751 614.84 22.0557C615.914 22.8485 616.976 23.6353 618.049 24.3557C617.623 24.4325 617.238 24.5258 616.94 24.6591C614.907 25.5715 614.011 27.4316 613.283 29.1458C612.782 30.2857 612.31 31.3606 611.548 32.0445C610.153 33.2976 610.258 34.7993 610.336 35.9097C610.376 36.4856 610.406 36.9574 610.218 37.2333C610.066 37.4543 609.724 37.5525 609.371 37.6544C609.063 37.7432 608.744 37.8361 608.538 38.0125C606.029 40.1554 606.743 41.4444 607.782 43.3204C608.355 44.3551 609.022 45.5692 609.306 47.2035C609.542 48.9326 609.441 49.4349 608.138 50.0946C609.125 50.9666 610.109 51.8386 611.089 52.7106C611.482 52.6634 611.79 52.1374 612.225 51.2619C612.961 49.6976 615.532 49.1739 617.499 48.7639C618.413 48.5742 619.205 48.4081 619.655 48.1753C622.044 46.9373 621.393 45.1297 620.823 43.5391C620.508 42.6637 620.218 41.8534 620.471 41.2404C620.578 40.9782 620.438 40.7128 620.297 40.4421C620.188 40.2329 620.075 40.0201 620.075 39.8037C620.077 38.2318 621.5 37.0948 622.813 36.039C623.565 35.4344 624.28 34.8541 624.681 34.2355C624.804 34.047 624.901 33.8541 624.994 33.6668C625.128 33.3933 625.259 33.1327 625.46 32.9112C625.917 32.4068 626.843 32.0798 627.854 31.7234C628.372 31.5407 628.912 31.3499 629.423 31.1227C630.084 30.8283 630.333 30.2119 630.595 29.568C630.781 29.1129 630.975 28.6443 631.321 28.2621C631.947 27.5711 633.185 27.3431 634.328 27.1314C634.826 27.0393 635.307 26.9474 635.713 26.8244C635.878 26.7744 635.959 26.6692 635.979 26.523C637.895 26.0716 639.803 25.6097 641.604 25.1558C650.679 22.8819 658.162 20.9031 669.784 22.7095C671.94 23.0502 674.242 23.0424 676.546 22.8588C677.095 22.9171 677.643 22.9755 678.189 23.0339C685.415 23.7678 692.183 24.5104 699.139 25.2735C700.637 26.7242 702.47 27.9558 704.622 28.9388C708.719 30.7859 712.572 31.2498 717.656 31.8115C721.372 32.2258 725.434 32.6872 730.006 33.7822C738.098 35.6322 745.862 37.2226 755.271 38.1883C764.199 39.1383 774.733 39.9489 782.273 40.3442C786.206 40.5547 790.528 41.9419 794.442 43.2325C799.721 45.0412 805.029 46.6846 807.974 44.6169C808.947 43.957 809.858 42.7882 810.874 41.6568C811.575 40.8503 812.26 40.0628 812.921 39.481C814.624 39.7202 816.292 39.957 817.922 40.1971C820.76 41.7232 825.517 43.4166 829.984 41.9653C831.769 42.2237 833.5 42.4804 835.123 42.7372C838.734 43.282 842.286 43.8349 845.932 44.4017C847.136 44.5891 848.319 44.7768 849.471 44.9648C849.482 44.9669 849.493 44.9689 849.504 44.971C851.776 45.3475 854.436 45.7459 856.633 46.1316C857.672 46.3005 858.745 46.4719 859.75 46.6414C862.198 47.0666 864.985 47.5161 867.446 47.964C868.888 48.2092 870.143 48.4461 871.536 48.6976C873.824 49.1074 876.055 49.5273 878.24 49.968C881.943 50.735 885.232 51.3123 889.478 52.6851C890.168 52.9371 891.014 53.4326 891.671 54.2697C892.355 55.1636 892.123 55.7123 891.799 56.0219C891.483 56.3804 890.942 56.4279 890.3 56.4477C889.68 56.4865 889.095 56.5535 888.529 56.4873C884.891 56.1664 881.373 56.4243 877.74 56.5681C875.563 56.6807 873.332 56.8138 871.041 56.9492C869.649 57.0342 868.389 57.1277 866.944 57.2161C864.478 57.3952 861.681 57.5689 859.223 57.7614C858.216 57.8358 857.136 57.908 856.098 57.9831C853.886 58.1684 851.205 58.3361 848.925 58.5234C848.911 58.5244 848.897 58.5255 848.883 58.5265C847.734 58.6175 846.553 58.7083 845.353 58.798C841.699 59.0713 838.123 59.351 834.502 59.6293C832.664 59.7835 830.685 59.9293 828.651 60.077C827.498 60.1585 826.532 60.2473 825.466 60.3318C824.894 60.3766 824.309 60.4205 823.715 60.4646C810.073 61.5197 796.565 62.5711 782.877 63.5799C769.12 64.5876 755.713 65.5706 742.032 66.5069C728.23 67.4407 714.77 68.3416 701.194 69.1991C692.939 69.6954 685.47 70.2013 677.13 70.6781C598.865 75.4551 520.04 79.2411 441.336 81.1816C428.856 81.4887 416.321 81.7422 403.853 81.947C391.116 82.1471 379.206 82.314 366.436 82.4088C362.567 82.4407 358.766 82.4675 354.756 82.4864Z" fill="#E6F4FD"/>
</mask>
<g mask="url(#mask0_205_642)">
<rect y="-788.67" width="390" height="846" fill="#E6F4FD"/>
</g>
</svg>
