<svg width="1440" height="48" viewBox="0 0 1440 48" fill="none" xmlns="http://www.w3.org/2000/svg">
<path d="M731.566 47.4297C682.804 47.714 636.536 43.2122 587.699 43.0314C527.205 42.8071 465.808 46.7366 405.302 45.7545C345.122 44.7734 284.585 43.4557 224.193 41.8813C163.902 40.3071 103.611 38.4761 43.1529 36.4702C-17.1884 34.4647 -77.4795 32.2855 -137.861 30.0087C-178.835 28.4624 -219.869 26.8706 -260.832 25.261C-278.796 24.5556 -296.795 23.8471 -314.734 23.1365C-328.136 22.6051 -341.55 22.0737 -354.971 21.5423C-356.837 21.4674 -358.625 21.1835 -359.942 20.7379C-361.258 20.2916 -362 19.7234 -361.996 19.1388C-361.992 18.5539 -361.241 17.9895 -359.916 17.5537C-358.593 17.1192 -356.8 16.8513 -354.934 16.7918C-341.395 16.3672 -327.866 15.9425 -314.348 15.5179C-299.355 15.0468 -284.302 14.575 -269.291 14.1074C-266.935 16.5146 -263.695 18.3454 -257.622 19.1697C-254.522 19.5902 -250.002 19.776 -246.672 19.3415C-243.683 18.9511 -241.429 18.2445 -239.28 17.5712C-237.035 16.8669 -234.904 16.1982 -232.165 15.9688C-227.516 15.5793 -223.098 14.5757 -218.46 13.5213C-216.772 13.1375 -215.053 12.7464 -213.284 12.3762C-198.931 11.9371 -184.668 11.5016 -170.275 11.0706C-164.73 11.345 -159.636 11.5689 -155.316 11.4852C-151.44 11.41 -147.891 10.9153 -144.359 10.2968C-142.141 10.2309 -139.924 10.1649 -137.707 10.099C-123.434 9.67529 -109.03 9.25964 -94.7054 8.84787C-83.5097 9.52609 -71.8753 10.1875 -56.5965 10.5125C-50.0135 10.6526 -43.5269 11.0209 -37.2976 11.3744C-28.0971 11.8964 -19.4564 12.3871 -11.889 12.0681C-6.84204 11.8547 -1.48843 12.2121 3.84756 12.5685C11.0018 13.0464 18.1325 13.5234 24.5924 12.6221C28.6543 12.0552 32.3824 11.362 35.8331 10.719C41.323 9.69588 46.1136 8.80095 50.4461 8.75293C58.611 8.66304 65.7353 7.9284 71.9748 7.28018C79.487 6.5006 85.7753 5.84642 91.288 6.59311C92.1236 6.70631 93.0798 6.85629 94.1558 7.02673C99.8427 7.92515 108.834 9.3617 121.974 8.63391C126.636 8.37463 131.011 7.67436 135.291 6.98716C141.522 5.98679 147.564 5.01576 154.019 5.47926C154.983 5.54864 155.989 5.82883 156.905 6.08478C158.069 6.4102 159.085 6.69426 159.689 6.45227C161.458 5.74248 164.266 4.9609 167.312 4.11026C169.563 3.48537 171.965 2.82292 174.171 2.12644C191.012 1.78639 207.776 1.46288 224.463 1.15952C232.195 1.02065 239.911 0.885868 247.61 0.755236C251.544 1.84658 255.563 2.8314 259.802 3.58061C265.349 4.55976 272.503 4.87848 281.759 5.29139C288.628 5.59541 296.619 5.95086 305.882 6.65467C323.028 7.95735 340.522 7.73904 351.908 7.11168C354.302 6.97894 356.707 6.83671 359.275 6.68189C369.08 6.09484 380.948 5.35823 404.213 4.58136C426.15 3.84628 444.421 3.69959 458.544 3.59079C465.687 3.53502 471.6 3.49073 476.125 3.38015C483.902 3.19105 493.224 3.03102 502.904 2.8725C517.972 2.62412 532.986 2.37513 541.45 2.00264C544.479 1.87009 547.576 1.70379 551.071 1.52676C560.679 1.03594 572.254 0.443682 588.037 0.13365C604.449 -0.192324 615.117 0.10726 625.766 0.713877C630.12 0.960558 633.949 1.88856 637.884 2.84728C643.484 4.20779 649.207 5.62732 657.262 5.23852C659.128 5.14767 661.117 4.93684 663.194 4.71557C667.01 4.30912 671.127 3.86836 675.328 4.08302C676.793 4.1579 678.081 4.41075 679.343 4.65861C680.731 4.93128 682.091 5.19787 683.631 5.21799C689.393 5.29295 694.923 5.25088 699.921 5.21324C706.436 5.16494 711.866 5.12489 715.229 5.35399C721.225 5.76265 727.755 5.43956 734.333 5.11048C739.381 4.8592 744.333 4.60304 749.359 4.67205C763.732 4.86959 782.804 4.27816 802.99 3.25116C810.62 2.86287 817.045 3.45458 825.218 4.21413C830.344 4.68672 835.903 5.22532 843.292 5.63184C847.433 5.86204 850.928 5.36865 854.155 4.91284C857.128 4.4929 859.876 4.10468 862.685 4.33998C865.164 4.548 866.725 5.40489 868.206 6.21875C869.854 7.12444 871.404 7.9763 873.994 7.82076C875.373 7.73796 877.047 7.31841 879.035 6.81993C879.82 6.62279 880.659 6.41417 881.545 6.2078C881.499 6.38028 881.487 6.53461 881.486 6.65144C881.461 7.4771 884.15 7.92189 886.803 8.35772C887.86 8.53172 888.912 8.70359 889.774 8.89847C892.952 9.6157 898.946 9.75268 903.495 9.73679C905.422 9.7303 907.162 9.99277 909.189 10.2991C910.989 10.5711 913.013 10.8781 915.588 11.0617C917.057 11.1664 918.181 11.4099 919.111 11.6132C919.784 11.7603 920.356 11.8861 920.887 11.9205C921.346 11.9501 921.718 11.7148 922.136 11.4498C922.436 11.259 922.763 11.0524 923.163 10.9181C924.125 10.5975 925.331 10.5042 926.237 10.6118C926.647 10.6614 926.971 10.7548 927.292 10.8476C927.666 10.9558 928.038 11.0648 928.552 11.1043C930.906 11.2856 933.191 11.0241 935.559 10.7525C938.161 10.4541 940.867 10.144 943.866 10.3942C944.809 10.473 945.813 10.6493 946.784 10.8204C947.8 10.9994 948.785 11.1722 949.623 11.2205C953.024 11.4161 956.21 10.8376 959.13 10.3055C961.072 9.9516 962.9 9.61872 964.592 9.54717C967.649 9.41634 969.471 8.71439 970.715 8.19576C971.371 7.92708 971.907 7.70638 972.467 7.64112C972.98 7.6628 973.5 7.68822 974.009 7.71567C974.476 7.76957 974.959 7.82519 975.411 7.80974C975.445 7.80856 975.479 7.80563 975.513 7.8044C978.359 7.98699 981.143 8.24123 983.899 8.49477C990.089 9.06422 996.154 9.62768 1002.51 9.34728C1003.88 9.28683 1005.27 8.99943 1006.69 8.70747C1008.49 8.35001 1010.33 7.98439 1012.19 8.01833C1016.64 8.09925 1021.09 8.59905 1025.45 9.09144C1032.01 9.83202 1038.35 10.5551 1044.13 9.81059C1046.03 9.56482 1048.02 9.15099 1049.94 8.73349C1051.02 8.50085 1052.1 8.26622 1053.19 8.06169C1052.96 8.44845 1052.83 8.81192 1052.72 9.15088C1052.48 9.84951 1052.27 10.4474 1051.22 10.952C1048.75 12.1444 1045.92 13.7881 1046.23 14.996C1046.31 15.3239 1046.24 15.6883 1046.16 16.0553C1045.97 16.976 1045.78 17.9162 1048.08 18.3507C1049.64 18.6435 1053.61 19.3174 1056.13 18.6225C1056.68 18.4711 1057.01 18.168 1057.39 17.8313C1058.05 17.2262 1058.85 16.5097 1061.22 16.3514C1061.62 16.3248 1062.06 16.3011 1062.51 16.2791C1064.29 16.1916 1066.29 16.0951 1067.03 15.6095C1067.89 15.0501 1067.71 14.405 1067.5 13.6527C1067.23 12.6729 1066.9 11.5092 1068.75 10.1153C1069.12 9.83976 1069.81 9.7476 1070.34 9.67766C1070.71 9.6284 1070.99 9.58886 1071.02 9.50564C1071.05 9.41003 1070.93 9.21039 1070.78 8.95779C1070.26 8.06661 1069.35 6.50956 1073.18 6.45869C1074.22 6.44509 1075.4 6.52368 1076.46 6.59466C1078.02 6.69925 1079.31 6.78556 1079.49 6.53206C1079.55 6.43588 1079.6 6.33155 1079.64 6.22339C1080.88 6.25881 1082.09 6.2941 1083.4 6.3298C1085.05 6.63931 1087.37 6.62247 1090.24 6.6001C1090.93 6.59467 1091.67 6.59004 1092.43 6.58869C1094.94 6.66132 1097.44 6.73357 1099.93 6.80734C1101.9 6.94366 1103.99 7.16127 1106.19 7.50224C1110.61 8.18559 1114.35 9.29863 1118.1 10.3875C1119.73 10.8464 1121.34 11.302 1122.96 11.7184C1122.33 11.7663 1121.75 11.8235 1121.31 11.9037C1118.29 12.4525 1117.05 13.5511 1116 14.5627C1115.29 15.2356 1114.61 15.87 1113.5 16.2766C1111.45 17.0216 1111.65 17.9031 1111.8 18.555C1111.88 18.8931 1111.93 19.1701 1111.66 19.3333C1111.44 19.4641 1110.93 19.524 1110.41 19.5861C1109.95 19.6401 1109.48 19.6967 1109.17 19.8016C1105.49 21.0763 1106.59 21.8291 1108.2 22.9248C1109.08 23.529 1110.11 24.2381 1110.58 25.1965C1110.99 26.2108 1110.85 26.5065 1108.92 26.9023C1110.42 27.4084 1111.92 27.9145 1113.41 28.4206C1113.99 28.3905 1114.44 28.0795 1115.06 27.5624C1116.13 26.6388 1119.91 26.3148 1122.84 26.0615C1124.2 25.9443 1125.38 25.8417 1126.05 25.7021C1129.58 24.9596 1128.55 23.9018 1127.66 22.971C1127.16 22.4587 1126.7 21.9845 1127.06 21.6227C1127.22 21.468 1127 21.313 1126.78 21.1548C1126.61 21.0326 1126.44 20.9083 1126.43 20.7812C1126.39 19.8577 1128.48 19.1807 1130.41 18.5521C1131.52 18.1921 1132.57 17.8467 1133.15 17.4807C1133.33 17.3692 1133.47 17.2552 1133.6 17.1446C1133.79 16.9831 1133.98 16.8291 1134.27 16.6977C1134.94 16.3985 1136.31 16.2005 1137.81 15.9847C1138.58 15.874 1139.38 15.7585 1140.14 15.6218C1141.12 15.4446 1141.47 15.0809 1141.84 14.7009C1142.11 14.4324 1142.38 14.1558 1142.89 13.9291C1143.8 13.5192 1145.64 13.3773 1147.34 13.2456C1148.09 13.1883 1148.8 13.1312 1149.4 13.0564C1149.65 13.0259 1149.77 12.9636 1149.79 12.8775C1152.59 12.5999 1155.46 12.3164 1158.12 12.0381C1171.62 10.6437 1182.68 9.4323 1200.1 10.4165C1203.33 10.6024 1206.76 10.5825 1210.2 10.4592C1211.17 10.4955 1212.15 10.532 1213.12 10.5685C1223.74 10.9455 1233.75 11.3301 1243.94 11.7241C1246.23 12.566 1249 13.2769 1252.25 13.8394C1258.41 14.896 1264.23 15.1418 1271.77 15.4354C1277.33 15.6524 1283.41 15.8944 1290.28 16.5046C1302.37 17.5325 1314 18.4093 1328.1 18.9049C1341.41 19.3947 1357.15 19.7873 1368.44 19.9575C1374.35 20.049 1380.77 20.8273 1386.69 21.5521C1394.68 22.5696 1402.6 23.4875 1406.94 22.2461C1408.38 21.8498 1409.62 21.1544 1411.1 20.4804C1412.12 20.0002 1413.11 19.5313 1414.07 19.1833C1416.62 19.3081 1419.13 19.4316 1421.57 19.5571C1425.76 20.4261 1433.09 21.3757 1439.58 20.4767C1442.26 20.6103 1444.86 20.7431 1447.3 20.8767C1452.6 21.1577 1458.08 21.4445 1463.43 21.7342C1465.24 21.8303 1467.02 21.9265 1468.75 22.0231C1468.77 22.0241 1468.79 22.0252 1468.8 22.0263C1472.1 22.2192 1476.18 22.4205 1479.47 22.6179C1480.92 22.7024 1482.61 22.7893 1484.11 22.8749C1487.8 23.091 1491.97 23.3141 1495.58 23.537C1497.73 23.6577 1499.72 23.7771 1501.68 23.8987C1503.45 23.9994 1505.12 24.1 1506.68 24.2006C1508.41 24.3034 1510.12 24.4073 1511.66 24.5109C1517.04 24.8583 1522.43 25.1852 1527.84 25.6648C1528.7 25.7471 1529.6 25.9375 1530.24 26.2181C1530.92 26.5013 1531.28 26.8607 1531.2 27.1235C1531.16 27.3997 1530.72 27.5717 1530.08 27.7212C1529.46 27.8694 1528.58 27.9578 1527.73 27.9646C1522.38 28.0216 1516.96 28.2223 1511.59 28.3989C1510.05 28.4574 1508.33 28.5153 1506.6 28.5742C1505.04 28.635 1503.38 28.6954 1501.61 28.7547C1499.65 28.8304 1497.66 28.9051 1495.5 28.98C1491.89 29.1253 1487.72 29.2681 1484.02 29.4147C1482.53 29.4724 1480.82 29.5286 1479.39 29.5873C1476.09 29.7253 1471.99 29.8567 1468.69 29.9949C1468.67 29.9957 1468.64 29.9965 1468.62 29.9973C1466.9 30.0645 1465.13 30.1317 1463.33 30.1983C1457.98 30.402 1452.48 30.6045 1447.19 30.807C1444.44 30.917 1441.48 31.0231 1438.43 31.1305C1436.8 31.1907 1435.29 31.2521 1433.71 31.3124C1432.86 31.3444 1431.98 31.376 1431.09 31.4077C1410.75 32.1616 1390.62 32.8974 1370.22 33.6032C1349.74 34.3087 1329.68 34.9896 1309.32 35.6416C1288.67 36.2924 1268.71 36.9181 1248.4 37.5157C1236.29 37.86 1225.26 38.2033 1213 38.5351C1096.11 41.8699 978.382 44.5666 860.777 46.1667C842.144 46.4195 823.457 46.6408 804.839 46.8327C785.847 47.0234 768.055 47.1894 748.994 47.3177C743.236 47.3586 737.55 47.3958 731.566 47.4297Z" fill="#E6F4FD"/>
</svg>
