<svg width="103" height="36" viewBox="0 0 103 36" fill="none" xmlns="http://www.w3.org/2000/svg">
<g clip-path="url(#clip0_81_377)">
<path d="M27.5625 0H8.4375C3.7776 0 0 3.7776 0 8.4375V27.5625C0 32.2224 3.7776 36 8.4375 36H27.5625C32.2224 36 36 32.2224 36 27.5625V8.4375C36 3.7776 32.2224 0 27.5625 0Z" fill="#242938"/>
<mask id="mask0_81_377" style="mask-type:luminance" maskUnits="userSpaceOnUse" x="8" y="3" width="20" height="30">
<path d="M8.57812 3.9375H27.3319V32.0625H8.57812V3.9375Z" fill="white"/>
</mask>
<g mask="url(#mask0_81_377)">
<path d="M13.2676 32.0624C15.8551 32.0624 17.955 29.9625 17.955 27.375V22.6874H13.2676C10.6801 22.6874 8.57996 24.7875 8.57996 27.375C8.57996 29.9625 10.6801 32.0624 13.2676 32.0624Z" fill="#0ACF83"/>
<path d="M8.57996 18.0001C8.57996 15.4126 10.6801 13.3126 13.2676 13.3126H17.955V22.6875H13.2676C10.6801 22.6875 8.57996 20.5876 8.57996 18.0001Z" fill="#A259FF"/>
<path d="M8.57983 8.62495C8.57983 6.03745 10.6799 3.9375 13.2674 3.9375H17.9549V13.3125H13.2674C10.6799 13.3125 8.57983 11.2125 8.57983 8.62495Z" fill="#F24E1E"/>
<path d="M17.955 3.9375H22.6424C25.2299 3.9375 27.33 6.03745 27.33 8.62495C27.33 11.2125 25.2299 13.3125 22.6424 13.3125H17.955V3.9375Z" fill="#FF7262"/>
<path d="M27.33 18.0001C27.33 20.5876 25.2299 22.6875 22.6424 22.6875C20.0549 22.6875 17.955 20.5876 17.955 18.0001C17.955 15.4126 20.0549 13.3126 22.6424 13.3126C25.2299 13.3126 27.33 15.4126 27.33 18.0001Z" fill="#1ABCFE"/>
</g>
</g>
<path d="M45.4347 25V10.4545H54.7528V12.6634H48.0696V16.6122H54.1136V18.821H48.0696V25H45.4347ZM57.0398 25V14.0909H59.6108V25H57.0398ZM58.3324 12.5426C57.9252 12.5426 57.5748 12.4077 57.2812 12.1378C56.9877 11.8632 56.8409 11.5341 56.8409 11.1506C56.8409 10.7623 56.9877 10.4332 57.2812 10.1634C57.5748 9.88873 57.9252 9.75142 58.3324 9.75142C58.7443 9.75142 59.0947 9.88873 59.3835 10.1634C59.6771 10.4332 59.8239 10.7623 59.8239 11.1506C59.8239 11.5341 59.6771 11.8632 59.3835 12.1378C59.0947 12.4077 58.7443 12.5426 58.3324 12.5426ZM66.9989 29.3182C66.0756 29.3182 65.2826 29.1927 64.6197 28.9418C63.9568 28.6955 63.4241 28.3641 63.0217 27.9474C62.6192 27.5308 62.3398 27.0691 62.1836 26.5625L64.4989 26.0014C64.6031 26.2145 64.7546 26.4252 64.9535 26.6335C65.1523 26.8466 65.4199 27.0218 65.756 27.1591C66.0969 27.3011 66.5254 27.3722 67.0415 27.3722C67.7707 27.3722 68.3744 27.1946 68.8526 26.8395C69.3308 26.4891 69.57 25.9115 69.57 25.1065V23.0398H69.4421C69.3095 23.3049 69.1154 23.5772 68.8597 23.8565C68.6088 24.1359 68.275 24.3703 67.8583 24.5597C67.4464 24.7491 66.9279 24.8438 66.3029 24.8438C65.4648 24.8438 64.7049 24.6473 64.0231 24.2543C63.346 23.8565 62.8062 23.2647 62.4038 22.4787C62.006 21.688 61.8072 20.6984 61.8072 19.5099C61.8072 18.312 62.006 17.3011 62.4038 16.4773C62.8062 15.6487 63.3484 15.0213 64.0302 14.5952C64.712 14.1643 65.4719 13.9489 66.31 13.9489C66.9492 13.9489 67.4748 14.0578 67.8867 14.2756C68.3034 14.4886 68.6348 14.7467 68.881 15.0497C69.1272 15.348 69.3143 15.6297 69.4421 15.8949H69.5842V14.0909H72.1197V25.1776C72.1197 26.1103 71.8971 26.8821 71.4521 27.4929C71.007 28.1037 70.3986 28.5606 69.6268 28.8636C68.855 29.1667 67.979 29.3182 66.9989 29.3182ZM67.0202 22.8267C67.5647 22.8267 68.0288 22.6941 68.4123 22.429C68.7958 22.1638 69.087 21.7827 69.2859 21.2855C69.4847 20.7884 69.5842 20.1918 69.5842 19.4957C69.5842 18.8092 69.4847 18.2079 69.2859 17.6918C69.0917 17.1757 68.8029 16.7756 68.4194 16.4915C68.0406 16.2027 67.5742 16.0582 67.0202 16.0582C66.4473 16.0582 65.9691 16.2074 65.5856 16.5057C65.2021 16.804 64.9132 17.2135 64.7191 17.7344C64.525 18.2505 64.4279 18.8376 64.4279 19.4957C64.4279 20.1634 64.525 20.7481 64.7191 21.25C64.918 21.7472 65.2092 22.1354 65.5927 22.4148C65.9809 22.6894 66.4568 22.8267 67.0202 22.8267ZM74.7546 25V14.0909H77.212V15.9446H77.3398C77.5671 15.3196 77.9435 14.8319 78.4691 14.4815C78.9947 14.1264 79.622 13.9489 80.3512 13.9489C81.0898 13.9489 81.7125 14.1288 82.2191 14.4886C82.7305 14.8437 83.0903 15.3291 83.2987 15.9446H83.4123C83.6538 15.3385 84.061 14.8556 84.6339 14.4957C85.2115 14.1312 85.8957 13.9489 86.6864 13.9489C87.6902 13.9489 88.5094 14.2661 89.1438 14.9006C89.7783 15.535 90.0955 16.4607 90.0955 17.6776V25H87.5174V18.0753C87.5174 17.3982 87.3375 16.9034 86.9776 16.5909C86.6178 16.2737 86.1774 16.1151 85.6566 16.1151C85.0363 16.1151 84.551 16.3092 84.2006 16.6974C83.855 17.081 83.6822 17.5805 83.6822 18.196V25H81.1609V17.9688C81.1609 17.4053 80.9904 16.9555 80.6495 16.6193C80.3133 16.2831 79.873 16.1151 79.3285 16.1151C78.9592 16.1151 78.623 16.2098 78.32 16.3991C78.0169 16.5838 77.7754 16.8466 77.5955 17.1875C77.4156 17.5237 77.3256 17.9167 77.3256 18.3665V25H74.7546ZM95.843 25.2202C95.1518 25.2202 94.5291 25.0971 93.9751 24.8509C93.4259 24.5999 92.9903 24.2306 92.6683 23.7429C92.3511 23.2552 92.1925 22.6539 92.1925 21.9389C92.1925 21.3234 92.3061 20.8144 92.5334 20.4119C92.7607 20.0095 93.0708 19.6875 93.4638 19.446C93.8568 19.2045 94.2995 19.0223 94.7919 18.8991C95.2891 18.7713 95.8028 18.679 96.3331 18.6222C96.9723 18.5559 97.4908 18.4967 97.8885 18.4446C98.2862 18.3878 98.575 18.3026 98.755 18.1889C98.9396 18.0705 99.032 17.8883 99.032 17.642V17.5994C99.032 17.0644 98.8733 16.6501 98.5561 16.3565C98.2389 16.063 97.782 15.9162 97.1854 15.9162C96.5556 15.9162 96.0561 16.0535 95.6868 16.3281C95.3222 16.6027 95.076 16.9271 94.9482 17.3011L92.5476 16.9602C92.737 16.2973 93.0495 15.7434 93.4851 15.2983C93.9207 14.8485 94.4534 14.5123 95.0831 14.2898C95.7128 14.0625 96.4089 13.9489 97.1712 13.9489C97.6967 13.9489 98.2199 14.0104 98.7408 14.1335C99.2616 14.2566 99.7375 14.4602 100.168 14.7443C100.599 15.0237 100.945 15.4048 101.205 15.8878C101.47 16.3707 101.603 16.9744 101.603 17.6989V25H99.1314V23.5014H99.0462C98.8899 23.8045 98.6697 24.0885 98.3857 24.3537C98.1063 24.6141 97.7536 24.8248 97.3274 24.9858C96.906 25.142 96.4112 25.2202 95.843 25.2202ZM96.5107 23.331C97.0268 23.331 97.4742 23.2292 97.853 23.0256C98.2318 22.8172 98.523 22.5426 98.7266 22.2017C98.9349 21.8608 99.0391 21.4891 99.0391 21.0866V19.8011C98.9586 19.8674 98.8213 19.929 98.6271 19.9858C98.4377 20.0426 98.2247 20.0923 97.9879 20.1349C97.7512 20.1776 97.5168 20.2154 97.2848 20.2486C97.0528 20.2817 96.8516 20.3101 96.6811 20.3338C96.2976 20.3859 95.9543 20.4711 95.6513 20.5895C95.3482 20.7079 95.1091 20.8736 94.9339 21.0866C94.7588 21.295 94.6712 21.5649 94.6712 21.8963C94.6712 22.3698 94.844 22.7273 95.1896 22.9688C95.5353 23.2102 95.9756 23.331 96.5107 23.331Z" fill="#323330"/>
<defs>
<clipPath id="clip0_81_377">
<rect width="36" height="36" fill="white"/>
</clipPath>
</defs>
</svg>
