<svg width="76" height="39" viewBox="0 0 76 39" fill="none" xmlns="http://www.w3.org/2000/svg">
<g clip-path="url(#clip0_81_381)">
<path d="M9.44068 30.2182C9.44068 30.2182 7.96252 31.0697 10.4944 31.3575C13.5614 31.7042 15.1292 31.6543 18.5086 31.022C18.5086 31.022 19.3993 31.5732 20.6398 32.0508C13.0618 35.2648 3.48889 31.8646 9.44068 30.2182ZM8.5139 26.023C8.5139 26.023 6.8557 27.239 9.38937 27.4983C12.6662 27.833 15.2529 27.8606 19.7324 27.0069C19.7324 27.0069 20.3504 27.6289 21.324 27.968C12.1634 30.621 1.95987 28.177 8.5139 26.023Z" fill="#0074BD"/>
<path d="M16.3201 18.9064C18.1885 21.0354 15.8304 22.9497 15.8304 22.9497C15.8304 22.9497 20.5714 20.527 18.3942 17.4922C16.3602 14.6632 14.8015 13.2583 23.2424 8.4121C23.2424 8.4121 9.99205 11.6871 16.3201 18.9064Z" fill="#EA2D2E"/>
<path d="M26.3427 33.3214C26.3427 33.3214 27.4374 34.2148 25.1373 34.9054C20.7641 36.2168 6.93314 36.6124 3.09146 34.9576C1.71143 34.3627 4.3009 33.5375 5.11515 33.3642C5.96451 33.1819 6.44972 33.2153 6.44972 33.2153C4.91395 32.1446 -3.47743 35.318 2.18764 36.2284C17.6372 38.7071 30.3496 35.1117 26.3427 33.3214ZM10.1523 21.6765C10.1523 21.6765 3.11757 23.331 7.66142 23.9325C9.58068 24.1865 13.4039 24.1281 16.9679 23.8323C19.8796 23.5903 22.8017 23.073 22.8017 23.073C22.8017 23.073 21.7759 23.5088 21.0328 24.0105C13.8878 25.8708 0.0878858 25.0041 4.061 23.1024C7.42016 21.4934 10.1523 21.6765 10.1523 21.6765ZM22.7725 28.6588C30.035 24.9239 26.6767 21.3343 24.333 21.8178C23.76 21.9363 23.5025 22.0388 23.5025 22.0388C23.5025 22.0388 23.7163 21.7073 24.1228 21.5651C28.7598 19.9521 32.3251 26.3244 22.6275 28.8482C22.6275 28.8482 22.7387 28.7484 22.7725 28.6588Z" fill="#0074BD"/>
<path d="M18.3947 0.584778C18.3947 0.584778 22.4164 4.56784 14.5796 10.6915C8.29514 15.6049 13.1464 18.4058 14.5769 21.6073C10.9085 18.3305 8.21773 15.4458 10.0227 12.7616C12.6734 8.82181 20.0169 6.91071 18.3947 0.584778Z" fill="#EA2D2E"/>
<path d="M10.8666 38.7826C17.8361 39.2238 28.542 38.5371 28.7954 35.2723C28.7954 35.2723 28.3083 36.5097 23.0344 37.4918C17.0849 38.6004 9.74585 38.4716 5.3942 37.7605C5.3942 37.7605 6.28541 38.4912 10.8666 38.7826Z" fill="#0074BD"/>
</g>
<path d="M74.1286 16.3582H73.8752V16.2164H74.5572V16.3582H74.3048V17.0654H74.1281L74.1286 16.3582ZM75.4899 16.3937H75.4867L75.2354 17.0654H75.1194L74.8697 16.3937H74.867V17.0654H74.6995V16.2164H74.9449L75.1763 16.8173L75.4083 16.2164H75.6521V17.0654H75.4899V16.3937ZM51.7606 24.3356C50.9766 25.0155 50.1475 25.3978 49.4027 25.3978C48.3427 25.3978 47.7676 24.7609 47.7676 23.7412C47.7676 22.6377 48.383 21.8295 50.8488 21.8295H51.7601L51.7606 24.3356ZM53.9252 26.7778V19.2187C53.9252 17.2861 52.8228 16.0113 50.1679 16.0113C48.6182 16.0113 47.2596 16.3947 46.155 16.8823L46.4729 18.221C47.3428 17.9015 48.4678 17.6051 49.5719 17.6051C51.1023 17.6051 51.7601 18.221 51.7601 19.4958V20.4511H50.9954C47.2789 20.4511 45.6019 21.8929 45.6019 24.0612C45.6019 25.9294 46.7071 26.991 48.7879 26.991C50.125 26.991 51.1243 26.439 52.057 25.6308L52.2267 26.7784L53.9252 26.7778ZM61.1487 26.7778H58.4493L55.2 16.2052H57.5579L59.5748 22.7021L60.0232 24.6541C61.0413 21.8306 61.763 18.9642 62.1238 16.2057H64.4173C63.8035 19.6859 62.6973 23.5076 61.1487 26.7778ZM71.506 24.3356C70.7193 25.0155 69.8897 25.3978 69.1476 25.3978C68.0865 25.3978 67.5119 24.7609 67.5119 23.7412C67.5119 22.6377 68.1289 21.8295 70.5921 21.8295H71.5055L71.506 24.3356ZM73.6717 26.7778V19.2187C73.6717 17.2861 72.566 16.0113 69.9133 16.0113C68.362 16.0113 67.004 16.3947 65.8994 16.8823L66.2178 18.221C67.0877 17.9015 68.2143 17.6051 69.3183 17.6051C70.8466 17.6051 71.506 18.221 71.506 19.4958V20.4511H70.7414C67.0238 20.4511 65.3474 21.8929 65.3474 24.0612C65.3474 25.9294 66.4514 26.991 68.5317 26.991C69.8693 26.991 70.867 26.439 71.8024 25.6308L71.9732 26.7784L73.6717 26.7778ZM43.2285 28.5746C42.6126 29.4762 41.6148 30.1898 40.5237 30.592L39.4556 29.3328C40.2863 28.9064 40.9978 28.2186 41.3292 27.5774C41.6148 27.0066 41.7335 26.2725 41.7335 24.5161V12.4436H44.0339V24.3501C44.0339 26.6994 43.8471 27.6494 43.2285 28.5746Z" fill="#EA2D2E"/>
<defs>
<clipPath id="clip0_81_381">
<rect width="29" height="39" fill="white"/>
</clipPath>
</defs>
</svg>
