<svg width="44" height="21" viewBox="0 0 44 21" fill="none" xmlns="http://www.w3.org/2000/svg">
<path d="M1.03888 0.583402C0.49402 0.61663 0.0294951 1.09585 0.00133264 1.65376C-0.0268298 2.21168 0.392034 2.63702 0.936892 2.60379L0.987885 1.5936L1.03888 0.583402ZM1.08654 1.58758L1.03555 2.59778L1.08766 2.5946L1.13977 2.58582L1.08654 1.58758ZM14.1441 1.39927L13.7973 2.38039L14.1441 1.39927ZM16.9293 2.09141L16.6143 3.08043L16.9293 2.09141ZM19.7473 2.66672L19.4736 3.66419L19.7473 2.66672ZM25.0002 4.75135L24.4068 5.62281L25.0002 4.75135ZM30.0941 7.19122L30.7573 6.37045L30.0941 7.19122ZM32.4128 8.79406L32.9723 7.90159L32.4128 8.79406ZM38.5663 14.5534L39.2954 13.792L38.5663 14.5534ZM40.5452 16.5645L39.8066 17.3163L40.5452 16.5645ZM42.8969 19.5652L43.6808 20.0883L43.8397 19.8592L43.8755 19.5918L42.8969 19.5652ZM42.9237 19.365L43.6746 18.6262L42.2462 17.0871L41.9451 19.3385L42.9237 19.365ZM42.237 20.173C42.5914 20.5549 43.215 20.5338 43.6297 20.1258C44.0445 19.7178 44.0933 19.0774 43.7388 18.6954L42.9879 19.4342L42.237 20.173ZM0.987885 1.5936L0.936892 2.60379L1.03555 2.59778L1.08654 1.58758L1.13753 0.577385L1.03888 0.583402L0.987885 1.5936ZM1.08654 1.58758L1.13977 2.58582C3.01731 2.26936 4.3504 2.17254 5.19418 2.25155L5.39122 1.24363L5.58826 0.235708C4.49143 0.133014 2.95473 0.265498 1.03331 0.589346L1.08654 1.58758ZM5.39122 1.24363L5.19418 2.25155C6.23389 2.34889 7.284 2.32961 8.3433 2.19365L8.32899 1.18964L8.31468 0.185624C7.39757 0.30334 6.48917 0.320057 5.58826 0.235708L5.39122 1.24363ZM8.32899 1.18964L8.3433 2.19365C9.28722 2.07249 10.2274 2.01622 11.164 2.02482L11.2823 1.01287L11.4006 0.00092669C10.3759 -0.0084754 9.34716 0.0530998 8.31468 0.185624L8.32899 1.18964ZM11.2823 1.01287L11.164 2.02482C12.0663 2.0331 12.9435 2.1515 13.7973 2.38039L14.1441 1.39927L14.4909 0.418138C13.4902 0.149836 12.4595 0.0106438 11.4006 0.00092669L11.2823 1.01287ZM14.1441 1.39927L13.7973 2.38039C14.7349 2.63179 15.6739 2.86513 16.6143 3.08043L16.9293 2.09141L17.2443 1.10238C16.3255 0.892018 15.4077 0.66394 14.4909 0.418138L14.1441 1.39927ZM16.9293 2.09141L16.6143 3.08043C17.5576 3.29642 18.5108 3.491 19.4736 3.66419L19.7473 2.66672L20.0209 1.66924C19.0856 1.50101 18.1601 1.31205 17.2443 1.10238L16.9293 2.09141ZM19.7473 2.66672L19.4736 3.66419C20.3639 3.82433 21.2214 4.06912 22.0469 4.3987L22.4913 3.45L22.9358 2.5013C22.0006 2.12792 21.0287 1.85052 20.0209 1.66924L19.7473 2.66672ZM22.4913 3.45L22.0469 4.3987C22.8746 4.72918 23.6611 5.13706 24.4068 5.62281L25.0002 4.75135L25.5936 3.87988C24.7548 3.33345 23.8687 2.87377 22.9358 2.5013L22.4913 3.45ZM25.0002 4.75135L24.4068 5.62281C25.2732 6.18719 26.2181 6.61099 27.2388 6.89404L27.5929 5.9149L27.947 4.93576C27.0953 4.69958 26.3118 4.34768 25.5936 3.87988L25.0002 4.75135ZM27.5929 5.9149L27.2388 6.89404C28.063 7.1226 28.7916 7.49503 29.4309 8.01198L30.0941 7.19122L30.7573 6.37045C29.9341 5.70487 28.9952 5.22642 27.947 4.93576L27.5929 5.9149ZM30.0941 7.19122L29.4309 8.01198C30.195 8.62973 31.0025 9.18796 31.8533 9.68652L32.4128 8.79406L32.9723 7.90159C32.1941 7.44557 31.4558 6.93524 30.7573 6.37045L30.0941 7.19122ZM32.4128 8.79406L31.8533 9.68652C32.5903 10.1184 33.2426 10.6559 33.8122 11.3011L34.5773 10.578L35.3424 9.85482C34.655 9.07611 33.8644 8.42435 32.9723 7.90159L32.4128 8.79406ZM34.5773 10.578L33.8122 11.3011C34.4585 12.0333 35.1336 12.7276 35.8375 13.3838L36.5454 12.6018L37.2532 11.8199C36.5899 11.2015 35.953 10.5465 35.3424 9.85482L34.5773 10.578ZM36.5454 12.6018L35.8375 13.3838C36.5138 14.0143 37.1804 14.658 37.8372 15.3148L38.5663 14.5534L39.2954 13.792C38.6248 13.1213 37.944 12.4639 37.2532 11.8199L36.5454 12.6018ZM38.5663 14.5534L37.8372 15.3148C38.4977 15.9754 39.1542 16.6426 39.8066 17.3163L40.5452 16.5645L41.2838 15.8127C40.6251 15.1325 39.9623 14.459 39.2954 13.792L38.5663 14.5534ZM40.5452 16.5645L39.8066 17.3163C40.4241 17.954 40.9233 18.5947 41.3109 19.2367L42.1672 18.6381L43.0236 18.0394C42.5594 17.2705 41.9773 16.5288 41.2838 15.8127L40.5452 16.5645ZM42.1672 18.6381L41.3109 19.2367C41.527 19.5948 41.717 19.8868 41.8732 20.0853C41.942 20.1727 42.0506 20.303 42.1871 20.4026C42.2438 20.444 42.4075 20.5586 42.6533 20.5858C42.7931 20.6012 42.9856 20.5909 43.1959 20.4956C43.4123 20.3975 43.5734 20.2431 43.6808 20.0883L42.8969 19.5652L42.1131 19.0421C42.2129 18.8983 42.3649 18.7517 42.5709 18.6584C42.7708 18.5678 42.9514 18.5591 43.0779 18.573C43.2972 18.5973 43.4286 18.6966 43.4473 18.7102C43.5079 18.7544 43.5177 18.7798 43.4648 18.7126C43.3778 18.6021 43.2333 18.3868 43.0236 18.0394L42.1672 18.6381ZM42.8969 19.5652L43.8755 19.5918L43.9023 19.3915L42.9237 19.365L41.9451 19.3385L41.9184 19.5387L42.8969 19.5652ZM42.9237 19.365L42.1728 20.1038L42.237 20.173L42.9879 19.4342L43.7388 18.6954L43.6746 18.6262L42.9237 19.365Z" fill="white"/>
</svg>
