<svg width="107" height="166" viewBox="0 0 107 166" fill="none" xmlns="http://www.w3.org/2000/svg">
<path d="M105.606 1.92614C106.117 1.7175 106.363 1.13382 106.154 0.622463C105.946 0.111106 105.362 -0.134293 104.851 0.074349L105.228 1.00024L105.606 1.92614ZM105.136 1.03802L104.758 0.112127L104.745 0.117352L104.733 0.122928L105.136 1.03802ZM101.04 2.5801L101.291 3.54786L101.04 2.5801ZM98.3041 3.75025L98.8303 4.60062L98.3041 3.75025ZM90.4352 7.98946L89.9101 7.13845L90.4352 7.98946ZM83.1616 13.1917L82.6463 12.3346L83.1616 13.1917ZM78.9056 17.3646L79.5312 18.1448L78.9056 17.3646ZM72.1581 23.2383L72.8661 23.9445L72.1581 23.2383ZM67.9888 27.5049L68.7255 28.1812L67.9888 27.5049ZM65.6538 29.3704L65.1538 28.5043L65.6538 29.3704ZM63.485 31.4096L62.6513 30.8573L63.485 31.4096ZM61.4432 33.5877L62.0455 34.3859L61.4432 33.5877ZM59.2647 35.6162L58.511 34.959L59.2647 35.6162ZM55.0486 39.8204L54.1782 39.3282L55.0486 39.8204ZM53.2226 42.1908L52.5274 41.472L53.2226 42.1908ZM41.9565 56.0437L42.732 56.6751L41.9565 56.0437ZM40.5466 58.6642L39.5928 58.3638L40.5466 58.6642ZM39.3226 61.3935L38.465 60.8791L39.3226 61.3935ZM35.3947 69.42L36.3021 69.8404L35.3947 69.42ZM33.8945 72.0077L33.078 71.4303L33.8945 72.0077ZM32.7068 74.7428L31.728 74.5379L32.7068 74.7428ZM31.4637 77.4507L30.6709 76.8412L31.4637 77.4507ZM28.9592 82.8631L29.9285 83.1091L28.9592 82.8631ZM22.5783 96.3267L21.6825 95.8822L22.5783 96.3267ZM21.2696 99.0078L20.3681 98.575L21.2696 99.0078ZM15.5426 112.761L14.6891 112.239L15.5426 112.761ZM14.2621 115.453L15.2053 115.785L14.2621 115.453ZM13.2511 118.257L12.3128 117.911L13.2511 118.257ZM9.49665 129.569L8.54326 129.267L9.49665 129.569ZM8.03643 135.345L9.01214 135.564L8.03643 135.345ZM7.32791 138.239L8.29446 138.495L7.32791 138.239ZM6.561 141.117L7.52702 141.375L6.561 141.117ZM4.81694 146.833L3.83228 146.658L4.81694 146.833ZM1.07773 164.48L0.966417 165.474L1.24336 165.505L1.49644 165.388L1.07773 164.48ZM1.25191 164.4L2.22372 164.636L2.71134 162.626L0.833197 163.492L1.25191 164.4ZM0.256525 164.261C0.12631 164.798 0.455844 165.339 0.992558 165.469C1.52927 165.599 2.06993 165.27 2.20014 164.733L1.22833 164.497L0.256525 164.261ZM105.228 1.00024L104.851 0.074349L104.758 0.112127L105.136 1.03802L105.514 1.96392L105.606 1.92614L105.228 1.00024ZM105.136 1.03802L104.733 0.122928C102.987 0.89224 101.68 1.38008 100.788 1.61235L101.04 2.5801L101.291 3.54786C102.342 3.27432 103.767 2.73411 105.539 1.95312L105.136 1.03802ZM101.04 2.5801L100.788 1.61235C99.7195 1.89039 98.7152 2.31995 97.7779 2.89988L98.3041 3.75025L98.8303 4.60062C99.5971 4.12616 100.416 3.77562 101.291 3.54786L101.04 2.5801ZM98.3041 3.75025L97.7779 2.89988C96.9355 3.42119 96.0891 3.92534 95.2387 4.41236L95.7357 5.28011L96.2327 6.14786C97.1029 5.64946 97.9688 5.13371 98.8303 4.60062L98.3041 3.75025ZM95.7357 5.28011L95.2387 4.41236C94.4109 4.88652 93.5571 5.31414 92.6772 5.69525L93.0746 6.61287L93.4721 7.5305C94.4198 7.12 95.3401 6.65911 96.2327 6.14786L95.7357 5.28011ZM93.0746 6.61287L92.6772 5.69525C91.7193 6.11012 90.7968 6.59124 89.9101 7.13845L90.4352 7.98946L90.9604 8.84047C91.7652 8.34385 92.6023 7.90723 93.4721 7.5305L93.0746 6.61287ZM90.4352 7.98946L89.9101 7.13845C89.0225 7.68617 88.1791 8.29658 87.3801 8.96943L88.0243 9.73432L88.6684 10.4992C89.3925 9.88942 90.1564 9.3366 90.9604 8.84047L90.4352 7.98946ZM88.0243 9.73432L87.3801 8.96943C86.6399 9.59279 85.8768 10.1826 85.0908 10.7389L85.6686 11.5551L86.2463 12.3714C87.0782 11.7826 87.8856 11.1585 88.6684 10.4992L88.0243 9.73432ZM85.6686 11.5551L85.0908 10.7389C84.3025 11.2969 83.4877 11.8288 82.6463 12.3346L83.1616 13.1917L83.6768 14.0487C84.5602 13.5176 85.4167 12.9585 86.2463 12.3714L85.6686 11.5551ZM83.1616 13.1917L82.6463 12.3346C81.6686 12.9225 80.8387 13.6832 80.1614 14.6103L80.9689 15.2002L81.7764 15.7901C82.298 15.0761 82.9299 14.4978 83.6768 14.0487L83.1616 13.1917ZM80.9689 15.2002L80.1614 14.6103C79.6128 15.3612 78.9859 16.0184 78.28 16.5845L78.9056 17.3646L79.5312 18.1448C80.3775 17.466 81.1261 16.6802 81.7764 15.7901L80.9689 15.2002ZM78.9056 17.3646L78.28 16.5845C77.4629 17.2397 76.7008 17.9561 75.9938 18.7332L76.7335 19.4061L77.4732 20.0791C78.1101 19.379 78.796 18.7344 79.5312 18.1448L78.9056 17.3646ZM76.7335 19.4061L75.9938 18.7332C75.3777 19.4104 74.6855 20.0041 73.9153 20.5152L74.4683 21.3484L75.0212 22.1817C75.9275 21.5802 76.7454 20.8791 77.4732 20.0791L76.7335 19.4061ZM74.4683 21.3484L73.9153 20.5152C73.022 21.1081 72.1999 21.7804 71.4501 22.5321L72.1581 23.2383L72.8661 23.9445C73.5201 23.2889 74.2381 22.7013 75.0212 22.1817L74.4683 21.3484ZM72.1581 23.2383L71.4501 22.5321C70.7482 23.2357 70.0463 23.9392 69.3444 24.6426L70.0522 25.349L70.7601 26.0553C71.4622 25.3518 72.1641 24.6482 72.8661 23.9445L72.1581 23.2383ZM70.0522 25.349L69.3444 24.6426C68.6326 25.356 67.9351 26.0847 67.2522 26.8287L67.9888 27.5049L68.7255 28.1812C69.3897 27.4576 70.0679 26.749 70.7601 26.0553L70.0522 25.349ZM67.9888 27.5049L67.2522 26.8287C66.6489 27.4858 65.9509 28.0441 65.1538 28.5043L65.6538 29.3704L66.1538 30.2364C67.1228 29.6769 67.9815 28.9917 68.7255 28.1812L67.9888 27.5049ZM65.6538 29.3704L65.1538 28.5043C64.1368 29.0915 63.2996 29.8786 62.6513 30.8573L63.485 31.4096L64.3186 31.9619C64.796 31.2413 65.4047 30.6689 66.1538 30.2364L65.6538 29.3704ZM63.485 31.4096L62.6513 30.8573C62.1498 31.6143 61.547 32.2566 60.8409 32.7894L61.4432 33.5877L62.0455 34.3859C62.9361 33.7139 63.6944 32.9042 64.3186 31.9619L63.485 31.4096ZM61.4432 33.5877L60.8409 32.7894C59.9876 33.4332 59.2107 34.1566 58.511 34.959L59.2647 35.6162L60.0183 36.2734C60.6267 35.5758 61.3021 34.9469 62.0455 34.3859L61.4432 33.5877ZM59.2647 35.6162L58.511 34.959C57.9106 35.6475 57.2303 36.2596 56.4681 36.7957L57.0435 37.6136L57.6189 38.4315C58.5103 37.8044 59.3107 37.0849 60.0183 36.2734L59.2647 35.6162ZM57.0435 37.6136L56.4681 36.7957C55.5187 37.4637 54.7535 38.311 54.1782 39.3282L55.0486 39.8204L55.9191 40.3127C56.35 39.5508 56.9147 38.9269 57.6189 38.4315L57.0435 37.6136ZM55.0486 39.8204L54.1782 39.3282C53.721 40.1366 53.1707 40.8499 52.5274 41.472L53.2226 42.1908L53.9178 42.9097C54.7029 42.1504 55.37 41.2834 55.9191 40.3127L55.0486 39.8204ZM53.2226 42.1908L52.5274 41.472C51.7984 42.177 51.0921 42.9035 50.4086 43.6516L51.1468 44.3261L51.8851 45.0007C52.5408 44.2831 53.2183 43.5861 53.9178 42.9097L53.2226 42.1908ZM51.1468 44.3261L50.4086 43.6516C49.7228 44.4021 49.0649 45.1764 48.435 45.9743L49.2199 46.594L50.0048 47.2136C50.6049 46.4534 51.2317 45.7157 51.8851 45.0007L51.1468 44.3261ZM49.2199 46.594L48.435 45.9743C47.8538 46.7106 47.2117 47.4006 46.5081 48.0445L47.1832 48.7822L47.8583 49.5199C48.6403 48.8044 49.356 48.0355 50.0048 47.2136L49.2199 46.594ZM47.1832 48.7822L46.5081 48.0445C45.6912 48.7921 45.0041 49.6435 44.4492 50.5964L45.3134 51.0996L46.1776 51.6028C46.6302 50.8254 47.1896 50.1319 47.8583 49.5199L47.1832 48.7822ZM45.3134 51.0996L44.4492 50.5964C43.9554 51.4444 43.4395 52.2726 42.9014 53.081L43.7338 53.6351L44.5662 54.1893C45.1267 53.3472 45.6639 52.485 46.1776 51.6028L45.3134 51.0996ZM43.7338 53.6351L42.9014 53.081C42.37 53.8791 41.7967 54.6563 41.181 55.4123L41.9565 56.0437L42.732 56.6751C43.3874 55.8702 43.9989 55.0415 44.5662 54.1893L43.7338 53.6351ZM41.9565 56.0437L41.181 55.4123C40.4651 56.2916 39.9349 57.2776 39.5928 58.3638L40.5466 58.6642L41.5005 58.9646C41.7671 58.118 42.1768 57.3569 42.732 56.6751L41.9565 56.0437ZM40.5466 58.6642L39.5928 58.3638C39.3116 59.2568 38.9356 60.0946 38.465 60.8791L39.3226 61.3935L40.1801 61.9079C40.7329 60.9863 41.173 60.0045 41.5005 58.9646L40.5466 58.6642ZM39.3226 61.3935L38.465 60.8791C37.9524 61.7337 37.4416 62.5906 36.9328 63.4497L37.7932 63.9593L38.6535 64.469C39.1605 63.6131 39.6694 62.7593 40.1801 61.9079L39.3226 61.3935ZM37.7932 63.9593L36.9328 63.4497C36.3923 64.3622 35.9428 65.3192 35.5846 66.3199L36.5261 66.6568L37.4676 66.9938C37.783 66.1129 38.1782 65.2715 38.6535 64.469L37.7932 63.9593ZM36.5261 66.6568L35.5846 66.3199C35.2579 67.2326 34.8922 68.1258 34.4874 68.9997L35.3947 69.42L36.3021 69.8404C36.7323 68.9117 37.1208 67.9628 37.4676 66.9938L36.5261 66.6568ZM35.3947 69.42L34.4874 68.9997C34.0957 69.8451 33.6262 70.6552 33.078 71.4303L33.8945 72.0077L34.7109 72.5851C35.328 71.7126 35.8587 70.7975 36.3021 69.8404L35.3947 69.42ZM33.8945 72.0077L33.078 71.4303C32.4154 72.3673 31.9648 73.4061 31.728 74.5379L32.7068 74.7428L33.6856 74.9476C33.867 74.0804 34.2083 73.2958 34.7109 72.5851L33.8945 72.0077ZM32.7068 74.7428L31.728 74.5379C31.5494 75.391 31.1984 76.1552 30.6709 76.8412L31.4637 77.4507L32.2564 78.0603C32.9681 77.1348 33.4457 76.0936 33.6856 74.9476L32.7068 74.7428ZM31.4637 77.4507L30.6709 76.8412C30.0035 77.7093 29.452 78.6364 29.0186 79.6215L29.9339 80.0242L30.8492 80.4269C31.2164 79.5923 31.6848 78.8037 32.2564 78.0603L31.4637 77.4507ZM29.9339 80.0242L29.0186 79.6215C28.5955 80.5831 28.2528 81.5818 27.99 82.6171L28.9592 82.8631L29.9285 83.1091C30.1646 82.179 30.4716 81.2852 30.8492 80.4269L29.9339 80.0242ZM28.9592 82.8631L27.99 82.6171C27.7565 83.537 27.4395 84.4136 27.0395 85.2482L27.9413 85.6803L28.8431 86.1125C29.3015 85.1561 29.6631 84.1546 29.9285 83.1091L28.9592 82.8631ZM27.9413 85.6803L27.0395 85.2482C26.6369 86.0883 26.1565 86.8934 25.5973 87.664L26.4066 88.2513L27.216 88.8386C27.8447 87.9722 28.3874 87.0634 28.8431 86.1125L27.9413 85.6803ZM26.4066 88.2513L25.5973 87.664C24.9517 88.5536 24.4363 89.5077 24.0533 90.5246L24.9891 90.8771L25.9249 91.2296C26.244 90.3824 26.6737 89.586 27.216 88.8386L26.4066 88.2513ZM24.9891 90.8771L24.0533 90.5246C23.7095 91.4372 23.3385 92.3363 22.9403 93.2219L23.8523 93.6321L24.7643 94.0422C25.1797 93.1185 25.5665 92.181 25.9249 91.2296L24.9891 90.8771ZM23.8523 93.6321L22.9403 93.2219C22.5387 94.115 22.1195 95.0017 21.6825 95.8822L22.5783 96.3267L23.4741 96.7712C23.9222 95.8681 24.3523 94.9584 24.7643 94.0422L23.8523 93.6321ZM22.5783 96.3267L21.6825 95.8822C21.2381 96.7779 20.7999 97.6755 20.3681 98.575L21.2696 99.0078L22.1711 99.4406C22.5991 98.5489 23.0335 97.6591 23.4741 96.7712L22.5783 96.3267ZM21.2696 99.0078L20.3681 98.575C19.9399 99.4669 19.506 100.357 19.0665 101.245L19.9628 101.689L20.8591 102.132C21.3021 101.237 21.7394 100.34 22.1711 99.4406L21.2696 99.0078ZM19.9628 101.689L19.0665 101.245C18.5919 102.204 18.2277 103.21 17.9737 104.26L18.9457 104.495L19.9177 104.73C20.1373 103.822 20.4511 102.957 20.8591 102.132L19.9628 101.689ZM18.9457 104.495L17.9737 104.26C17.7552 105.164 17.4373 106.023 17.0201 106.839L17.9106 107.294L18.8011 107.749C19.2905 106.792 19.6627 105.785 19.9177 104.73L18.9457 104.495ZM17.9106 107.294L17.0201 106.839C16.5417 107.776 16.1435 108.746 15.8258 109.748L16.7791 110.05L17.7323 110.352C18.0167 109.455 18.3729 108.587 18.8011 107.749L17.9106 107.294ZM16.7791 110.05L15.8258 109.748C15.5492 110.621 15.1707 111.451 14.6891 112.239L15.5426 112.761L16.396 113.282C16.9609 112.357 17.4067 111.38 17.7323 110.352L16.7791 110.05ZM15.5426 112.761L14.6891 112.239C14.1298 113.155 13.6727 114.116 13.3189 115.12L14.2621 115.453L15.2053 115.785C15.5122 114.913 15.9088 114.079 16.396 113.282L15.5426 112.761ZM14.2621 115.453L13.3189 115.12C12.9901 116.054 12.6548 116.984 12.3128 117.911L13.2511 118.257L14.1893 118.603C14.5346 117.667 14.8733 116.727 15.2053 115.785L14.2621 115.453ZM13.2511 118.257L12.3128 117.911C11.9599 118.869 11.6457 119.839 11.3701 120.823L12.3331 121.092L13.296 121.362C13.5572 120.43 13.8549 119.51 14.1893 118.603L13.2511 118.257ZM12.3331 121.092L11.3701 120.823C11.1084 121.757 10.8132 122.68 10.4844 123.59L11.4249 123.93L12.3655 124.27C12.711 123.313 13.0211 122.344 13.296 121.362L12.3331 121.092ZM11.4249 123.93L10.4844 123.59C10.1456 124.529 9.81336 125.469 9.48751 126.413L10.4328 126.74L11.378 127.066C11.7008 126.131 12.03 125.199 12.3655 124.27L11.4249 123.93ZM10.4328 126.74L9.48751 126.413C9.16037 127.361 8.84561 128.312 8.54326 129.267L9.49665 129.569L10.45 129.871C10.7472 128.932 11.0565 127.997 11.378 127.066L10.4328 126.74ZM9.49665 129.569L8.54326 129.267C8.23598 130.238 7.96546 131.219 7.73171 132.211L8.70502 132.44L9.67832 132.67C9.9006 131.727 10.1578 130.794 10.45 129.871L9.49665 129.569ZM8.70502 132.44L7.73171 132.211C7.50287 133.181 7.27921 134.153 7.06072 135.126L8.03643 135.345L9.01214 135.564C9.22906 134.598 9.45112 133.633 9.67832 132.67L8.70502 132.44ZM8.03643 135.345L7.06072 135.126C6.84583 136.083 6.61271 137.035 6.36137 137.982L7.32791 138.239L8.29446 138.495C8.5524 137.523 8.79163 136.546 9.01214 135.564L8.03643 135.345ZM7.32791 138.239L6.36137 137.982C6.1069 138.941 5.85144 139.9 5.59498 140.859L6.561 141.117L7.52702 141.375C7.78383 140.416 8.03964 139.456 8.29446 138.495L7.32791 138.239ZM6.561 141.117L5.59498 140.859C5.34808 141.781 5.04838 142.693 4.69568 143.594L5.62686 143.958L6.55805 144.323C6.93759 143.354 7.26065 142.371 7.52702 141.375L6.561 141.117ZM5.62686 143.958L4.69568 143.594C4.3057 144.59 4.01771 145.612 3.83228 146.658L4.81694 146.833L5.80159 147.007C5.96382 146.092 6.21578 145.197 6.55805 144.323L5.62686 143.958ZM4.81694 146.833L3.83228 146.658C3.65126 147.68 3.53351 148.71 3.47899 149.75L4.47762 149.802L5.47625 149.855C5.52649 148.897 5.63495 147.948 5.80159 147.007L4.81694 146.833ZM4.47762 149.802L3.47899 149.75C3.42838 150.715 3.32936 151.672 3.18202 152.62L4.17015 152.773L5.15828 152.927C5.31613 151.911 5.4221 150.887 5.47625 149.855L4.47762 149.802ZM4.17015 152.773L3.18202 152.62C3.03901 153.539 2.81146 154.439 2.49907 155.32L3.44153 155.654L4.38399 155.989C4.73788 154.991 4.99608 153.97 5.15828 152.927L4.17015 152.773ZM3.44153 155.654L2.49907 155.32C2.17011 156.247 1.82356 157.169 1.4594 158.085L2.38866 158.454L3.31791 158.824C3.6913 157.885 4.04666 156.94 4.38399 155.989L3.44153 155.654ZM2.38866 158.454L1.4594 158.085C1.06985 159.065 0.764839 160.072 0.544476 161.105L1.52248 161.314L2.50048 161.522C2.69749 160.598 2.96993 159.699 3.31791 158.824L2.38866 158.454ZM1.52248 161.314L0.544476 161.105C0.334653 162.089 0.179759 162.875 0.0820796 163.457L1.06829 163.622L2.05449 163.788C2.14504 163.248 2.29294 162.495 2.50048 161.522L1.52248 161.314ZM1.06829 163.622L0.0820796 163.457C0.0328203 163.75 -0.00246072 164.033 0.000123978 164.268C0.00129557 164.375 0.00973523 164.558 0.0763201 164.749C0.137694 164.926 0.368914 165.407 0.966417 165.474L1.07773 164.48L1.18904 163.487C1.43241 163.514 1.63234 163.63 1.76895 163.774C1.89014 163.901 1.94314 164.029 1.965 164.091C2.0057 164.208 2.0004 164.283 2 164.246C1.99944 164.195 2.00964 164.055 2.05449 163.788L1.06829 163.622ZM1.07773 164.48L1.49644 165.388L1.67062 165.308L1.25191 164.4L0.833197 163.492L0.659014 163.572L1.07773 164.48ZM1.25191 164.4L0.280102 164.164L0.256525 164.261L1.22833 164.497L2.20014 164.733L2.22372 164.636L1.25191 164.4Z" fill="white"/>
</svg>
