<svg width="137" height="39" viewBox="0 0 137 39" fill="none" xmlns="http://www.w3.org/2000/svg">
<path d="M22.5002 23.3498C24.5702 23.3498 26.2481 21.653 26.2481 19.5603C26.2481 17.4675 24.5702 15.7708 22.5002 15.7708C20.4302 15.7708 18.7524 17.4675 18.7524 19.5603C18.7524 21.653 20.4304 23.3498 22.5002 23.3498Z" fill="#00D8FF"/>
<path d="M22.5004 11.855C27.5324 11.855 32.2069 12.5851 35.7316 13.8122C39.9783 15.2903 42.5893 17.531 42.5893 19.56C42.5893 21.6743 39.8222 24.0547 35.2617 25.5824C31.814 26.7374 27.277 27.3403 22.5004 27.3403C17.603 27.3403 12.9654 26.7744 9.47872 25.5696C5.06751 24.0452 2.41071 21.6341 2.41071 19.56C2.41071 17.5474 4.90379 15.324 9.09079 13.8481C12.6285 12.6009 17.4184 11.855 22.4996 11.855H22.5004Z" stroke="#00D8FF" stroke-width="0.556938"/>
<path d="M15.8667 15.7296C18.3807 11.3222 21.3413 7.5924 24.1534 5.11834C27.5412 2.13708 30.7655 0.969513 32.5037 1.9829C34.3151 3.03915 34.9722 6.65234 34.0029 11.4099C33.2707 15.0067 31.5201 19.2816 29.1337 23.4656C26.687 27.7552 23.8856 31.5345 21.1118 33.9859C17.602 37.088 14.2088 38.2107 12.4319 37.1745C10.7076 36.1699 10.0483 32.875 10.8755 28.4702C11.5744 24.7483 13.3284 20.1803 15.8659 15.7296H15.8667Z" stroke="#00D8FF" stroke-width="0.556938"/>
<path d="M15.873 23.4769C13.352 19.0744 11.6355 14.6174 10.9192 10.9185C10.0567 6.46173 10.6664 3.0543 12.4031 2.03787C14.213 0.978366 17.6368 2.20727 21.2292 5.43249C23.9452 7.8708 26.7342 11.5386 29.1275 15.7185C31.5812 20.0041 33.4202 24.3459 34.1355 27.9997C35.0408 32.6236 34.3081 36.1566 32.5328 37.1955C30.8104 38.2039 27.6581 37.1364 24.297 34.2118C21.4572 31.741 18.4189 27.9233 15.873 23.4769Z" stroke="#00D8FF" stroke-width="0.556938"/>
<path d="M54.4347 26.5V11.9545H59.8892C61.0066 11.9545 61.9441 12.1487 62.7017 12.5369C63.464 12.9252 64.0393 13.4697 64.4276 14.1705C64.8205 14.8665 65.017 15.6785 65.017 16.6065C65.017 17.5393 64.8182 18.349 64.4205 19.0355C64.0275 19.7173 63.4474 20.2453 62.6804 20.6193C61.9134 20.9886 60.9711 21.1733 59.8537 21.1733H55.9688V18.9858H59.4986C60.152 18.9858 60.687 18.8958 61.1037 18.7159C61.5204 18.5312 61.8281 18.2637 62.027 17.9134C62.2306 17.5582 62.3324 17.1226 62.3324 16.6065C62.3324 16.0904 62.2306 15.6501 62.027 15.2855C61.8234 14.9162 61.5133 14.6368 61.0966 14.4474C60.6799 14.2533 60.1425 14.1562 59.4844 14.1562H57.0696V26.5H54.4347ZM61.9489 19.9091L65.5497 26.5H62.6094L59.0724 19.9091H61.9489ZM72.0021 26.7131C70.9084 26.7131 69.9638 26.4858 69.1683 26.0312C68.3776 25.572 67.7692 24.9233 67.343 24.0852C66.9169 23.2424 66.7038 22.2505 66.7038 21.1094C66.7038 19.9872 66.9169 19.0024 67.343 18.1548C67.7739 17.3026 68.3752 16.6397 69.147 16.1662C69.9188 15.688 70.8255 15.4489 71.8672 15.4489C72.5395 15.4489 73.174 15.5578 73.7706 15.7756C74.3719 15.9886 74.9022 16.3201 75.3615 16.7699C75.8255 17.2197 76.1901 17.7926 76.4553 18.4886C76.7204 19.1799 76.853 20.0038 76.853 20.9602V21.7486H67.9112V20.0156H74.3885C74.3838 19.5232 74.2772 19.0852 74.0689 18.7017C73.8606 18.3134 73.5694 18.008 73.1953 17.7855C72.826 17.563 72.3951 17.4517 71.9027 17.4517C71.3771 17.4517 70.9155 17.5795 70.5178 17.8352C70.12 18.0862 69.8099 18.4176 69.5874 18.8295C69.3696 19.2367 69.2583 19.6842 69.2536 20.1719V21.6847C69.2536 22.3191 69.3696 22.8636 69.6016 23.3182C69.8336 23.768 70.1579 24.1136 70.5746 24.3551C70.9912 24.5919 71.4789 24.7102 72.0376 24.7102C72.4117 24.7102 72.7502 24.6581 73.0533 24.554C73.3563 24.4451 73.6191 24.2865 73.8416 24.0781C74.0642 23.8698 74.2322 23.6117 74.3459 23.304L76.7464 23.5739C76.5949 24.2083 76.3061 24.7623 75.88 25.2358C75.4586 25.7045 74.9188 26.0691 74.2607 26.3295C73.6025 26.5852 72.8497 26.7131 72.0021 26.7131ZM82.1673 26.7202C81.476 26.7202 80.8533 26.5971 80.2994 26.3509C79.7501 26.0999 79.3145 25.7306 78.9925 25.2429C78.6753 24.7552 78.5167 24.1539 78.5167 23.4389C78.5167 22.8234 78.6303 22.3144 78.8576 21.9119C79.0849 21.5095 79.395 21.1875 79.788 20.946C80.181 20.7045 80.6237 20.5223 81.1161 20.3991C81.6133 20.2713 82.127 20.179 82.6573 20.1222C83.2965 20.0559 83.815 19.9967 84.2127 19.9446C84.6104 19.8878 84.8993 19.8026 85.0792 19.6889C85.2638 19.5705 85.3562 19.3883 85.3562 19.142V19.0994C85.3562 18.5644 85.1976 18.1501 84.8803 17.8565C84.5631 17.563 84.1062 17.4162 83.5096 17.4162C82.8799 17.4162 82.3803 17.5535 82.011 17.8281C81.6464 18.1027 81.4002 18.4271 81.2724 18.8011L78.8718 18.4602C79.0612 17.7973 79.3737 17.2434 79.8093 16.7983C80.2449 16.3485 80.7776 16.0123 81.4073 15.7898C82.0371 15.5625 82.7331 15.4489 83.4954 15.4489C84.021 15.4489 84.5442 15.5104 85.065 15.6335C85.5858 15.7566 86.0617 15.9602 86.4925 16.2443C86.9234 16.5237 87.2691 16.9048 87.5295 17.3878C87.7946 17.8707 87.9272 18.4744 87.9272 19.1989V26.5H85.4556V25.0014H85.3704C85.2141 25.3045 84.994 25.5885 84.7099 25.8537C84.4305 26.1141 84.0778 26.3248 83.6516 26.4858C83.2302 26.642 82.7354 26.7202 82.1673 26.7202ZM82.8349 24.831C83.351 24.831 83.7984 24.7292 84.1772 24.5256C84.556 24.3172 84.8472 24.0426 85.0508 23.7017C85.2591 23.3608 85.3633 22.9891 85.3633 22.5866V21.3011C85.2828 21.3674 85.1455 21.429 84.9513 21.4858C84.762 21.5426 84.5489 21.5923 84.3121 21.6349C84.0754 21.6776 83.841 21.7154 83.609 21.7486C83.377 21.7817 83.1758 21.8101 83.0053 21.8338C82.6218 21.8859 82.2785 21.9711 81.9755 22.0895C81.6725 22.2079 81.4334 22.3736 81.2582 22.5866C81.083 22.795 80.9954 23.0649 80.9954 23.3963C80.9954 23.8698 81.1682 24.2273 81.5138 24.4688C81.8595 24.7102 82.2998 24.831 82.8349 24.831ZM95.271 26.7131C94.1819 26.7131 93.2468 26.474 92.4656 25.9957C91.689 25.5175 91.0901 24.857 90.6687 24.0142C90.252 23.1667 90.0437 22.1913 90.0437 21.0881C90.0437 19.9801 90.2567 19.0024 90.6829 18.1548C91.109 17.3026 91.7103 16.6397 92.4869 16.1662C93.2681 15.688 94.1914 15.4489 95.2567 15.4489C96.1422 15.4489 96.9258 15.6122 97.6076 15.9389C98.2942 16.2609 98.841 16.7178 99.2482 17.3097C99.6554 17.8968 99.8874 18.5833 99.9442 19.3693H97.4869C97.3874 18.8437 97.1507 18.4058 96.7766 18.0554C96.4073 17.7003 95.9125 17.5227 95.2923 17.5227C94.7667 17.5227 94.305 17.6648 93.9073 17.9489C93.5096 18.2282 93.1995 18.6307 92.9769 19.1562C92.7591 19.6818 92.6502 20.3116 92.6502 21.0455C92.6502 21.7888 92.7591 22.428 92.9769 22.9631C93.1947 23.4934 93.5001 23.9029 93.8931 24.1918C94.2908 24.4759 94.7572 24.6179 95.2923 24.6179C95.671 24.6179 96.0096 24.5469 96.3079 24.4048C96.6109 24.258 96.8642 24.0473 97.0678 23.7727C97.2714 23.4981 97.4111 23.1643 97.4869 22.7713H99.9442C99.8827 23.5431 99.6554 24.2273 99.2624 24.8239C98.8694 25.4157 98.3344 25.8797 97.6573 26.2159C96.9802 26.5473 96.1848 26.7131 95.271 26.7131ZM107.503 15.5909V17.5795H101.232V15.5909H107.503ZM102.78 12.9773H105.351V23.2188C105.351 23.5644 105.403 23.8295 105.507 24.0142C105.616 24.1941 105.758 24.3172 105.933 24.3835C106.108 24.4498 106.303 24.483 106.516 24.483C106.677 24.483 106.823 24.4711 106.956 24.4474C107.093 24.4238 107.197 24.4025 107.268 24.3835L107.702 26.3935C107.564 26.4408 107.368 26.4929 107.112 26.5497C106.861 26.6065 106.554 26.6397 106.189 26.6491C105.545 26.6681 104.965 26.571 104.449 26.358C103.933 26.1402 103.523 25.804 103.22 25.3494C102.922 24.8949 102.775 24.3267 102.78 23.6449V12.9773ZM111.237 26.6562C110.806 26.6562 110.437 26.5047 110.129 26.2017C109.821 25.8987 109.67 25.5294 109.674 25.0938C109.67 24.6676 109.821 24.303 110.129 24C110.437 23.697 110.806 23.5455 111.237 23.5455C111.654 23.5455 112.016 23.697 112.324 24C112.636 24.303 112.795 24.6676 112.799 25.0938C112.795 25.3826 112.719 25.6454 112.572 25.8821C112.43 26.1188 112.241 26.3082 112.004 26.4503C111.772 26.5876 111.516 26.6562 111.237 26.6562ZM121.306 11.9545H123.92V22.1818C123.915 23.1193 123.716 23.9266 123.323 24.6037C122.93 25.276 122.381 25.7945 121.675 26.1591C120.975 26.5189 120.158 26.6989 119.225 26.6989C118.373 26.6989 117.606 26.5473 116.924 26.2443C116.247 25.9366 115.71 25.482 115.312 24.8807C114.914 24.2794 114.715 23.5312 114.715 22.6364H117.336C117.341 23.0294 117.426 23.3679 117.592 23.652C117.762 23.9361 117.996 24.1539 118.295 24.3054C118.593 24.4569 118.936 24.5327 119.325 24.5327C119.746 24.5327 120.103 24.4451 120.397 24.2699C120.691 24.09 120.913 23.8248 121.065 23.4744C121.221 23.1241 121.301 22.6932 121.306 22.1818V11.9545ZM135.287 18.4744L132.943 18.7301C132.877 18.4934 132.761 18.2708 132.595 18.0625C132.434 17.8542 132.216 17.6861 131.942 17.5582C131.667 17.4304 131.331 17.3665 130.933 17.3665C130.398 17.3665 129.948 17.4825 129.584 17.7145C129.224 17.9465 129.046 18.2472 129.051 18.6165C129.046 18.9337 129.162 19.1918 129.399 19.3906C129.641 19.5895 130.038 19.7528 130.592 19.8807L132.453 20.2784C133.485 20.5009 134.252 20.8537 134.754 21.3366C135.261 21.8196 135.517 22.4517 135.521 23.233C135.517 23.9195 135.315 24.5256 134.918 25.0511C134.525 25.572 133.978 25.9792 133.277 26.2727C132.576 26.5663 131.771 26.7131 130.862 26.7131C129.527 26.7131 128.452 26.4337 127.638 25.875C126.823 25.3116 126.338 24.5279 126.182 23.5241L128.689 23.2827C128.803 23.7751 129.044 24.1468 129.413 24.3977C129.783 24.6487 130.263 24.7741 130.855 24.7741C131.466 24.7741 131.956 24.6487 132.325 24.3977C132.699 24.1468 132.886 23.8366 132.886 23.4673C132.886 23.1548 132.766 22.8968 132.524 22.6932C132.287 22.4896 131.918 22.3333 131.416 22.2244L129.555 21.8338C128.509 21.616 127.735 21.2491 127.233 20.733C126.731 20.2121 126.482 19.554 126.487 18.7585C126.482 18.0862 126.665 17.5038 127.034 17.0114C127.408 16.5142 127.927 16.1307 128.589 15.8608C129.257 15.5862 130.027 15.4489 130.898 15.4489C132.176 15.4489 133.182 15.7211 133.916 16.2656C134.655 16.8101 135.112 17.5464 135.287 18.4744Z" fill="#323330"/>
</svg>
