<svg width="133" height="36" viewBox="0 0 133 36" fill="none" xmlns="http://www.w3.org/2000/svg">
<g clip-path="url(#clip0_81_383)">
<path d="M70.4347 8.96582C74.5024 8.96582 78.4957 12.1734 78.4957 17.9614V18.0352C78.4957 23.7864 74.5392 27.0306 70.4347 27.0306C67.5505 27.0306 65.7386 25.5929 64.5185 23.9708V30.0908C64.5207 30.6085 64.3197 31.1064 63.9584 31.4782C63.5972 31.85 63.1043 32.0661 62.5854 32.0804L62.5217 32.0815C61.4494 32.0815 60.562 31.1967 60.562 30.1276V11.0305C60.5249 9.96139 61.4125 9.07641 62.4848 9.03964H62.5217C63.0409 9.03741 63.5404 9.23778 63.9133 9.59791C64.2863 9.95804 64.5031 10.4494 64.5175 10.9668L64.5185 11.0305V12.2102C65.8127 10.4038 67.6245 8.96582 70.4347 8.96582ZM123.09 8.92905C125.855 8.92905 127.654 10.3217 128.944 12.0877L129.006 12.1732V10.9935L129.007 10.93C129.021 10.4238 129.229 9.94202 129.588 9.5838C129.947 9.22558 130.43 9.01807 130.938 9.00389L131.003 9.00286H131.04C132.128 9.03912 133.002 9.89069 133.001 10.9668L133 11.0305V23.1229C133 26.0353 132.223 28.2105 130.781 29.6482C129.228 31.2335 126.787 31.9709 123.645 31.9709C121.315 31.9709 119.023 31.4547 116.915 30.4223C116.249 30.2012 115.806 29.5376 115.806 28.8373C115.842 27.9153 116.582 27.215 117.506 27.215C117.765 27.215 117.987 27.252 118.209 27.3626C119.836 28.2841 121.685 28.7265 123.534 28.7265C126.899 28.7265 128.821 27.1044 129.006 23.9708C127.786 25.5559 125.974 26.9938 123.09 26.9938C119.026 26.9938 115.108 23.8141 115.03 18.1699L115.029 17.9982V17.9246C115.029 12.1364 119.023 8.92905 123.09 8.92905ZM107.301 9.03964C111.22 9.03964 113.476 11.6573 113.476 15.6758V25.0029C113.513 26.072 112.662 26.92 111.59 26.957H111.516C110.444 26.9938 109.556 26.1091 109.519 25.04V16.8923C109.519 14.2011 108.188 12.6526 105.785 12.6526C103.492 12.6526 101.865 14.2747 101.865 16.9661V25.04C101.866 25.3017 101.815 25.561 101.715 25.803C101.615 26.045 101.468 26.2648 101.283 26.4499C101.097 26.635 100.876 26.7815 100.634 26.8812C100.391 26.9809 100.131 27.0316 99.8685 27.0306C99.606 27.0317 99.3458 26.9809 99.1031 26.8813C98.8603 26.7816 98.6398 26.6351 98.4541 26.45C98.2685 26.2649 98.1215 26.0451 98.0215 25.803C97.9215 25.561 97.8706 25.3017 97.8717 25.04L97.9085 11.0673C97.8717 9.99817 98.759 9.11345 99.8313 9.07641H99.8685C100.388 9.07419 100.887 9.27459 101.26 9.63478C101.633 9.99496 101.85 10.4863 101.864 11.0038L101.865 11.0673V11.8785C103.049 10.0349 105.119 8.96582 107.301 9.03964ZM52.2792 9.00286C54.2019 9.03964 56.0509 9.51903 57.7516 10.4038C58.3434 10.6987 58.713 11.2517 58.713 11.9152C58.713 12.8 57.9735 13.5373 57.0861 13.5373H57.0492C56.7902 13.5373 56.5315 13.4638 56.2725 13.3532C55.0153 12.6526 53.6473 12.2473 52.2051 12.1734C50.6522 12.1734 49.7646 12.9105 49.7646 13.8693V13.9429C49.7646 15.2332 51.6505 15.7494 53.6842 16.4129L53.851 16.4642L54.0185 16.5165C54.2144 16.5781 54.4104 16.6429 54.6067 16.7107L54.7747 16.7698C56.9835 17.5589 59.0829 18.8044 59.0829 21.4638V21.5376C59.0829 25.1873 56.2356 26.9938 52.6488 26.9938C50.2823 26.957 47.9528 26.2564 45.9931 24.9294C45.5125 24.6341 45.2164 24.1182 45.2535 23.5652C45.2535 22.6805 45.9559 21.9432 46.8433 21.9432H46.8804C47.1763 21.9432 47.4722 22.0167 47.7309 22.1644C49.21 23.1964 50.9478 23.7494 52.7228 23.8232C54.4238 23.8232 55.4221 23.0859 55.4221 21.9429V21.8694C55.4221 20.5052 53.5733 20.0629 51.5396 19.4361C51.3266 19.375 51.1123 19.3111 50.8967 19.2445L50.7351 19.194C48.4185 18.4589 46.104 17.3209 46.104 14.3485V14.2747C46.104 10.9935 48.8404 9.00286 52.2792 9.00286ZM93.878 9.07641C94.3972 9.07419 94.8968 9.27459 95.2697 9.63478C95.6427 9.99496 95.8595 10.4863 95.8738 11.0038L95.8748 11.0673V25.04C95.8748 26.1459 94.9875 26.9938 93.878 26.9938C92.7688 26.9938 91.9183 26.1091 91.9183 25.04V11.0673C91.8815 9.99817 92.7688 9.11345 93.8411 9.07641H93.878ZM90.3283 10.699V10.9937C90.3283 11.9523 89.6628 12.7634 88.7385 12.9108C85.891 13.3902 83.9682 15.8602 83.9682 19.289V25.0032C83.9682 26.1091 83.0809 26.9573 81.9717 26.9573C80.9204 26.9573 80.0468 26.1422 80.013 25.1029L80.0117 25.04V25.0032L80.0489 11.0305C80.0117 9.96165 80.8993 9.07667 81.9717 9.0399H82.0085C82.5277 9.03767 83.0272 9.23804 83.4001 9.59817C83.7731 9.9583 83.9899 10.4496 84.0043 10.9671L84.0054 11.0308V11.989C84.1901 10.5146 86.6306 9.0399 88.3686 9.0399C89.3669 8.96608 90.2545 9.70343 90.3283 10.699ZM69.5473 12.4317C66.8481 12.4317 64.4814 14.6805 64.4814 17.9617V18.0355C64.4814 21.3534 66.8478 23.5655 69.5473 23.5655C72.2468 23.5655 74.5024 21.464 74.5024 18.0355V17.9617C74.5024 14.6067 72.2466 12.4317 69.5473 12.4317ZM124.014 12.3949C121.343 12.3949 119.106 14.5254 119.06 17.8216L119.059 17.9249V17.9985C119.059 21.4273 121.278 23.5655 124.014 23.5655C126.723 23.5655 129.069 21.3623 129.08 18.0997L129.08 17.9987V17.9249C129.08 14.6435 126.714 12.3949 124.014 12.3949ZM95.912 4.2102V4.28375C95.9131 4.54551 95.8622 4.80488 95.7622 5.04692C95.6623 5.28896 95.5152 5.50887 95.3296 5.69396C95.1439 5.87905 94.9234 6.02565 94.6806 6.12532C94.4378 6.22498 94.1777 6.27573 93.9152 6.27463C93.6526 6.27573 93.3925 6.22498 93.1497 6.12532C92.907 6.02565 92.6864 5.87905 92.5007 5.69396C92.3151 5.50887 92.1681 5.28896 92.0681 5.04692C91.9681 4.80488 91.9172 4.54551 91.9183 4.28375C91.9161 3.76611 92.1171 3.26813 92.4783 2.89629C92.8395 2.52445 93.3323 2.30825 93.8513 2.29391L93.9152 2.29287C94.9875 2.2561 95.8748 3.14082 95.912 4.2102ZM5.46627 5.0211C12.5657 -1.83599 23.9179 -1.65184 30.7955 5.46346C31.5722 4.43138 32.2377 3.28844 32.7183 2.10873C34.9738 8.96582 36.342 14.7173 35.8243 19.1782C35.5656 22.9385 34.0865 26.5514 31.646 29.427C25.2859 36.9479 13.971 37.9065 6.42792 31.5653L6.28271 31.4368L6.25751 31.4195C6.17071 31.3582 6.09092 31.2876 6.01957 31.2089L5.99957 31.1859L5.76214 30.9755C5.5403 30.786 5.31846 30.5961 5.11974 30.3835L5.02259 30.275C-1.85523 23.1967 -1.63313 11.8785 5.46627 5.0211ZM8.12886 29.0215C7.46308 28.5053 6.50169 28.5791 5.98398 29.2426C5.53277 29.8212 5.53095 30.6238 5.97904 31.1623L5.99957 31.1859L6.28271 31.4368L6.3105 31.4557C6.95109 31.8763 7.81143 31.7942 8.30992 31.2097L8.35044 31.1597C8.86816 30.4962 8.7575 29.5376 8.12886 29.0215ZM32.5331 3.95224C30.6843 7.82341 26.0992 10.7726 22.1424 11.6943C20.6184 12.0553 19.1741 12.1463 17.7646 12.2175L17.3428 12.2387C15.4488 12.3332 13.6099 12.4376 11.7152 13.169C3.87598 16.1552 4.02405 25.4458 8.3133 27.547L8.57202 27.6946C8.57202 27.6946 11.4105 27.1318 14.3404 26.3725L14.6027 26.3038L14.7342 26.2691L14.9965 26.1992C16.2206 25.8703 17.4243 25.5121 18.408 25.1508C23.5109 23.2705 29.1312 18.6252 30.9802 13.2428C30.0188 18.8464 25.1747 24.2658 20.3308 26.7361C17.7425 28.0632 15.7457 28.3582 11.4933 29.8329C11.1807 29.9441 10.8723 30.0671 10.5688 30.2014L10.6421 30.1916L10.7878 30.1724L10.9328 30.1543C11.871 30.0383 12.7135 29.9802 12.7135 29.9802C18.7408 29.6852 28.2069 31.6761 32.6071 25.8143C37.1182 19.842 34.6039 10.1828 32.5331 3.95224Z" fill="#6DB33F"/>
<path d="M8.12859 29.0215C8.75722 29.5377 8.86814 30.4962 8.35042 31.1598C7.83271 31.8233 6.87132 31.8971 6.2058 31.3809C5.54028 30.8648 5.46625 29.9065 5.98396 29.2427C6.50167 28.5791 7.46307 28.5053 8.12859 29.0215ZM32.5336 3.95204C34.6039 10.1826 37.1184 19.8418 32.6073 25.8141C28.2069 31.6759 18.741 29.685 12.7137 29.98C12.7137 29.98 11.6414 30.0539 10.5691 30.2012C10.5691 30.2012 10.9759 30.0171 11.4936 29.8327C15.7459 28.358 17.7428 28.063 20.3308 26.7359C25.1749 24.2656 30.019 18.8462 30.9804 13.2424C29.1314 18.625 23.5111 23.2706 18.4083 25.1506C17.495 25.486 16.3915 25.8188 15.2589 26.128L14.997 26.199C11.8502 27.0446 8.57226 27.6944 8.57226 27.6944L8.31354 27.5468C4.02429 25.4456 3.87622 16.155 11.7154 13.1688C15.1542 11.8415 18.4083 12.5788 22.1429 11.6941C26.0994 10.7724 30.6845 7.82321 32.5336 3.95204Z" fill="white"/>
</g>
<defs>
<clipPath id="clip0_81_383">
<rect width="133" height="36" fill="white"/>
</clipPath>
</defs>
</svg>
