<svg width="196" height="28" viewBox="0 0 196 28" fill="none" xmlns="http://www.w3.org/2000/svg">
<g clip-path="url(#clip0_81_380)">
<path d="M20.2224 0C14.8297 0 11.4593 3.11121 10.111 9.33363C12.1332 6.22198 14.4926 5.05529 17.1891 5.83357C18.7272 6.27715 19.8269 7.56506 21.0441 8.99068C23.0266 11.3123 25.3213 14.0002 30.3334 14.0002C35.7261 14.0002 39.0965 10.889 40.4444 4.66659C38.4222 7.77824 36.063 8.94493 33.3668 8.16665C31.8283 7.72307 30.7289 6.43516 29.5118 5.00954C27.5288 2.68794 25.2345 0 20.2224 0ZM10.111 14.0002C4.71858 14.0002 1.34824 17.1114 0 23.3338C2.02223 20.2222 4.38145 19.0555 7.07767 19.8338C8.61615 20.2774 9.71588 21.5653 10.9327 22.9905C12.9156 25.3129 15.2103 28 20.2224 28C25.6149 28 28.9852 24.8889 30.3334 18.6668C28.3112 21.7785 25.952 22.9451 23.2558 22.1669C21.7173 21.7233 20.6175 20.4354 19.4004 19.0098C17.4178 16.6882 15.1231 14.0002 10.111 14.0002Z" fill="url(#paint0_linear_81_380)"/>
<path d="M60.711 10.2325H57.1792V17.0688C57.1792 18.8917 58.3755 18.8634 60.711 18.7493V21.5121C55.9829 22.0817 54.1029 20.7717 54.1029 17.0688V10.2329H51.4825V7.27068H54.1029V3.44485L57.1792 2.53375V7.27068H60.711V10.2325ZM74.1745 7.27068H77.2508V21.5121H74.1745V19.4613C73.0923 20.9712 71.4118 21.8826 69.1903 21.8826C65.3162 21.8826 62.0976 18.6069 62.0976 14.3914C62.0976 10.1475 65.3162 6.9005 69.1899 6.9005C71.4118 6.9005 73.0923 7.81159 74.1745 9.29307V7.27068ZM69.6742 18.9488C72.2375 18.9488 74.1745 17.0404 74.1745 14.3914C74.1745 11.7423 72.2375 9.83399 69.6742 9.83399C67.1109 9.83399 65.1738 11.7423 65.1738 14.3914C65.1738 17.0404 67.1109 18.9488 69.6742 18.9488ZM82.3778 5.1342C81.2952 5.1342 80.4125 4.2231 80.4125 3.16922C80.4135 2.64829 80.6208 2.14898 80.9892 1.78062C81.3576 1.41226 81.8569 1.20487 82.3778 1.20386C82.8987 1.20487 83.3981 1.41226 83.7664 1.78062C84.1348 2.14898 84.3422 2.64829 84.3432 3.16922C84.3432 4.2231 83.46 5.1342 82.3778 5.1342ZM80.8397 21.5121V7.27068H83.9156V21.5121H80.8397ZM87.4761 21.5121V0.719604H90.5524V21.5121H87.4761ZM110.519 7.27068H113.766L109.294 21.5121H106.275L103.313 11.9134L100.322 21.5121H97.3029L92.8309 7.27068H96.0779L98.841 17.0975L101.832 7.27068H104.765L107.728 17.0975L110.519 7.27068ZM117.583 5.13458C116.501 5.13458 115.617 4.2231 115.617 3.16922C115.618 2.64829 115.826 2.14898 116.194 1.78062C116.563 1.41226 117.062 1.20487 117.583 1.20386C118.104 1.20487 118.603 1.41226 118.971 1.78062C119.34 2.14898 119.547 2.64829 119.548 3.16922C119.548 4.2231 118.665 5.1342 117.583 5.1342M116.045 21.5117V7.27068H119.121V21.5121L116.045 21.5117ZM130.172 6.89973C133.362 6.89973 135.641 9.06454 135.641 12.7675V21.5117H132.565V13.081C132.565 10.9166 131.312 9.77733 129.375 9.77733C127.353 9.77733 125.757 10.9732 125.757 13.8788V21.5121H122.681V7.27068H125.757V9.09363C126.698 7.61214 128.235 6.89973 130.172 6.89973ZM150.224 1.57404H153.301V21.5121H150.224V19.4613C149.142 20.9712 147.462 21.8826 145.24 21.8826C141.366 21.8826 138.147 18.6069 138.147 14.3914C138.147 10.1475 141.366 6.9005 145.24 6.9005C147.462 6.9005 149.142 7.81159 150.224 9.29307V1.57404ZM145.724 18.9488C148.287 18.9488 150.224 17.0404 150.224 14.3914C150.224 11.7423 148.287 9.83399 145.724 9.83399C143.161 9.83399 141.224 11.7423 141.224 14.3914C141.224 17.0404 143.161 18.9488 145.724 18.9488ZM163.611 21.8826C159.31 21.8826 156.092 18.6069 156.092 14.3914C156.092 10.1475 159.31 6.9005 163.611 6.9005C166.403 6.9005 168.824 8.35289 169.963 10.5747L167.314 12.1129C166.688 10.7742 165.292 9.91936 163.583 9.91936C161.076 9.91936 159.168 11.8281 159.168 14.3914C159.168 16.9547 161.076 18.8634 163.583 18.8634C165.292 18.8634 166.688 17.9802 167.371 16.6699L170.02 18.1797C168.824 20.4299 166.403 21.8826 163.611 21.8826ZM175.09 11.2014C175.09 13.793 182.752 12.2266 182.752 17.496C182.752 20.3441 180.274 21.8826 177.198 21.8826C174.35 21.8826 172.299 20.6006 171.387 18.5499L174.037 17.0117C174.492 18.2938 175.631 19.0624 177.198 19.0624C178.565 19.0624 179.619 18.6069 179.619 17.4677C179.619 14.9327 171.957 16.3567 171.957 11.2584C171.957 8.58066 174.264 6.9005 177.169 6.9005C179.505 6.9005 181.442 7.98271 182.439 9.8627L179.847 11.3151C179.334 10.2046 178.337 9.69196 177.169 9.69196C176.059 9.69196 175.09 10.1758 175.09 11.2014ZM188.221 11.2014C188.221 13.793 195.883 12.2266 195.883 17.496C195.883 20.3441 193.405 21.8826 190.329 21.8826C187.481 21.8826 185.429 20.6006 184.518 18.5499L187.167 17.0117C187.623 18.2938 188.762 19.0624 190.329 19.0624C191.696 19.0624 192.75 18.6069 192.75 17.4677C192.75 14.9327 185.088 16.3567 185.088 11.2584C185.088 8.58066 187.395 6.9005 190.3 6.9005C192.635 6.9005 194.572 7.98271 195.57 9.8627L192.978 11.3151C192.465 10.2046 191.468 9.69196 190.3 9.69196C189.189 9.69196 188.221 10.1758 188.221 11.2014Z" fill="#2D3748"/>
</g>
<defs>
<linearGradient id="paint0_linear_81_380" x1="-112.355" y1="896" x2="3611.96" y2="2757.06" gradientUnits="userSpaceOnUse">
<stop stop-color="#2298BD"/>
<stop offset="1" stop-color="#0ED7B5"/>
</linearGradient>
<clipPath id="clip0_81_380">
<rect width="196" height="28" fill="white"/>
</clipPath>
</defs>
</svg>
